<?xml version="1.0" encoding="utf-8"?>
<!-- Generator: Adobe Illustrator 21.0.2, SVG Export Plug-In . SVG Version: 6.00 Build 0)  -->
<svg version="1.1" id="Layer_1" xmlns="http://www.w3.org/2000/svg" xmlns:xlink="http://www.w3.org/1999/xlink" x="0px" y="0px"
	 viewBox="0 0 350 75" style="enable-background:new 0 0 350 75;" xml:space="preserve">
<style type="text/css">
	.st0{fill:#F9F7FB;}
	.st1{fill:#5A67F4;}
	.st2{fill:#F9F7FB;stroke:#F9F7FB;stroke-miterlimit:10;}
	.st3{fill:#27BEBA;}
	.st4{fill:#1B98FC;}
	.st5{fill:#FDBB4F;}
	.st6{fill:#F84D53;}
	.st7{fill:#EE45FC;}
	.st8{clip-path:url(#SVGID_2_);}
	.st9{fill:#FBF5F3;}
	.st10{fill:#F7F6F9;}
	.st11{fill:#FFC857;}
	.st12{fill:#34E5FF;}
	.st13{fill:#4056F4;}
	.st14{fill:#F56376;}
	.st15{fill:#40F99B;}
	.st16{fill:#0C0C0C;}
	.st17{fill:#02F99F;}
	.st18{fill:#3500FB;}
	.st19{fill:#F1F0FD;}
	.st20{fill:#13063B;}
	.st21{fill:#FFD700;}
	.st22{fill:#FFFFFF;}
	.st23{fill:#53146C;}
	.st24{fill:#FDBC2B;}
	.st25{fill:#FC551E;}
	.st26{fill:#39BDEB;}
	.st27{fill:#43CDAC;}
	.st28{fill:#EDF2F4;}
</style>
<g>
	<g>
		<g>
			<circle class="st17" cx="71.1" cy="23.3" r="5.8"/>
		</g>
	</g>
	<g>
		<g>
			<circle class="st17" cx="75" cy="34.2" r="6.1"/>
		</g>
	</g>
	<g>
		<g>
			<circle class="st18" cx="77.9" cy="29.9" r="5.8"/>
		</g>
	</g>
	<g>
		<g>
			<g>
				<path class="st17" d="M64.9,54.6C64.9,54.6,64.8,54.5,64.9,54.6l-10.3-3.4c0,0-0.1,0-0.1-0.1L47,42.5c0-0.1-0.1-0.1,0-0.2l5-9.5
					c0,0,0,0,0,0l6.1-6.6c0-0.1,0.1-0.1,0.2,0L69.8,30c0,0,0,0,0.1,0l4.3,4c0,0,0,0,0,0l3.9,4.6c0,0.1,0.1,0.1,0,0.2L72,51.3
					c0,0,0,0.1-0.1,0.1L64.9,54.6C64.9,54.5,64.9,54.6,64.9,54.6z M54.7,50.8l10.1,3.3l6.8-3.1l6.1-12.3l-3.8-4.5l-4.2-4l-11.4-3.8
					l-6,6.5l-4.9,9.4L54.7,50.8z"/>
			</g>
		</g>
		<g>
			<g>
				<path class="st17" d="M70.6,42.5l-10-3.3c0,0-0.1,0-0.1-0.1l-6.1-7.6l0.3-0.2l6.1,7.5l9.9,3.3L70.6,42.5z"/>
			</g>
		</g>
		<g>
			<g>
				<path class="st17" d="M71.8,51.4C71.8,51.4,71.8,51.4,71.8,51.4l-10-3.6l-7.2,3.4c-0.1,0-0.2,0-0.2,0c-0.1-0.1-0.1-0.1,0-0.2
					l3.7-7.3l-3.7-4.4c-0.1-0.1-0.1-0.2,0-0.2c0-0.1,0.1-0.1,0.2-0.1l5,1.8l3.4-6.6l-8.4-2.9l0.1-0.3l8.6,2.9c0,0,0.1,0.1,0.1,0.1
					c0,0,0,0.1,0,0.1L60,40.9l4.3,1.6L70,31l0.3,0.2l-5.8,11.4l7.4,8.5c0.1,0.1,0.1,0.2,0,0.2C71.9,51.4,71.9,51.4,71.8,51.4z
					 M62.1,47.5l9.1,3.3L64.4,43L62.1,47.5z M58.5,43.9L55,50.6l6.5-3.1L58.5,43.9z M58.6,43.5l3.2,3.8l2.3-4.5l-4.3-1.6L58.6,43.5z
					 M55.2,39.5l3.2,3.8l1.1-2.2L55.2,39.5z"/>
			</g>
		</g>
		<g>
			<g>
				<path class="st17" d="M64.9,54.6c0,0-0.1,0-0.1-0.1L57,46.1l-9.9-3.6c-0.1,0-0.1-0.1-0.1-0.2c0-0.1,0-0.1,0.1-0.2l7.4-3.3
					L60,27.3l0.3,0.2l-5.5,11.7c0,0,0,0.1-0.1,0.1l-7.1,3.2l9.6,3.4c0,0,0.1,0,0.1,0l7.6,8.2l5.7-11.8c0,0,0-0.1,0.1-0.1l6.9-3.4
					l-9.5-3.1l-7.2,3.5l-0.2-0.3l7.2-3.6c0,0,0.1,0,0.1,0l10,3.3c0.1,0,0.1,0.1,0.1,0.2s0,0.1-0.1,0.2l-7.3,3.5l-5.8,12
					C65,54.5,65,54.5,64.9,54.6C64.9,54.6,64.9,54.6,64.9,54.6z"/>
			</g>
		</g>
		<g>
			<g>
				
					<rect x="64.1" y="25.7" transform="matrix(0.7555 -0.6552 0.6552 0.7555 -4.799 49.7773)" class="st17" width="0.4" height="11.1"/>
			</g>
		</g>
		<g>
			<g>
				<rect x="63" y="32.3" transform="matrix(0.923 -0.3848 0.3848 0.923 -7.354 28.2739)" class="st17" width="8" height="0.4"/>
			</g>
		</g>
	</g>
	<g>
		<g>
			<path class="st19" d="M61.2,72.4c0-1.8,0.4-6.8,2.1-13.2c1.3-4.6,3.1-9.3,5.4-13.8c2.8-5.7,6.4-11.2,10.6-16.4
				c5.7-6.8,7-9,9.1-12.3l0.5,0.3c-2.1,3.3-3.4,5.5-9.1,12.4C75.5,34.5,72,40,69.1,45.6c-2.3,4.5-4,9.1-5.3,13.7
				c-2.2,7.8-2.1,12.9-2.1,13L61.2,72.4z"/>
		</g>
	</g>
	<g>
		<path class="st20" d="M117.9,35c0,1,0.1,2,0.1,3.1s0,2.1-0.1,3c-0.1,1.6-0.4,2.9-1,4.1c-0.6,1.2-1.4,2.2-2.4,3
			c-1,0.8-2.2,1.4-3.6,1.8c-1.4,0.4-3,0.6-4.7,0.6c-1.7,0-3.3-0.2-4.7-0.6c-1.4-0.4-2.6-1-3.6-1.8c-1-0.8-1.8-1.8-2.4-3
			c-0.6-1.2-0.9-2.5-1-4.1c0-1-0.1-2-0.1-3s0-2.1,0.1-3.1c0.1-1.5,0.4-2.9,1-4.1c0.6-1.2,1.4-2.2,2.4-3s2.2-1.4,3.6-1.9
			c1.4-0.4,3-0.6,4.7-0.6c1.7,0,3.3,0.2,4.7,0.6c1.4,0.4,2.6,1,3.6,1.9s1.8,1.8,2.4,3C117.5,32.1,117.8,33.4,117.9,35z M103.6,40.9
			c0,1,0.3,1.7,0.8,2.2c0.5,0.5,1.1,0.7,1.8,0.7c0.8,0,1.4-0.2,1.8-0.7s0.7-1.2,0.8-2.2c0.1-2,0.1-3.9,0-5.9c0-1-0.3-1.7-0.8-2.1
			c-0.5-0.5-1.1-0.7-1.8-0.7c-0.7,0-1.4,0.2-1.8,0.7c-0.5,0.5-0.7,1.2-0.8,2.1C103.5,37,103.5,38.9,103.6,40.9z"/>
		<path class="st20" d="M132.1,25.7c1.6,0,3.1,0.2,4.5,0.6c1.4,0.4,2.6,1,3.7,1.8c1,0.8,1.9,1.8,2.5,3c0.6,1.2,0.9,2.6,1,4.1
			c0,0.5,0,1,0,1.4s0,0.9,0,1.3c0,0.4,0,0.8,0,1.2s0,0.9,0,1.3c-0.1,1.7-0.4,3.1-1,4.3c-0.6,1.2-1.4,2.2-2.4,3
			c-1,0.8-2.2,1.4-3.6,1.8c-1.4,0.4-2.9,0.6-4.6,0.6H122c-0.3,0-0.5-0.1-0.7-0.3c-0.2-0.2-0.3-0.4-0.3-0.7V26.7
			c0-0.3,0.1-0.5,0.3-0.7c0.2-0.2,0.4-0.3,0.7-0.3H132.1z M134.9,35.3c0-1-0.4-1.7-0.9-2.1c-0.6-0.4-1.3-0.7-2-0.7h-2.1v10.8h2.3
			c0.8,0,1.4-0.2,1.9-0.7c0.5-0.5,0.8-1.2,0.9-2.1c0-0.5,0-0.9,0.1-1.4c0-0.4,0-0.9,0-1.3c0-0.4,0-0.8,0-1.2
			C134.9,36.3,134.9,35.8,134.9,35.3z"/>
		<path class="st20" d="M158,25.7c1.6,0,3.1,0.2,4.5,0.6c1.4,0.4,2.6,1,3.7,1.8c1,0.8,1.9,1.8,2.5,3c0.6,1.2,0.9,2.6,1,4.1
			c0,0.5,0,1,0,1.4s0,0.9,0,1.3c0,0.4,0,0.8,0,1.2s0,0.9,0,1.3c-0.1,1.7-0.4,3.1-1,4.3c-0.6,1.2-1.4,2.2-2.4,3
			c-1,0.8-2.2,1.4-3.6,1.8c-1.4,0.4-2.9,0.6-4.6,0.6h-10.2c-0.3,0-0.5-0.1-0.7-0.3c-0.2-0.2-0.3-0.4-0.3-0.7V26.7
			c0-0.3,0.1-0.5,0.3-0.7c0.2-0.2,0.4-0.3,0.7-0.3H158z M160.8,35.3c0-1-0.4-1.7-0.9-2.1c-0.6-0.4-1.3-0.7-2-0.7h-2.1v10.8h2.3
			c0.8,0,1.4-0.2,1.9-0.7c0.5-0.5,0.8-1.2,0.9-2.1c0-0.5,0-0.9,0.1-1.4c0-0.4,0-0.9,0-1.3c0-0.4,0-0.8,0-1.2
			C160.8,36.3,160.8,35.8,160.8,35.3z"/>
		<path class="st20" d="M187,25.4c1.7,0,3.3,0.2,4.7,0.7s2.5,1.1,3.4,1.8c0.9,0.7,1.6,1.5,2.1,2.3c0.5,0.8,0.7,1.6,0.8,2.4
			c0,0.2-0.1,0.4-0.2,0.5c-0.2,0.2-0.3,0.2-0.5,0.2h-7c-0.3,0-0.6,0-0.8-0.1c-0.2-0.1-0.4-0.2-0.6-0.4c-0.1-0.1-0.3-0.3-0.6-0.4
			s-0.7-0.2-1.2-0.2c-0.6,0-1,0.1-1.3,0.3c-0.3,0.2-0.4,0.4-0.4,0.7c0,0.2,0.1,0.3,0.2,0.5c0.1,0.1,0.3,0.3,0.6,0.4
			c0.3,0.1,0.7,0.2,1.2,0.3c0.5,0.1,1.1,0.2,1.9,0.3c1.7,0.2,3.2,0.5,4.5,0.9c1.2,0.4,2.2,0.9,3,1.5c0.8,0.6,1.3,1.4,1.7,2.2
			c0.4,0.9,0.5,1.8,0.5,3c0,1.3-0.3,2.4-0.9,3.4c-0.6,1-1.4,1.9-2.4,2.6c-1,0.7-2.3,1.3-3.7,1.6c-1.4,0.4-2.9,0.6-4.6,0.6
			c-1.9,0-3.6-0.2-5.1-0.6c-1.4-0.4-2.6-1-3.6-1.6c-0.9-0.7-1.7-1.5-2.1-2.4c-0.5-0.9-0.7-1.8-0.8-2.8c0-0.2,0.1-0.4,0.2-0.5
			c0.2-0.2,0.3-0.2,0.5-0.2h6.6c0.4,0,0.7,0.1,0.8,0.2c0.2,0.1,0.4,0.3,0.7,0.4c0.3,0.3,0.7,0.5,1.1,0.6c0.4,0.1,0.9,0.2,1.5,0.2
			c0.8,0,1.4-0.1,1.9-0.2c0.5-0.2,0.7-0.4,0.7-0.7c0-0.4-0.3-0.7-1-1s-1.8-0.4-3.5-0.7c-1.4-0.2-2.6-0.5-3.7-0.9
			c-1.1-0.4-2.1-0.9-2.9-1.5c-0.8-0.6-1.4-1.4-1.8-2.3c-0.4-0.9-0.6-1.9-0.6-3.1c0-1.2,0.3-2.3,0.8-3.3c0.5-1,1.2-1.8,2.2-2.5
			c0.9-0.7,2.1-1.2,3.4-1.6C184,25.6,185.4,25.4,187,25.4z"/>
		<path class="st20" d="M209.9,35c-0.1,1.9-0.1,3.9,0,5.9c0,1.1,0.3,1.8,0.8,2.2c0.5,0.4,1.1,0.6,1.8,0.6c0.6,0,1.1-0.1,1.6-0.4
			c0.5-0.3,0.8-0.8,1-1.5c0.1-0.4,0.3-0.7,0.4-0.8c0.2-0.1,0.5-0.2,0.9-0.2h7.1c0.2,0,0.4,0.1,0.5,0.2c0.2,0.2,0.2,0.3,0.2,0.5
			c0,1.6-0.4,2.9-1,4.1c-0.7,1.1-1.6,2.1-2.7,2.8c-1.1,0.7-2.3,1.3-3.7,1.6c-1.4,0.3-2.8,0.5-4.3,0.5c-1.7,0-3.2-0.2-4.6-0.5
			s-2.6-0.9-3.7-1.7c-1-0.8-1.9-1.7-2.4-2.9c-0.6-1.2-0.9-2.6-1-4.3c0-1-0.1-2-0.1-3.1s0-2.1,0.1-3.1c0.1-1.6,0.4-3,1-4.2
			c0.6-1.2,1.4-2.2,2.5-3c1-0.8,2.3-1.4,3.7-1.7c1.4-0.4,2.9-0.6,4.5-0.6c1.5,0,2.9,0.2,4.3,0.5s2.6,0.9,3.7,1.6
			c1.1,0.7,2,1.6,2.7,2.8c0.7,1.1,1,2.5,1,4.1c0,0.2-0.1,0.4-0.2,0.5c-0.2,0.2-0.3,0.2-0.5,0.2h-7.1c-0.4,0-0.7-0.1-0.8-0.2
			c-0.2-0.1-0.3-0.4-0.5-0.8c-0.3-0.7-0.6-1.2-1-1.5c-0.4-0.3-1-0.4-1.6-0.4c-0.8,0-1.4,0.2-1.8,0.6C210.2,33.2,209.9,34,209.9,35z"
			/>
		<path class="st20" d="M246.2,43.4c0.3,0,0.5,0.1,0.7,0.3c0.2,0.2,0.3,0.4,0.3,0.7v4.9c0,0.3-0.1,0.5-0.3,0.7
			c-0.2,0.2-0.4,0.3-0.7,0.3H228c-0.3,0-0.5-0.1-0.7-0.3c-0.2-0.2-0.3-0.4-0.3-0.7V26.7c0-0.3,0.1-0.5,0.3-0.7
			c0.2-0.2,0.4-0.3,0.7-0.3h17.9c0.3,0,0.5,0.1,0.7,0.3c0.2,0.2,0.3,0.4,0.3,0.7v4.9c0,0.3-0.1,0.5-0.3,0.7
			c-0.2,0.2-0.4,0.3-0.7,0.3h-10.5v2.2h9.7c0.3,0,0.5,0.1,0.7,0.3c0.2,0.2,0.3,0.4,0.3,0.7v4.5c0,0.3-0.1,0.5-0.3,0.7
			c-0.2,0.2-0.4,0.3-0.7,0.3h-9.7v2.2H246.2z"/>
		<path class="st20" d="M271.5,25.7c0.3,0,0.5,0.1,0.7,0.3s0.3,0.4,0.3,0.7v22.6c0,0.3-0.1,0.5-0.3,0.7c-0.2,0.2-0.4,0.3-0.7,0.3
			h-5.5c-0.5,0-0.8-0.1-1-0.3c-0.2-0.2-0.4-0.4-0.4-0.5l-5.9-8.9v8.8c0,0.3-0.1,0.5-0.3,0.7c-0.2,0.2-0.4,0.3-0.7,0.3h-6.3
			c-0.3,0-0.5-0.1-0.7-0.3c-0.2-0.2-0.3-0.4-0.3-0.7V26.7c0-0.3,0.1-0.5,0.3-0.7c0.2-0.2,0.4-0.3,0.7-0.3h5.5c0.5,0,0.8,0.1,1,0.3
			c0.2,0.2,0.3,0.4,0.4,0.5l5.9,9.7v-9.5c0-0.3,0.1-0.5,0.3-0.7s0.4-0.3,0.7-0.3H271.5z"/>
		<path class="st20" d="M295.4,43.4c0.3,0,0.5,0.1,0.7,0.3c0.2,0.2,0.3,0.4,0.3,0.7v4.9c0,0.3-0.1,0.5-0.3,0.7
			c-0.2,0.2-0.4,0.3-0.7,0.3h-18.2c-0.3,0-0.5-0.1-0.7-0.3c-0.2-0.2-0.3-0.4-0.3-0.7V26.7c0-0.3,0.1-0.5,0.3-0.7
			c0.2-0.2,0.4-0.3,0.7-0.3h17.9c0.3,0,0.5,0.1,0.7,0.3s0.3,0.4,0.3,0.7v4.9c0,0.3-0.1,0.5-0.3,0.7c-0.2,0.2-0.4,0.3-0.7,0.3h-10.5
			v2.2h9.7c0.3,0,0.5,0.1,0.7,0.3c0.2,0.2,0.3,0.4,0.3,0.7v4.5c0,0.3-0.1,0.5-0.3,0.7c-0.2,0.2-0.4,0.3-0.7,0.3h-9.7v2.2H295.4z"/>
		<path class="st20" d="M309.5,25.4c1.7,0,3.3,0.2,4.7,0.7s2.5,1.1,3.4,1.8c0.9,0.7,1.6,1.5,2.1,2.3c0.5,0.8,0.7,1.6,0.8,2.4
			c0,0.2-0.1,0.4-0.2,0.5c-0.2,0.2-0.3,0.2-0.5,0.2h-7c-0.3,0-0.6,0-0.8-0.1c-0.2-0.1-0.4-0.2-0.6-0.4c-0.1-0.1-0.3-0.3-0.6-0.4
			c-0.3-0.2-0.7-0.2-1.2-0.2c-0.6,0-1,0.1-1.3,0.3c-0.3,0.2-0.4,0.4-0.4,0.7c0,0.2,0.1,0.3,0.2,0.5c0.1,0.1,0.3,0.3,0.6,0.4
			c0.3,0.1,0.7,0.2,1.2,0.3c0.5,0.1,1.1,0.2,1.9,0.3c1.7,0.2,3.2,0.5,4.5,0.9c1.2,0.4,2.2,0.9,3,1.5c0.8,0.6,1.3,1.4,1.7,2.2
			c0.4,0.9,0.5,1.8,0.5,3c0,1.3-0.3,2.4-0.9,3.4c-0.6,1-1.4,1.9-2.4,2.6c-1,0.7-2.3,1.3-3.7,1.6c-1.4,0.4-2.9,0.6-4.6,0.6
			c-1.9,0-3.6-0.2-5.1-0.6c-1.4-0.4-2.6-1-3.6-1.6c-0.9-0.7-1.7-1.5-2.1-2.4c-0.5-0.9-0.7-1.8-0.8-2.8c0-0.2,0.1-0.4,0.2-0.5
			c0.2-0.2,0.3-0.2,0.5-0.2h6.6c0.4,0,0.7,0.1,0.8,0.2c0.2,0.1,0.4,0.3,0.7,0.4c0.3,0.3,0.7,0.5,1.1,0.6c0.4,0.1,0.9,0.2,1.5,0.2
			c0.8,0,1.4-0.1,1.9-0.2c0.5-0.2,0.7-0.4,0.7-0.7c0-0.4-0.3-0.7-1-1c-0.6-0.2-1.8-0.4-3.5-0.7c-1.4-0.2-2.6-0.5-3.7-0.9
			c-1.1-0.4-2.1-0.9-2.9-1.5c-0.8-0.6-1.4-1.4-1.8-2.3s-0.6-1.9-0.6-3.1c0-1.2,0.3-2.3,0.8-3.3c0.5-1,1.2-1.8,2.2-2.5
			c0.9-0.7,2.1-1.2,3.4-1.6C306.5,25.6,308,25.4,309.5,25.4z"/>
	</g>
	<g>
		<g>
			<path class="st19" d="M79.8,45.2c-0.1,0-0.1,0-0.2,0c-6.2-4.3-11.1-10.7-11.1-10.8c-4-5.3-7.6-8.6-8.9-9.6
				c-9.2-6.1-17.1-9.7-22.1-11.6c-5.4-2.1-8.7-2.8-8.8-2.8c-0.1,0-0.2-0.2-0.2-0.3c0-0.1,0.2-0.2,0.3-0.2c0,0,3.4,0.7,8.8,2.8
				c5,1.9,13,5.5,22.2,11.6l0,0c1.3,1,4.9,4.4,9,9.7c0,0.1,4.9,6.4,11,10.6c0.1,0.1,0.2,0.3,0.1,0.4C80,45.2,79.9,45.2,79.8,45.2z"
				/>
		</g>
	</g>
	<g>
		<path class="st19" d="M117.9,35c0,1,0.1,2,0.1,3.1s0,2.1-0.1,3c-0.1,1.6-0.4,2.9-1,4.1c-0.6,1.2-1.4,2.2-2.4,3
			c-1,0.8-2.2,1.4-3.6,1.8c-1.4,0.4-3,0.6-4.7,0.6c-1.7,0-3.3-0.2-4.7-0.6c-1.4-0.4-2.6-1-3.6-1.8c-1-0.8-1.8-1.8-2.4-3
			c-0.6-1.2-0.9-2.5-1-4.1c0-1-0.1-2-0.1-3s0-2.1,0.1-3.1c0.1-1.5,0.4-2.9,1-4.1c0.6-1.2,1.4-2.2,2.4-3s2.2-1.4,3.6-1.9
			c1.4-0.4,3-0.6,4.7-0.6c1.7,0,3.3,0.2,4.7,0.6c1.4,0.4,2.6,1,3.6,1.9s1.8,1.8,2.4,3C117.5,32.1,117.8,33.4,117.9,35z M103.6,40.9
			c0,1,0.3,1.7,0.8,2.2c0.5,0.5,1.1,0.7,1.8,0.7c0.8,0,1.4-0.2,1.8-0.7s0.7-1.2,0.8-2.2c0.1-2,0.1-3.9,0-5.9c0-1-0.3-1.7-0.8-2.1
			c-0.5-0.5-1.1-0.7-1.8-0.7c-0.7,0-1.4,0.2-1.8,0.7c-0.5,0.5-0.7,1.2-0.8,2.1C103.5,37,103.5,38.9,103.6,40.9z"/>
		<path class="st19" d="M132.1,25.7c1.6,0,3.1,0.2,4.5,0.6c1.4,0.4,2.6,1,3.7,1.8c1,0.8,1.9,1.8,2.5,3c0.6,1.2,0.9,2.6,1,4.1
			c0,0.5,0,1,0,1.4s0,0.9,0,1.3c0,0.4,0,0.8,0,1.2s0,0.9,0,1.3c-0.1,1.7-0.4,3.1-1,4.3c-0.6,1.2-1.4,2.2-2.4,3
			c-1,0.8-2.2,1.4-3.6,1.8c-1.4,0.4-2.9,0.6-4.6,0.6H122c-0.3,0-0.5-0.1-0.7-0.3c-0.2-0.2-0.3-0.4-0.3-0.7V26.7
			c0-0.3,0.1-0.5,0.3-0.7c0.2-0.2,0.4-0.3,0.7-0.3H132.1z M134.9,35.3c0-1-0.4-1.7-0.9-2.1c-0.6-0.4-1.3-0.7-2-0.7h-2.1v10.8h2.3
			c0.8,0,1.4-0.2,1.9-0.7c0.5-0.5,0.8-1.2,0.9-2.1c0-0.5,0-0.9,0.1-1.4c0-0.4,0-0.9,0-1.3c0-0.4,0-0.8,0-1.2
			C134.9,36.3,134.9,35.8,134.9,35.3z"/>
		<path class="st19" d="M158,25.7c1.6,0,3.1,0.2,4.5,0.6c1.4,0.4,2.6,1,3.7,1.8c1,0.8,1.9,1.8,2.5,3c0.6,1.2,0.9,2.6,1,4.1
			c0,0.5,0,1,0,1.4s0,0.9,0,1.3c0,0.4,0,0.8,0,1.2s0,0.9,0,1.3c-0.1,1.7-0.4,3.1-1,4.3c-0.6,1.2-1.4,2.2-2.4,3
			c-1,0.8-2.2,1.4-3.6,1.8c-1.4,0.4-2.9,0.6-4.6,0.6h-10.2c-0.3,0-0.5-0.1-0.7-0.3c-0.2-0.2-0.3-0.4-0.3-0.7V26.7
			c0-0.3,0.1-0.5,0.3-0.7c0.2-0.2,0.4-0.3,0.7-0.3H158z M160.8,35.3c0-1-0.4-1.7-0.9-2.1c-0.6-0.4-1.3-0.7-2-0.7h-2.1v10.8h2.3
			c0.8,0,1.4-0.2,1.9-0.7c0.5-0.5,0.8-1.2,0.9-2.1c0-0.5,0-0.9,0.1-1.4c0-0.4,0-0.9,0-1.3c0-0.4,0-0.8,0-1.2
			C160.8,36.3,160.8,35.8,160.8,35.3z"/>
		<path class="st19" d="M187,25.4c1.7,0,3.3,0.2,4.7,0.7s2.5,1.1,3.4,1.8c0.9,0.7,1.6,1.5,2.1,2.3c0.5,0.8,0.7,1.6,0.8,2.4
			c0,0.2-0.1,0.4-0.2,0.5c-0.2,0.2-0.3,0.2-0.5,0.2h-7c-0.3,0-0.6,0-0.8-0.1c-0.2-0.1-0.4-0.2-0.6-0.4c-0.1-0.1-0.3-0.3-0.6-0.4
			s-0.7-0.2-1.2-0.2c-0.6,0-1,0.1-1.3,0.3c-0.3,0.2-0.4,0.4-0.4,0.7c0,0.2,0.1,0.3,0.2,0.5c0.1,0.1,0.3,0.3,0.6,0.4
			c0.3,0.1,0.7,0.2,1.2,0.3c0.5,0.1,1.1,0.2,1.9,0.3c1.7,0.2,3.2,0.5,4.5,0.9c1.2,0.4,2.2,0.9,3,1.5c0.8,0.6,1.3,1.4,1.7,2.2
			c0.4,0.9,0.5,1.8,0.5,3c0,1.3-0.3,2.4-0.9,3.4c-0.6,1-1.4,1.9-2.4,2.6c-1,0.7-2.3,1.3-3.7,1.6c-1.4,0.4-2.9,0.6-4.6,0.6
			c-1.9,0-3.6-0.2-5.1-0.6c-1.4-0.4-2.6-1-3.6-1.6c-0.9-0.7-1.7-1.5-2.1-2.4c-0.5-0.9-0.7-1.8-0.8-2.8c0-0.2,0.1-0.4,0.2-0.5
			c0.2-0.2,0.3-0.2,0.5-0.2h6.6c0.4,0,0.7,0.1,0.8,0.2c0.2,0.1,0.4,0.3,0.7,0.4c0.3,0.3,0.7,0.5,1.1,0.6c0.4,0.1,0.9,0.2,1.5,0.2
			c0.8,0,1.4-0.1,1.9-0.2c0.5-0.2,0.7-0.4,0.7-0.7c0-0.4-0.3-0.7-1-1s-1.8-0.4-3.5-0.7c-1.4-0.2-2.6-0.5-3.7-0.9
			c-1.1-0.4-2.1-0.9-2.9-1.5c-0.8-0.6-1.4-1.4-1.8-2.3c-0.4-0.9-0.6-1.9-0.6-3.1c0-1.2,0.3-2.3,0.8-3.3c0.5-1,1.2-1.8,2.2-2.5
			c0.9-0.7,2.1-1.2,3.4-1.6C184,25.6,185.4,25.4,187,25.4z"/>
		<path class="st19" d="M209.9,35c-0.1,1.9-0.1,3.9,0,5.9c0,1.1,0.3,1.8,0.8,2.2c0.5,0.4,1.1,0.6,1.8,0.6c0.6,0,1.1-0.1,1.6-0.4
			c0.5-0.3,0.8-0.8,1-1.5c0.1-0.4,0.3-0.7,0.4-0.8c0.2-0.1,0.5-0.2,0.9-0.2h7.1c0.2,0,0.4,0.1,0.5,0.2c0.2,0.2,0.2,0.3,0.2,0.5
			c0,1.6-0.4,2.9-1,4.1c-0.7,1.1-1.6,2.1-2.7,2.8c-1.1,0.7-2.3,1.3-3.7,1.6c-1.4,0.3-2.8,0.5-4.3,0.5c-1.7,0-3.2-0.2-4.6-0.5
			s-2.6-0.9-3.7-1.7c-1-0.8-1.9-1.7-2.4-2.9c-0.6-1.2-0.9-2.6-1-4.3c0-1-0.1-2-0.1-3.1s0-2.1,0.1-3.1c0.1-1.6,0.4-3,1-4.2
			c0.6-1.2,1.4-2.2,2.5-3c1-0.8,2.3-1.4,3.7-1.7c1.4-0.4,2.9-0.6,4.5-0.6c1.5,0,2.9,0.2,4.3,0.5s2.6,0.9,3.7,1.6
			c1.1,0.7,2,1.6,2.7,2.8c0.7,1.1,1,2.5,1,4.1c0,0.2-0.1,0.4-0.2,0.5c-0.2,0.2-0.3,0.2-0.5,0.2h-7.1c-0.4,0-0.7-0.1-0.8-0.2
			c-0.2-0.1-0.3-0.4-0.5-0.8c-0.3-0.7-0.6-1.2-1-1.5c-0.4-0.3-1-0.4-1.6-0.4c-0.8,0-1.4,0.2-1.8,0.6C210.2,33.2,209.9,34,209.9,35z"
			/>
		<path class="st19" d="M246.2,43.4c0.3,0,0.5,0.1,0.7,0.3c0.2,0.2,0.3,0.4,0.3,0.7v4.9c0,0.3-0.1,0.5-0.3,0.7
			c-0.2,0.2-0.4,0.3-0.7,0.3H228c-0.3,0-0.5-0.1-0.7-0.3c-0.2-0.2-0.3-0.4-0.3-0.7V26.7c0-0.3,0.1-0.5,0.3-0.7
			c0.2-0.2,0.4-0.3,0.7-0.3h17.9c0.3,0,0.5,0.1,0.7,0.3c0.2,0.2,0.3,0.4,0.3,0.7v4.9c0,0.3-0.1,0.5-0.3,0.7
			c-0.2,0.2-0.4,0.3-0.7,0.3h-10.5v2.2h9.7c0.3,0,0.5,0.1,0.7,0.3c0.2,0.2,0.3,0.4,0.3,0.7v4.5c0,0.3-0.1,0.5-0.3,0.7
			c-0.2,0.2-0.4,0.3-0.7,0.3h-9.7v2.2H246.2z"/>
		<path class="st19" d="M271.5,25.7c0.3,0,0.5,0.1,0.7,0.3s0.3,0.4,0.3,0.7v22.6c0,0.3-0.1,0.5-0.3,0.7c-0.2,0.2-0.4,0.3-0.7,0.3
			h-5.5c-0.5,0-0.8-0.1-1-0.3c-0.2-0.2-0.4-0.4-0.4-0.5l-5.9-8.9v8.8c0,0.3-0.1,0.5-0.3,0.7c-0.2,0.2-0.4,0.3-0.7,0.3h-6.3
			c-0.3,0-0.5-0.1-0.7-0.3c-0.2-0.2-0.3-0.4-0.3-0.7V26.7c0-0.3,0.1-0.5,0.3-0.7c0.2-0.2,0.4-0.3,0.7-0.3h5.5c0.5,0,0.8,0.1,1,0.3
			c0.2,0.2,0.3,0.4,0.4,0.5l5.9,9.7v-9.5c0-0.3,0.1-0.5,0.3-0.7s0.4-0.3,0.7-0.3H271.5z"/>
		<path class="st19" d="M295.4,43.4c0.3,0,0.5,0.1,0.7,0.3c0.2,0.2,0.3,0.4,0.3,0.7v4.9c0,0.3-0.1,0.5-0.3,0.7
			c-0.2,0.2-0.4,0.3-0.7,0.3h-18.2c-0.3,0-0.5-0.1-0.7-0.3c-0.2-0.2-0.3-0.4-0.3-0.7V26.7c0-0.3,0.1-0.5,0.3-0.7
			c0.2-0.2,0.4-0.3,0.7-0.3h17.9c0.3,0,0.5,0.1,0.7,0.3s0.3,0.4,0.3,0.7v4.9c0,0.3-0.1,0.5-0.3,0.7c-0.2,0.2-0.4,0.3-0.7,0.3h-10.5
			v2.2h9.7c0.3,0,0.5,0.1,0.7,0.3c0.2,0.2,0.3,0.4,0.3,0.7v4.5c0,0.3-0.1,0.5-0.3,0.7c-0.2,0.2-0.4,0.3-0.7,0.3h-9.7v2.2H295.4z"/>
		<path class="st19" d="M309.5,25.4c1.7,0,3.3,0.2,4.7,0.7s2.5,1.1,3.4,1.8c0.9,0.7,1.6,1.5,2.1,2.3c0.5,0.8,0.7,1.6,0.8,2.4
			c0,0.2-0.1,0.4-0.2,0.5c-0.2,0.2-0.3,0.2-0.5,0.2h-7c-0.3,0-0.6,0-0.8-0.1c-0.2-0.1-0.4-0.2-0.6-0.4c-0.1-0.1-0.3-0.3-0.6-0.4
			c-0.3-0.2-0.7-0.2-1.2-0.2c-0.6,0-1,0.1-1.3,0.3c-0.3,0.2-0.4,0.4-0.4,0.7c0,0.2,0.1,0.3,0.2,0.5c0.1,0.1,0.3,0.3,0.6,0.4
			c0.3,0.1,0.7,0.2,1.2,0.3c0.5,0.1,1.1,0.2,1.9,0.3c1.7,0.2,3.2,0.5,4.5,0.9c1.2,0.4,2.2,0.9,3,1.5c0.8,0.6,1.3,1.4,1.7,2.2
			c0.4,0.9,0.5,1.8,0.5,3c0,1.3-0.3,2.4-0.9,3.4c-0.6,1-1.4,1.9-2.4,2.6c-1,0.7-2.3,1.3-3.7,1.6c-1.4,0.4-2.9,0.6-4.6,0.6
			c-1.9,0-3.6-0.2-5.1-0.6c-1.4-0.4-2.6-1-3.6-1.6c-0.9-0.7-1.7-1.5-2.1-2.4c-0.5-0.9-0.7-1.8-0.8-2.8c0-0.2,0.1-0.4,0.2-0.5
			c0.2-0.2,0.3-0.2,0.5-0.2h6.6c0.4,0,0.7,0.1,0.8,0.2c0.2,0.1,0.4,0.3,0.7,0.4c0.3,0.3,0.7,0.5,1.1,0.6c0.4,0.1,0.9,0.2,1.5,0.2
			c0.8,0,1.4-0.1,1.9-0.2c0.5-0.2,0.7-0.4,0.7-0.7c0-0.4-0.3-0.7-1-1c-0.6-0.2-1.8-0.4-3.5-0.7c-1.4-0.2-2.6-0.5-3.7-0.9
			c-1.1-0.4-2.1-0.9-2.9-1.5c-0.8-0.6-1.4-1.4-1.8-2.3s-0.6-1.9-0.6-3.1c0-1.2,0.3-2.3,0.8-3.3c0.5-1,1.2-1.8,2.2-2.5
			c0.9-0.7,2.1-1.2,3.4-1.6C306.5,25.6,308,25.4,309.5,25.4z"/>
	</g>
	<g>
		<g>
			<circle class="st17" cx="50.7" cy="26.7" r="12"/>
		</g>
	</g>
	<g>
		<g>
			<path class="st19" d="M80.2,52.5c-0.1,0-0.1,0-0.2-0.1C73.9,48,69.1,41.6,69,41.5c-4-5.4-7.5-8.7-8.8-9.7
				c-9.1-6.2-16.9-9.9-21.9-11.9c-5.4-2.2-8.7-2.9-8.7-2.9c-0.1,0-0.2-0.2-0.2-0.3c0-0.1,0.2-0.2,0.3-0.2c0,0,3.4,0.7,8.8,2.9
				c5,2,12.9,5.7,22,11.9l0,0c1.3,1,4.9,4.4,8.9,9.9c0,0.1,4.8,6.4,10.9,10.8c0.1,0.1,0.1,0.3,0.1,0.4
				C80.3,52.4,80.3,52.5,80.2,52.5z"/>
		</g>
	</g>
</g>
</svg>
