<?xml version="1.0" encoding="utf-8"?>
<!-- Generator: Adobe Illustrator 21.0.2, SVG Export Plug-In . SVG Version: 6.00 Build 0)  -->
<svg version="1.1" id="Layer_1" xmlns="http://www.w3.org/2000/svg" xmlns:xlink="http://www.w3.org/1999/xlink" x="0px" y="0px"
	 viewBox="0 0 350 75" style="enable-background:new 0 0 350 75;" xml:space="preserve">
<style type="text/css">
	.st0{fill:#F9F7FB;}
	.st1{fill:#5A67F4;}
	.st2{fill:#F9F7FB;stroke:#F9F7FB;stroke-miterlimit:10;}
	.st3{fill:#27BEBA;}
	.st4{fill:#1B98FC;}
	.st5{fill:#FDBB4F;}
	.st6{fill:#F84D53;}
	.st7{fill:#EE45FC;}
	.st8{clip-path:url(#SVGID_2_);}
	.st9{fill:#FBF5F3;}
	.st10{fill:#F7F6F9;}
	.st11{fill:#FFC857;}
	.st12{fill:#34E5FF;}
	.st13{fill:#4056F4;}
	.st14{fill:#F56376;}
	.st15{fill:#40F99B;}
	.st16{fill:#0C0C0C;}
	.st17{fill:#02F99F;}
	.st18{fill:#3500FB;}
	.st19{fill:#F1F0FD;}
	.st20{fill:#13063B;}
	.st21{fill:#FFD700;}
	.st22{fill:#FFFFFF;}
	.st23{fill:#53146C;}
	.st24{fill:#FDBC2B;}
	.st25{fill:#FC551E;}
	.st26{fill:#39BDEB;}
	.st27{fill:#43CDAC;}
	.st28{fill:#EDF2F4;}
</style>
<g>
	<path class="st10" d="M156.6,31.1c0.7,0,1.2,0,1.5,0.1c0.3,0,0.7,0.2,1.1,0.4c0.4,0.2,0.7,0.6,0.9,1.2c0.2,0.6,0.3,1.3,0.3,2.2
		s-0.1,1.7-0.3,2.2s-0.5,0.9-0.9,1.2c-0.4,0.2-0.8,0.3-1.2,0.4c-0.3,0-0.9,0.1-1.5,0.1h-13.4v4.4h8.6c0.7,0,1.2,0,1.6,0.1
		c0.3,0,0.7,0.2,1.2,0.4c0.8,0.4,1.1,1.6,1.1,3.4c0,2-0.6,3.2-1.7,3.6c-0.5,0.1-1.2,0.2-2.2,0.2h-8.6v8.3c0,0.7,0,1.2-0.1,1.5
		c0,0.3-0.2,0.7-0.4,1.1c-0.4,0.8-1.5,1.2-3.4,1.2c-2,0-3.2-0.6-3.6-1.7c-0.2-0.5-0.3-1.2-0.3-2.2V35c0-1.5,0.3-2.5,0.8-3
		c0.6-0.5,1.6-0.8,3.1-0.8H156.6z"/>
	<path class="st10" d="M183.3,32.3c0.3-0.5,0.7-0.8,1.3-1c0.6-0.2,1.2-0.3,2.1-0.3c0.8,0,1.5,0.1,2,0.2c0.5,0.1,0.9,0.3,1.1,0.5
		c0.3,0.2,0.5,0.5,0.6,0.9c0.2,0.5,0.3,1.3,0.3,2.3v13.2c0,3.8-1.2,7.3-3.6,10.5c-1.2,1.5-2.7,2.7-4.5,3.6c-1.8,0.9-3.9,1.4-6.1,1.4
		s-4.2-0.5-6.1-1.4c-1.8-0.9-3.3-2.2-4.4-3.7c-2.4-3.1-3.5-6.6-3.5-10.5V35c0-0.7,0-1.2,0.1-1.5c0-0.3,0.2-0.7,0.4-1.2
		c0.2-0.4,0.6-0.7,1.2-0.9c0.6-0.2,1.3-0.3,2.2-0.3c0.9,0,1.7,0.1,2.2,0.3c0.6,0.2,0.9,0.5,1.1,0.9c0.3,0.7,0.5,1.6,0.5,2.8v13.1
		c0,1.8,0.4,3.5,1.3,5.1c0.4,0.8,1.1,1.5,2,2c0.9,0.5,1.9,0.7,3.1,0.7c2.1,0,3.7-0.8,4.8-2.4s1.6-3.4,1.6-5.5V34.7
		C182.9,33.6,183,32.8,183.3,32.3z"/>
	<path class="st10" d="M195.6,31.1h24.3c0.9,0,1.6,0.1,2.1,0.3c0.4,0.2,0.7,0.6,0.9,1c0.1,0.5,0.2,1.1,0.2,1.8
		c0,0.8-0.1,1.4-0.2,1.8c-0.1,0.5-0.4,0.8-0.7,0.9c-0.5,0.3-1.3,0.4-2.2,0.4h-8.3v22c0,0.7,0,1.2-0.1,1.5c0,0.3-0.2,0.7-0.4,1.1
		c-0.2,0.4-0.6,0.7-1.2,0.9s-1.3,0.3-2.2,0.3c-0.9,0-1.6-0.1-2.2-0.3c-0.5-0.2-0.9-0.5-1.1-0.9c-0.2-0.4-0.3-0.8-0.4-1.1
		c0-0.3-0.1-0.8-0.1-1.5V37.4h-8.4c-0.9,0-1.6-0.1-2.1-0.3c-0.4-0.2-0.7-0.6-0.9-1c-0.1-0.5-0.2-1.1-0.2-1.8c0-0.8,0.1-1.4,0.2-1.8
		c0.1-0.5,0.4-0.8,0.7-0.9C193.9,31.2,194.6,31.1,195.6,31.1z"/>
	<path class="st10" d="M245.7,32.3c0.3-0.5,0.7-0.8,1.3-1c0.6-0.2,1.2-0.3,2.1-0.3c0.8,0,1.5,0.1,2,0.2c0.5,0.1,0.9,0.3,1.1,0.5
		c0.3,0.2,0.5,0.5,0.6,0.9c0.2,0.5,0.3,1.3,0.3,2.3v13.2c0,3.8-1.2,7.3-3.6,10.5c-1.2,1.5-2.7,2.7-4.5,3.6c-1.8,0.9-3.9,1.4-6.1,1.4
		s-4.2-0.5-6.1-1.4c-1.8-0.9-3.3-2.2-4.4-3.7c-2.4-3.1-3.5-6.6-3.5-10.5V35c0-0.7,0-1.2,0.1-1.5c0-0.3,0.2-0.7,0.4-1.2
		c0.2-0.4,0.6-0.7,1.2-0.9c0.6-0.2,1.3-0.3,2.2-0.3c0.9,0,1.7,0.1,2.2,0.3c0.6,0.2,0.9,0.5,1.1,0.9c0.3,0.7,0.5,1.6,0.5,2.8v13.1
		c0,1.8,0.4,3.5,1.3,5.1c0.4,0.8,1.1,1.5,2,2c0.9,0.5,1.9,0.7,3.1,0.7c2.1,0,3.7-0.8,4.8-2.4s1.6-3.4,1.6-5.5V34.7
		C245.3,33.6,245.4,32.8,245.7,32.3z"/>
	<path class="st10" d="M281.6,57.7c0.4,1,0.7,1.8,0.7,2.3c0,1.1-0.9,2-2.7,2.8c-0.9,0.4-1.7,0.6-2.2,0.6c-0.6,0-1-0.1-1.4-0.4
		c-0.4-0.3-0.6-0.6-0.8-0.9c-0.3-0.6-1.4-3.2-3.4-7.9l-1.4,0.1h-5.5v4.9c0,0.7,0,1.2-0.1,1.5c0,0.3-0.2,0.7-0.4,1.2
		c-0.4,0.8-1.5,1.2-3.4,1.2c-2,0-3.2-0.5-3.6-1.6c-0.2-0.5-0.3-1.3-0.3-2.3V35c0-0.7,0-1.2,0.1-1.5c0-0.3,0.2-0.7,0.4-1.2
		c0.4-0.8,1.5-1.2,3.4-1.2h9.4c2.6,0,5,0.9,7.5,2.8c1.2,0.9,2.1,2.1,2.9,3.7c0.8,1.5,1.1,3.3,1.1,5.2c0,3.3-1.1,6-3.3,8.1
		C279.2,52.4,280.2,54.7,281.6,57.7z M264.8,46.6h5.6c0.8,0,1.7-0.3,2.5-1c0.8-0.6,1.3-1.6,1.3-2.9c0-1.3-0.4-2.2-1.3-2.9
		c-0.8-0.7-1.7-1-2.6-1h-5.5V46.6z"/>
	<path class="st10" d="M293,55.4h13.4c0.7,0,1.2,0,1.5,0.1c0.3,0,0.7,0.2,1.2,0.4c0.8,0.4,1.2,1.5,1.2,3.4c0,2-0.5,3.2-1.6,3.6
		c-0.5,0.2-1.3,0.3-2.3,0.3h-17.3c-2,0-3.2-0.6-3.6-1.7c-0.2-0.5-0.3-1.2-0.3-2.2V35c0-1.5,0.3-2.5,0.8-3c0.6-0.5,1.6-0.8,3.1-0.8
		h17.2c0.7,0,1.2,0,1.5,0.1c0.3,0,0.7,0.2,1.2,0.4c0.8,0.4,1.2,1.5,1.2,3.4c0,2-0.5,3.2-1.6,3.6c-0.5,0.2-1.3,0.3-2.3,0.3H293v4.4
		h8.6c0.7,0,1.2,0,1.5,0.1c0.3,0,0.7,0.2,1.2,0.4c0.8,0.4,1.2,1.5,1.2,3.4c0,2-0.6,3.2-1.7,3.6c-0.5,0.2-1.3,0.3-2.3,0.3H293V55.4z"
		/>
</g>
<g>
	<path class="st10" d="M143.2,9.4c0.1-0.2,0.3-0.3,0.5-0.4c0.2-0.1,0.6-0.1,0.9-0.1c0.4,0,0.7,0,0.9,0.1c0.2,0.1,0.4,0.1,0.5,0.2
		c0.1,0.1,0.2,0.2,0.3,0.4c0.1,0.2,0.1,0.6,0.1,1v10.8c0,0.3,0,0.5,0,0.7c0,0.1-0.1,0.3-0.2,0.5c-0.2,0.4-0.7,0.5-1.5,0.5
		c-0.9,0-1.4-0.2-1.6-0.7c-0.1-0.2-0.1-0.6-0.1-1v-3.9h-5.2v4c0,0.3,0,0.5,0,0.7c0,0.1-0.1,0.3-0.2,0.5c-0.2,0.4-0.7,0.5-1.5,0.5
		c-0.9,0-1.4-0.2-1.6-0.7c-0.1-0.2-0.1-0.6-0.1-1V10.6c0-0.3,0-0.5,0-0.7c0-0.1,0.1-0.3,0.2-0.5c0.2-0.4,0.7-0.5,1.5-0.5
		c0.9,0,1.4,0.2,1.6,0.7c0.1,0.2,0.1,0.6,0.1,1v4h5.2v-4c0-0.3,0-0.5,0-0.7C143.1,9.7,143.1,9.6,143.2,9.4z"/>
	<path class="st10" d="M154.9,8.7c1.9,0,3.6,0.7,5,2.1c1.4,1.4,2.1,3.1,2.1,5.2c0,2.1-0.7,3.8-2,5.2c-1.3,1.4-3,2.2-5,2.2
		c-2,0-3.6-0.7-5-2.1c-1.4-1.4-2.1-3.1-2.1-5.1c0-1.1,0.2-2.1,0.6-3c0.4-0.9,0.9-1.7,1.6-2.4c0.6-0.6,1.4-1.1,2.2-1.5
		S154,8.7,154.9,8.7z M151.4,16c0,1.2,0.4,2.1,1.1,2.8c0.7,0.7,1.6,1.1,2.5,1.1c0.9,0,1.7-0.4,2.5-1c0.7-0.7,1.1-1.6,1.1-2.8
		s-0.4-2.1-1.1-2.8c-0.7-0.7-1.6-1.1-2.5-1.1c-0.9,0-1.7,0.4-2.5,1.1C151.8,13.9,151.4,14.8,151.4,16z"/>
	<path class="st10" d="M178.6,9.4c0.1,0.2,0.2,0.4,0.2,0.5c0,0.2,0,0.4,0,0.7v10.8c0,0.9-0.2,1.4-0.7,1.6c-0.2,0.1-0.6,0.1-0.9,0.1
		c-0.4,0-0.7,0-0.9-0.1c-0.2-0.1-0.4-0.1-0.5-0.2c-0.1-0.1-0.2-0.2-0.3-0.4c-0.1-0.2-0.1-0.6-0.1-1v-6.5c-0.3,0.4-0.8,1-1.4,1.9
		c-0.6,0.9-1,1.4-1.2,1.6c-0.2,0.2-0.3,0.4-0.4,0.5c-0.1,0.1-0.2,0.2-0.5,0.4c-0.3,0.1-0.5,0.2-0.8,0.2s-0.6-0.1-0.8-0.2
		c-0.2-0.1-0.4-0.3-0.5-0.4l-0.2-0.2c-0.3-0.3-0.8-1-1.5-2.1c-0.8-1.1-1.2-1.6-1.2-1.7v6.6c0,0.3,0,0.5,0,0.7c0,0.1-0.1,0.3-0.2,0.5
		c-0.2,0.4-0.7,0.5-1.5,0.5c-0.8,0-1.3-0.2-1.5-0.5c-0.1-0.2-0.2-0.4-0.2-0.5c0-0.2,0-0.4,0-0.7V10.6c0-0.3,0-0.5,0-0.7
		c0-0.1,0.1-0.3,0.2-0.5c0.2-0.3,0.7-0.5,1.5-0.5c0.4,0,0.7,0,0.9,0.1c0.3,0.1,0.4,0.2,0.5,0.3l0.1,0.1l4.4,5.8
		c2.2-2.9,3.7-4.8,4.4-5.8c0.2-0.3,0.7-0.5,1.6-0.5C178,8.9,178.5,9,178.6,9.4z"/>
	<path class="st10" d="M184.3,19.6h6c0.3,0,0.5,0,0.7,0c0.1,0,0.3,0.1,0.5,0.2c0.4,0.2,0.5,0.7,0.5,1.5c0,0.9-0.2,1.4-0.7,1.6
		c-0.2,0.1-0.6,0.1-1,0.1h-7.7c-0.9,0-1.4-0.2-1.6-0.7c-0.1-0.2-0.1-0.5-0.1-1V10.6c0-0.7,0.1-1.1,0.4-1.4c0.2-0.2,0.7-0.4,1.4-0.4
		h7.7c0.3,0,0.5,0,0.7,0c0.1,0,0.3,0.1,0.5,0.2c0.4,0.2,0.5,0.7,0.5,1.5c0,0.9-0.2,1.4-0.7,1.6c-0.2,0.1-0.6,0.1-1,0.1h-6v2h3.8
		c0.3,0,0.5,0,0.7,0c0.1,0,0.3,0.1,0.5,0.2c0.4,0.2,0.5,0.7,0.5,1.5c0,0.9-0.2,1.4-0.7,1.6c-0.2,0.1-0.6,0.1-1,0.1h-3.8V19.6z"/>
	<path class="st10" d="M193.4,21.1c-0.3-0.4-0.5-0.8-0.5-1.1s0.3-0.8,0.8-1.3c0.3-0.3,0.7-0.5,1-0.5c0.4,0,0.9,0.3,1.5,1
		c0.2,0.2,0.4,0.4,0.8,0.6c0.3,0.2,0.6,0.3,0.9,0.3c1.2,0,1.8-0.5,1.8-1.5c0-0.3-0.2-0.5-0.5-0.7c-0.3-0.2-0.7-0.3-1.2-0.4
		c-0.5-0.1-1-0.2-1.6-0.4c-0.6-0.2-1.1-0.4-1.6-0.7c-0.5-0.3-0.9-0.7-1.2-1.3c-0.3-0.6-0.5-1.3-0.5-2.1c0-1.1,0.4-2.1,1.3-3
		c0.8-0.8,2-1.3,3.5-1.3c0.8,0,1.5,0.1,2.1,0.3c0.6,0.2,1.1,0.4,1.3,0.6l0.5,0.4c0.4,0.4,0.6,0.7,0.6,1c0,0.3-0.2,0.6-0.5,1.1
		c-0.4,0.6-0.9,1-1.4,1c-0.3,0-0.6-0.1-1-0.4c0,0-0.1-0.1-0.2-0.2c-0.1-0.1-0.2-0.2-0.3-0.3c-0.3-0.2-0.6-0.3-1-0.3
		c-0.4,0-0.8,0.1-1.1,0.3s-0.4,0.5-0.4,0.8c0,0.4,0.2,0.6,0.5,0.9c0.3,0.2,0.7,0.4,1.2,0.4c0.5,0.1,1,0.2,1.6,0.4
		c0.6,0.2,1.1,0.4,1.6,0.6c0.5,0.2,0.9,0.6,1.2,1.2c0.3,0.6,0.5,1.3,0.5,2.1c0,0.8-0.2,1.6-0.5,2.2c-0.3,0.6-0.8,1.1-1.3,1.5
		c-1,0.7-2.2,1-3.4,1c-0.6,0-1.2-0.1-1.7-0.2c-0.5-0.1-1-0.3-1.3-0.6c-0.7-0.4-1.2-0.8-1.4-1.2L193.4,21.1z"/>
	<path class="st10" d="M217.3,8.8c0.3,0,0.5,0,0.7,0c0.1,0,0.3,0.1,0.5,0.2c0.2,0.1,0.3,0.3,0.4,0.5c0.1,0.2,0.1,0.6,0.1,1
		s0,0.7-0.1,1c-0.1,0.2-0.2,0.4-0.4,0.5s-0.4,0.2-0.5,0.2c-0.1,0-0.4,0-0.7,0h-5.9v2h3.8c0.3,0,0.5,0,0.7,0c0.1,0,0.3,0.1,0.5,0.2
		c0.3,0.2,0.5,0.7,0.5,1.5c0,0.9-0.2,1.4-0.7,1.6c-0.2,0.1-0.5,0.1-1,0.1h-3.8v3.7c0,0.3,0,0.5,0,0.7c0,0.1-0.1,0.3-0.2,0.5
		c-0.2,0.4-0.7,0.5-1.5,0.5c-0.9,0-1.4-0.2-1.6-0.7c-0.1-0.2-0.1-0.5-0.1-1V10.6c0-0.7,0.1-1.1,0.4-1.4c0.2-0.2,0.7-0.4,1.4-0.4
		H217.3z"/>
	<path class="st10" d="M231,20.7c0.2,0.5,0.3,0.8,0.3,1c0,0.5-0.4,0.9-1.2,1.2c-0.4,0.2-0.7,0.3-1,0.3s-0.5-0.1-0.6-0.2
		s-0.3-0.2-0.4-0.4c-0.1-0.2-0.6-1.4-1.5-3.5l-0.6,0h-2.4v2.2c0,0.3,0,0.5,0,0.7c0,0.1-0.1,0.3-0.2,0.5c-0.2,0.4-0.7,0.5-1.5,0.5
		c-0.9,0-1.4-0.2-1.6-0.7c-0.1-0.2-0.1-0.6-0.1-1V10.6c0-0.3,0-0.5,0-0.7c0-0.1,0.1-0.3,0.2-0.5c0.2-0.4,0.7-0.5,1.5-0.5h4.2
		c1.1,0,2.2,0.4,3.3,1.2c0.5,0.4,0.9,0.9,1.3,1.6c0.3,0.7,0.5,1.5,0.5,2.3c0,1.5-0.5,2.7-1.5,3.6C230,18.3,230.4,19.3,231,20.7z
		 M223.5,15.7h2.5c0.4,0,0.8-0.1,1.1-0.4c0.4-0.3,0.6-0.7,0.6-1.3c0-0.6-0.2-1-0.6-1.3c-0.4-0.3-0.8-0.4-1.2-0.4h-2.4V15.7z"/>
	<path class="st10" d="M239.1,8.7c1.9,0,3.6,0.7,5,2.1c1.4,1.4,2.1,3.1,2.1,5.2c0,2.1-0.7,3.8-2,5.2c-1.3,1.4-3,2.2-5,2.2
		c-2,0-3.6-0.7-5-2.1c-1.4-1.4-2.1-3.1-2.1-5.1c0-1.1,0.2-2.1,0.6-3c0.4-0.9,0.9-1.7,1.6-2.4c0.6-0.6,1.4-1.1,2.2-1.5
		S238.2,8.7,239.1,8.7z M235.6,16c0,1.2,0.4,2.1,1.1,2.8c0.7,0.7,1.6,1.1,2.5,1.1c0.9,0,1.7-0.4,2.5-1c0.7-0.7,1.1-1.6,1.1-2.8
		s-0.4-2.1-1.1-2.8c-0.7-0.7-1.6-1.1-2.5-1.1c-0.9,0-1.7,0.4-2.5,1.1C236,13.9,235.6,14.8,235.6,16z"/>
	<path class="st10" d="M262.8,9.4c0.1,0.2,0.2,0.4,0.2,0.5c0,0.2,0,0.4,0,0.7v10.8c0,0.9-0.2,1.4-0.7,1.6c-0.2,0.1-0.6,0.1-0.9,0.1
		c-0.4,0-0.7,0-0.9-0.1c-0.2-0.1-0.4-0.1-0.5-0.2c-0.1-0.1-0.2-0.2-0.3-0.4c-0.1-0.2-0.1-0.6-0.1-1v-6.5c-0.3,0.4-0.8,1-1.4,1.9
		c-0.6,0.9-1,1.4-1.2,1.6c-0.2,0.2-0.3,0.4-0.4,0.5c-0.1,0.1-0.2,0.2-0.5,0.4c-0.3,0.1-0.5,0.2-0.8,0.2s-0.6-0.1-0.8-0.2
		c-0.2-0.1-0.4-0.3-0.5-0.4l-0.2-0.2c-0.3-0.3-0.8-1-1.5-2.1c-0.8-1.1-1.2-1.6-1.2-1.7v6.6c0,0.3,0,0.5,0,0.7c0,0.1-0.1,0.3-0.2,0.5
		c-0.2,0.4-0.7,0.5-1.5,0.5c-0.8,0-1.3-0.2-1.5-0.5c-0.1-0.2-0.2-0.4-0.2-0.5c0-0.2,0-0.4,0-0.7V10.6c0-0.3,0-0.5,0-0.7
		c0-0.1,0.1-0.3,0.2-0.5c0.2-0.3,0.7-0.5,1.5-0.5c0.4,0,0.7,0,0.9,0.1c0.3,0.1,0.4,0.2,0.5,0.3l0.1,0.1l4.4,5.8
		c2.2-2.9,3.7-4.8,4.4-5.8c0.2-0.3,0.7-0.5,1.6-0.5C262.1,8.9,262.6,9,262.8,9.4z"/>
	<path class="st10" d="M270.5,8.8h10.8c0.4,0,0.7,0,0.9,0.1c0.2,0.1,0.3,0.2,0.4,0.5c0.1,0.2,0.1,0.5,0.1,0.8c0,0.3,0,0.6-0.1,0.8
		c-0.1,0.2-0.2,0.3-0.3,0.4c-0.2,0.1-0.6,0.2-1,0.2h-3.7v9.8c0,0.3,0,0.5,0,0.7s-0.1,0.3-0.2,0.5c-0.1,0.2-0.3,0.3-0.5,0.4
		c-0.2,0.1-0.6,0.1-1,0.1c-0.4,0-0.7,0-1-0.1c-0.2-0.1-0.4-0.2-0.5-0.4c-0.1-0.2-0.2-0.4-0.2-0.5c0-0.1,0-0.4,0-0.7v-9.8h-3.7
		c-0.4,0-0.7,0-0.9-0.1c-0.2-0.1-0.3-0.2-0.4-0.5c-0.1-0.2-0.1-0.5-0.1-0.8c0-0.3,0-0.6,0.1-0.8c0.1-0.2,0.2-0.3,0.3-0.4
		C269.7,8.9,270,8.8,270.5,8.8z"/>
	<path class="st10" d="M292.4,9.4c0.1-0.2,0.3-0.3,0.5-0.4c0.2-0.1,0.6-0.1,0.9-0.1c0.4,0,0.7,0,0.9,0.1s0.4,0.1,0.5,0.2
		c0.1,0.1,0.2,0.2,0.3,0.4c0.1,0.2,0.1,0.6,0.1,1v10.8c0,0.3,0,0.5,0,0.7c0,0.1-0.1,0.3-0.2,0.5c-0.2,0.4-0.7,0.5-1.5,0.5
		c-0.9,0-1.4-0.2-1.6-0.7c-0.1-0.2-0.1-0.6-0.1-1v-3.9H287v4c0,0.3,0,0.5,0,0.7c0,0.1-0.1,0.3-0.2,0.5c-0.2,0.4-0.7,0.5-1.5,0.5
		c-0.9,0-1.4-0.2-1.6-0.7c-0.1-0.2-0.1-0.6-0.1-1V10.6c0-0.3,0-0.5,0-0.7c0-0.1,0.1-0.3,0.2-0.5c0.2-0.4,0.7-0.5,1.5-0.5
		c0.9,0,1.4,0.2,1.6,0.7c0.1,0.2,0.1,0.6,0.1,1v4h5.2v-4c0-0.3,0-0.5,0-0.7C292.2,9.7,292.3,9.6,292.4,9.4z"/>
	<path class="st10" d="M301.1,19.6h6c0.3,0,0.5,0,0.7,0c0.1,0,0.3,0.1,0.5,0.2c0.4,0.2,0.5,0.7,0.5,1.5c0,0.9-0.2,1.4-0.7,1.6
		c-0.2,0.1-0.6,0.1-1,0.1h-7.7c-0.9,0-1.4-0.2-1.6-0.7c-0.1-0.2-0.1-0.5-0.1-1V10.6c0-0.7,0.1-1.1,0.4-1.4c0.2-0.2,0.7-0.4,1.4-0.4
		h7.7c0.3,0,0.5,0,0.7,0c0.1,0,0.3,0.1,0.5,0.2c0.4,0.2,0.5,0.7,0.5,1.5c0,0.9-0.2,1.4-0.7,1.6c-0.2,0.1-0.6,0.1-1,0.1h-6v2h3.8
		c0.3,0,0.5,0,0.7,0c0.1,0,0.3,0.1,0.5,0.2c0.4,0.2,0.5,0.7,0.5,1.5c0,0.9-0.2,1.4-0.7,1.6c-0.2,0.1-0.6,0.1-1,0.1h-3.8V19.6z"/>
</g>
<g>
	<path class="st10" d="M143.2,9.4c0.1-0.2,0.3-0.3,0.5-0.4c0.2-0.1,0.6-0.1,0.9-0.1c0.4,0,0.7,0,0.9,0.1c0.2,0.1,0.4,0.1,0.5,0.2
		c0.1,0.1,0.2,0.2,0.3,0.4c0.1,0.2,0.1,0.6,0.1,1v10.8c0,0.3,0,0.5,0,0.7c0,0.1-0.1,0.3-0.2,0.5c-0.2,0.4-0.7,0.5-1.5,0.5
		c-0.9,0-1.4-0.2-1.6-0.7c-0.1-0.2-0.1-0.6-0.1-1v-3.9h-5.2v4c0,0.3,0,0.5,0,0.7c0,0.1-0.1,0.3-0.2,0.5c-0.2,0.4-0.7,0.5-1.5,0.5
		c-0.9,0-1.4-0.2-1.6-0.7c-0.1-0.2-0.1-0.6-0.1-1V10.6c0-0.3,0-0.5,0-0.7c0-0.1,0.1-0.3,0.2-0.5c0.2-0.4,0.7-0.5,1.5-0.5
		c0.9,0,1.4,0.2,1.6,0.7c0.1,0.2,0.1,0.6,0.1,1v4h5.2v-4c0-0.3,0-0.5,0-0.7C143.1,9.7,143.1,9.6,143.2,9.4z"/>
	<path class="st10" d="M154.9,8.7c1.9,0,3.6,0.7,5,2.1c1.4,1.4,2.1,3.1,2.1,5.2c0,2.1-0.7,3.8-2,5.2c-1.3,1.4-3,2.2-5,2.2
		c-2,0-3.6-0.7-5-2.1c-1.4-1.4-2.1-3.1-2.1-5.1c0-1.1,0.2-2.1,0.6-3c0.4-0.9,0.9-1.7,1.6-2.4c0.6-0.6,1.4-1.1,2.2-1.5
		S154,8.7,154.9,8.7z M151.4,16c0,1.2,0.4,2.1,1.1,2.8c0.7,0.7,1.6,1.1,2.5,1.1c0.9,0,1.7-0.4,2.5-1c0.7-0.7,1.1-1.6,1.1-2.8
		s-0.4-2.1-1.1-2.8c-0.7-0.7-1.6-1.1-2.5-1.1c-0.9,0-1.7,0.4-2.5,1.1C151.8,13.9,151.4,14.8,151.4,16z"/>
	<path class="st10" d="M178.6,9.4c0.1,0.2,0.2,0.4,0.2,0.5c0,0.2,0,0.4,0,0.7v10.8c0,0.9-0.2,1.4-0.7,1.6c-0.2,0.1-0.6,0.1-0.9,0.1
		c-0.4,0-0.7,0-0.9-0.1c-0.2-0.1-0.4-0.1-0.5-0.2c-0.1-0.1-0.2-0.2-0.3-0.4c-0.1-0.2-0.1-0.6-0.1-1v-6.5c-0.3,0.4-0.8,1-1.4,1.9
		c-0.6,0.9-1,1.4-1.2,1.6c-0.2,0.2-0.3,0.4-0.4,0.5c-0.1,0.1-0.2,0.2-0.5,0.4c-0.3,0.1-0.5,0.2-0.8,0.2s-0.6-0.1-0.8-0.2
		c-0.2-0.1-0.4-0.3-0.5-0.4l-0.2-0.2c-0.3-0.3-0.8-1-1.5-2.1c-0.8-1.1-1.2-1.6-1.2-1.7v6.6c0,0.3,0,0.5,0,0.7c0,0.1-0.1,0.3-0.2,0.5
		c-0.2,0.4-0.7,0.5-1.5,0.5c-0.8,0-1.3-0.2-1.5-0.5c-0.1-0.2-0.2-0.4-0.2-0.5c0-0.2,0-0.4,0-0.7V10.6c0-0.3,0-0.5,0-0.7
		c0-0.1,0.1-0.3,0.2-0.5c0.2-0.3,0.7-0.5,1.5-0.5c0.4,0,0.7,0,0.9,0.1c0.3,0.1,0.4,0.2,0.5,0.3l0.1,0.1l4.4,5.8
		c2.2-2.9,3.7-4.8,4.4-5.8c0.2-0.3,0.7-0.5,1.6-0.5C178,8.9,178.5,9,178.6,9.4z"/>
	<path class="st10" d="M184.3,19.6h6c0.3,0,0.5,0,0.7,0c0.1,0,0.3,0.1,0.5,0.2c0.4,0.2,0.5,0.7,0.5,1.5c0,0.9-0.2,1.4-0.7,1.6
		c-0.2,0.1-0.6,0.1-1,0.1h-7.7c-0.9,0-1.4-0.2-1.6-0.7c-0.1-0.2-0.1-0.5-0.1-1V10.6c0-0.7,0.1-1.1,0.4-1.4c0.2-0.2,0.7-0.4,1.4-0.4
		h7.7c0.3,0,0.5,0,0.7,0c0.1,0,0.3,0.1,0.5,0.2c0.4,0.2,0.5,0.7,0.5,1.5c0,0.9-0.2,1.4-0.7,1.6c-0.2,0.1-0.6,0.1-1,0.1h-6v2h3.8
		c0.3,0,0.5,0,0.7,0c0.1,0,0.3,0.1,0.5,0.2c0.4,0.2,0.5,0.7,0.5,1.5c0,0.9-0.2,1.4-0.7,1.6c-0.2,0.1-0.6,0.1-1,0.1h-3.8V19.6z"/>
	<path class="st10" d="M193.4,21.1c-0.3-0.4-0.5-0.8-0.5-1.1s0.3-0.8,0.8-1.3c0.3-0.3,0.7-0.5,1-0.5c0.4,0,0.9,0.3,1.5,1
		c0.2,0.2,0.4,0.4,0.8,0.6c0.3,0.2,0.6,0.3,0.9,0.3c1.2,0,1.8-0.5,1.8-1.5c0-0.3-0.2-0.5-0.5-0.7c-0.3-0.2-0.7-0.3-1.2-0.4
		c-0.5-0.1-1-0.2-1.6-0.4c-0.6-0.2-1.1-0.4-1.6-0.7c-0.5-0.3-0.9-0.7-1.2-1.3c-0.3-0.6-0.5-1.3-0.5-2.1c0-1.1,0.4-2.1,1.3-3
		c0.8-0.8,2-1.3,3.5-1.3c0.8,0,1.5,0.1,2.1,0.3c0.6,0.2,1.1,0.4,1.3,0.6l0.5,0.4c0.4,0.4,0.6,0.7,0.6,1c0,0.3-0.2,0.6-0.5,1.1
		c-0.4,0.6-0.9,1-1.4,1c-0.3,0-0.6-0.1-1-0.4c0,0-0.1-0.1-0.2-0.2c-0.1-0.1-0.2-0.2-0.3-0.3c-0.3-0.2-0.6-0.3-1-0.3
		c-0.4,0-0.8,0.1-1.1,0.3s-0.4,0.5-0.4,0.8c0,0.4,0.2,0.6,0.5,0.9c0.3,0.2,0.7,0.4,1.2,0.4c0.5,0.1,1,0.2,1.6,0.4
		c0.6,0.2,1.1,0.4,1.6,0.6c0.5,0.2,0.9,0.6,1.2,1.2c0.3,0.6,0.5,1.3,0.5,2.1c0,0.8-0.2,1.6-0.5,2.2c-0.3,0.6-0.8,1.1-1.3,1.5
		c-1,0.7-2.2,1-3.4,1c-0.6,0-1.2-0.1-1.7-0.2c-0.5-0.1-1-0.3-1.3-0.6c-0.7-0.4-1.2-0.8-1.4-1.2L193.4,21.1z"/>
	<path class="st10" d="M217.3,8.8c0.3,0,0.5,0,0.7,0c0.1,0,0.3,0.1,0.5,0.2c0.2,0.1,0.3,0.3,0.4,0.5c0.1,0.2,0.1,0.6,0.1,1
		s0,0.7-0.1,1c-0.1,0.2-0.2,0.4-0.4,0.5s-0.4,0.2-0.5,0.2c-0.1,0-0.4,0-0.7,0h-5.9v2h3.8c0.3,0,0.5,0,0.7,0c0.1,0,0.3,0.1,0.5,0.2
		c0.3,0.2,0.5,0.7,0.5,1.5c0,0.9-0.2,1.4-0.7,1.6c-0.2,0.1-0.5,0.1-1,0.1h-3.8v3.7c0,0.3,0,0.5,0,0.7c0,0.1-0.1,0.3-0.2,0.5
		c-0.2,0.4-0.7,0.5-1.5,0.5c-0.9,0-1.4-0.2-1.6-0.7c-0.1-0.2-0.1-0.5-0.1-1V10.6c0-0.7,0.1-1.1,0.4-1.4c0.2-0.2,0.7-0.4,1.4-0.4
		H217.3z"/>
	<path class="st10" d="M231,20.7c0.2,0.5,0.3,0.8,0.3,1c0,0.5-0.4,0.9-1.2,1.2c-0.4,0.2-0.7,0.3-1,0.3s-0.5-0.1-0.6-0.2
		s-0.3-0.2-0.4-0.4c-0.1-0.2-0.6-1.4-1.5-3.5l-0.6,0h-2.4v2.2c0,0.3,0,0.5,0,0.7c0,0.1-0.1,0.3-0.2,0.5c-0.2,0.4-0.7,0.5-1.5,0.5
		c-0.9,0-1.4-0.2-1.6-0.7c-0.1-0.2-0.1-0.6-0.1-1V10.6c0-0.3,0-0.5,0-0.7c0-0.1,0.1-0.3,0.2-0.5c0.2-0.4,0.7-0.5,1.5-0.5h4.2
		c1.1,0,2.2,0.4,3.3,1.2c0.5,0.4,0.9,0.9,1.3,1.6c0.3,0.7,0.5,1.5,0.5,2.3c0,1.5-0.5,2.7-1.5,3.6C230,18.3,230.4,19.3,231,20.7z
		 M223.5,15.7h2.5c0.4,0,0.8-0.1,1.1-0.4c0.4-0.3,0.6-0.7,0.6-1.3c0-0.6-0.2-1-0.6-1.3c-0.4-0.3-0.8-0.4-1.2-0.4h-2.4V15.7z"/>
	<path class="st10" d="M239.1,8.7c1.9,0,3.6,0.7,5,2.1c1.4,1.4,2.1,3.1,2.1,5.2c0,2.1-0.7,3.8-2,5.2c-1.3,1.4-3,2.2-5,2.2
		c-2,0-3.6-0.7-5-2.1c-1.4-1.4-2.1-3.1-2.1-5.1c0-1.1,0.2-2.1,0.6-3c0.4-0.9,0.9-1.7,1.6-2.4c0.6-0.6,1.4-1.1,2.2-1.5
		S238.2,8.7,239.1,8.7z M235.6,16c0,1.2,0.4,2.1,1.1,2.8c0.7,0.7,1.6,1.1,2.5,1.1c0.9,0,1.7-0.4,2.5-1c0.7-0.7,1.1-1.6,1.1-2.8
		s-0.4-2.1-1.1-2.8c-0.7-0.7-1.6-1.1-2.5-1.1c-0.9,0-1.7,0.4-2.5,1.1C236,13.9,235.6,14.8,235.6,16z"/>
	<path class="st10" d="M262.8,9.4c0.1,0.2,0.2,0.4,0.2,0.5c0,0.2,0,0.4,0,0.7v10.8c0,0.9-0.2,1.4-0.7,1.6c-0.2,0.1-0.6,0.1-0.9,0.1
		c-0.4,0-0.7,0-0.9-0.1c-0.2-0.1-0.4-0.1-0.5-0.2c-0.1-0.1-0.2-0.2-0.3-0.4c-0.1-0.2-0.1-0.6-0.1-1v-6.5c-0.3,0.4-0.8,1-1.4,1.9
		c-0.6,0.9-1,1.4-1.2,1.6c-0.2,0.2-0.3,0.4-0.4,0.5c-0.1,0.1-0.2,0.2-0.5,0.4c-0.3,0.1-0.5,0.2-0.8,0.2s-0.6-0.1-0.8-0.2
		c-0.2-0.1-0.4-0.3-0.5-0.4l-0.2-0.2c-0.3-0.3-0.8-1-1.5-2.1c-0.8-1.1-1.2-1.6-1.2-1.7v6.6c0,0.3,0,0.5,0,0.7c0,0.1-0.1,0.3-0.2,0.5
		c-0.2,0.4-0.7,0.5-1.5,0.5c-0.8,0-1.3-0.2-1.5-0.5c-0.1-0.2-0.2-0.4-0.2-0.5c0-0.2,0-0.4,0-0.7V10.6c0-0.3,0-0.5,0-0.7
		c0-0.1,0.1-0.3,0.2-0.5c0.2-0.3,0.7-0.5,1.5-0.5c0.4,0,0.7,0,0.9,0.1c0.3,0.1,0.4,0.2,0.5,0.3l0.1,0.1l4.4,5.8
		c2.2-2.9,3.7-4.8,4.4-5.8c0.2-0.3,0.7-0.5,1.6-0.5C262.1,8.9,262.6,9,262.8,9.4z"/>
	<path class="st10" d="M270.5,8.8h10.8c0.4,0,0.7,0,0.9,0.1c0.2,0.1,0.3,0.2,0.4,0.5c0.1,0.2,0.1,0.5,0.1,0.8c0,0.3,0,0.6-0.1,0.8
		c-0.1,0.2-0.2,0.3-0.3,0.4c-0.2,0.1-0.6,0.2-1,0.2h-3.7v9.8c0,0.3,0,0.5,0,0.7s-0.1,0.3-0.2,0.5c-0.1,0.2-0.3,0.3-0.5,0.4
		c-0.2,0.1-0.6,0.1-1,0.1c-0.4,0-0.7,0-1-0.1c-0.2-0.1-0.4-0.2-0.5-0.4c-0.1-0.2-0.2-0.4-0.2-0.5c0-0.1,0-0.4,0-0.7v-9.8h-3.7
		c-0.4,0-0.7,0-0.9-0.1c-0.2-0.1-0.3-0.2-0.4-0.5c-0.1-0.2-0.1-0.5-0.1-0.8c0-0.3,0-0.6,0.1-0.8c0.1-0.2,0.2-0.3,0.3-0.4
		C269.7,8.9,270,8.8,270.5,8.8z"/>
	<path class="st10" d="M292.4,9.4c0.1-0.2,0.3-0.3,0.5-0.4c0.2-0.1,0.6-0.1,0.9-0.1c0.4,0,0.7,0,0.9,0.1s0.4,0.1,0.5,0.2
		c0.1,0.1,0.2,0.2,0.3,0.4c0.1,0.2,0.1,0.6,0.1,1v10.8c0,0.3,0,0.5,0,0.7c0,0.1-0.1,0.3-0.2,0.5c-0.2,0.4-0.7,0.5-1.5,0.5
		c-0.9,0-1.4-0.2-1.6-0.7c-0.1-0.2-0.1-0.6-0.1-1v-3.9H287v4c0,0.3,0,0.5,0,0.7c0,0.1-0.1,0.3-0.2,0.5c-0.2,0.4-0.7,0.5-1.5,0.5
		c-0.9,0-1.4-0.2-1.6-0.7c-0.1-0.2-0.1-0.6-0.1-1V10.6c0-0.3,0-0.5,0-0.7c0-0.1,0.1-0.3,0.2-0.5c0.2-0.4,0.7-0.5,1.5-0.5
		c0.9,0,1.4,0.2,1.6,0.7c0.1,0.2,0.1,0.6,0.1,1v4h5.2v-4c0-0.3,0-0.5,0-0.7C292.2,9.7,292.3,9.6,292.4,9.4z"/>
	<path class="st10" d="M301.1,19.6h6c0.3,0,0.5,0,0.7,0c0.1,0,0.3,0.1,0.5,0.2c0.4,0.2,0.5,0.7,0.5,1.5c0,0.9-0.2,1.4-0.7,1.6
		c-0.2,0.1-0.6,0.1-1,0.1h-7.7c-0.9,0-1.4-0.2-1.6-0.7c-0.1-0.2-0.1-0.5-0.1-1V10.6c0-0.7,0.1-1.1,0.4-1.4c0.2-0.2,0.7-0.4,1.4-0.4
		h7.7c0.3,0,0.5,0,0.7,0c0.1,0,0.3,0.1,0.5,0.2c0.4,0.2,0.5,0.7,0.5,1.5c0,0.9-0.2,1.4-0.7,1.6c-0.2,0.1-0.6,0.1-1,0.1h-6v2h3.8
		c0.3,0,0.5,0,0.7,0c0.1,0,0.3,0.1,0.5,0.2c0.4,0.2,0.5,0.7,0.5,1.5c0,0.9-0.2,1.4-0.7,1.6c-0.2,0.1-0.6,0.1-1,0.1h-3.8V19.6z"/>
</g>
<g id="XMLID_1_">
	<g>
		<path class="st11" d="M110.5,7.8c2,0,3.7,1.7,3.7,3.7c0,2-1.7,3.7-3.7,3.7h-9.9c-2,0-3.7-1.7-3.7-3.7c0-2,1.7-3.7,3.7-3.7H110.5z"
			/>
		<path class="st12" d="M104,43.9c0.1,1.1,0.3,2.3,0.8,3.4c-1,0.1-2,0.3-3,0.8c-0.1-1.1-0.3-2.3-0.9-3.3
			C101.9,44.7,103,44.5,104,43.9z"/>
		<path class="st13" d="M91.2,37.8c0.2,0.9,0.1,1.9-0.5,2.4c-0.5,0.4-1.2,0.8-2,1.1c-1.7,0.9-3.9,1.9-4.7,4.5
			c-0.3,0.8-0.4,1.5-0.6,2.3c-0.5,2.2-0.8,3.7-3.4,4.4c-2.1,0.6-3.1-0.3-4.6-1.9c-0.8-0.8-1.5-1.6-2.6-2.1C72,48.2,71,48,70,47.9
			c-0.5-0.1-1.1-0.1-1.6-0.1c-1.6,0-3.1,0.2-4.5,0.5c-1,0.2-2.3-0.2-3.3-1.1c-0.8-0.7-1.3-1.6-1.2-2.4c0-0.7,0.2-1.5,0.3-2.3
			c0.4-2,0.8-4.3-0.5-6.8c-1.6-3.3-1.8-4.6-0.8-6.1c0.7-1.1,1.4-1.2,2.4-1.4c0.4-0.1,0.9-0.1,1.4-0.3l0.4-0.2
			c0.1-0.1,1.9-1.5,2.9-3.9c0.7-1.7,1.3-2.4,2-2.6c0.3-0.1,0.5-0.1,0.8-0.1c1.9,0.2,3.2,0.7,4.6,1.9c2.2,1.9,4.6,2.4,7.6,1.7
			c1-0.2,1.7-0.5,2.4-0.8c1.3-0.5,1.9-0.7,3.3,0c1.2,0.6,1.3,1.5,1,3.4c-0.1,0.4-0.1,0.9-0.1,1.3c0,0.7,0.2,1.6,0.6,2.6
			c0.6,1.6,1.5,3.2,2.4,4.3C90.6,36.2,91,37,91.2,37.8z"/>
		<path class="st16" d="M68.6,62.1c0.3,0.6,0.1,1.3-0.5,1.7c-1.1,0.6-2.4,0.9-3.7,0.9c-4.2,0-7.7-3.4-7.7-7.7c0-0.7,0.6-1.2,1.2-1.2
			c0.7,0,1.2,0.6,1.2,1.2c0,2.9,2.3,5.2,5.2,5.2c0.9,0,1.7-0.2,2.5-0.6C67.5,61.3,68.3,61.5,68.6,62.1z"/>
		<path class="st16" d="M68,66.8c0.3,0.6,0.1,1.3-0.5,1.7c-1.4,0.8-3,1.2-4.7,1.2c-5.4,0-9.7-4.4-9.7-9.7c0-0.7,0.6-1.2,1.2-1.2
			c0.7,0,1.2,0.6,1.2,1.2c0,4,3.3,7.3,7.3,7.3c1.2,0,2.4-0.3,3.5-0.9C66.9,66,67.7,66.2,68,66.8z"/>
		<ellipse class="st14" cx="65.6" cy="55.6" rx="1.9" ry="1.9"/>
		<g>
			<g>
				<path class="st16" d="M45.3,41.7h-2.9c-1.5,0-2.7,1.2-2.7,2.7v0.8c0,1.5,1.2,2.7,2.7,2.7h2.9c1.5,0,2.7-1.2,2.7-2.7v-0.8
					C48.1,42.9,46.8,41.7,45.3,41.7z M45.6,45.3c0,0.2-0.1,0.3-0.3,0.3h-2.9c-0.2,0-0.3-0.1-0.3-0.3v-0.8c0-0.2,0.1-0.3,0.3-0.3h2.9
					c0.1,0,0.3,0.1,0.3,0.3V45.3z"/>
				<path class="st16" d="M45.3,31.6h-2.9c-1.5,0-2.7,1.2-2.7,2.7v2.6c0,1.5,1.2,2.7,2.7,2.7h2.9c1.5,0,2.7-1.2,2.7-2.7v-2.6
					C48.1,32.8,46.8,31.6,45.3,31.6z M45.6,36.9c0,0.2-0.1,0.3-0.3,0.3h-2.9c-0.2,0-0.3-0.1-0.3-0.3v-2.6c0-0.2,0.1-0.3,0.3-0.3h2.9
					c0.1,0,0.3,0.1,0.3,0.3V36.9z"/>
				<path class="st16" d="M71.5,50.7c0.1,0,0.2,0.1,0.4,0.2c0.6,0.3,1.2,0.9,1.8,1.5c1.2,1.2,2.7,2.8,5.2,2.8c0.6,0,1.2-0.1,1.8-0.3
					c4.1-1.1,4.7-3.9,5.2-6.3c0.1-0.7,0.3-1.4,0.5-2c0.5-1.6,1.9-2.3,3.5-3.1c0.8-0.4,1.7-0.9,2.4-1.5c1.1-1,1.5-2.3,1.5-3.7
					c1.1-0.3,2.9-0.6,4.6-0.8c1.3-0.1,2.2,0,2.4,0.2c0.2,0.1,0.3,0.5,0.3,1.1c0,1.3,0,2.6,0,3.3c-1.5,0.2-3-0.3-3.1-0.3
					c-0.6-0.2-1.3,0.1-1.5,0.7c-0.3,0.6,0,1.3,0.6,1.6c3.5,1.8,2.1,6.6,2,6.8c-0.2,0.6,0.1,1.3,0.7,1.5c0.2,0.1,0.3,0.1,0.5,0.1
					c0.4,0,0.9-0.3,1.1-0.7c1.8-3.4,6-1.9,6.2-1.9c0.6,0.2,1.3-0.1,1.6-0.7c0.3-0.6,0-1.3-0.6-1.6c-2.8-1.5-2-6.9-2-7
					c0.1-0.6-0.2-1.2-0.8-1.4c-0.6-0.2-1.2,0.1-1.5,0.6c-0.2,0.4-0.4,0.7-0.7,1c0-0.7,0-1.4,0-2.2c0-1.3-0.4-2.2-1.1-2.9
					c-1-0.9-2.4-1-4.3-0.8c-1.8,0.2-3.7,0.5-4.9,0.8c-0.3-0.7-0.7-1.4-1.1-2c-0.6-0.8-1.3-1.9-1.7-3c0.9-1,2.5-2.5,4-2.7
					c1.1-0.1,2.7-0.2,4.2-0.2c2.4,0,3.9-0.1,4.8-0.4c1.8-0.6,3.5-1.7,3.4-5c-0.1-1.7-0.1-3.8-0.2-5.2h3.9c3.4,0,6.1-2.8,6.1-6.1
					s-2.8-6.1-6.1-6.1h-9.9c-3.4,0-6.1,2.8-6.1,6.1s2.8,6.1,6.1,6.1h3.6c0,1.3,0.1,3.5,0.2,5.2c0.1,2-0.6,2.2-1.7,2.6
					c-0.6,0.2-2.5,0.2-4,0.3c-1.6,0-3.2,0.1-4.5,0.2c-1.7,0.2-3.2,1.3-4.3,2.3c0-0.1,0-0.2,0.1-0.3c0.2-1.6,0.7-4.5-2.3-6
					c-2.4-1.2-3.8-0.6-5.3-0.1c-0.6,0.2-1.2,0.5-2,0.7c-2.8,0.6-4.2-0.2-5.4-1.2c-1.8-1.5-3.6-2.3-6-2.5h0c0.1-1.7,0.1-4.2-0.5-5.3
					c-1-2.1-4.3-2.5-7.2-2.2c-0.6,0.1-1.4,0.1-2.2,0.1c-3.8,0.1-8.1,0.3-8.2,3c0,0.4,0,0.8,0,1.3c0,1,0.1,2.6-0.3,3.1
					c0,0-0.1,0.1-0.5,0.1c-0.8,0-1.4,0-1.8,0v-5.7c0-2.3-1.9-4.2-4.2-4.2c-2.3,0-4.2,1.9-4.2,4.2v13.6c0,1.5,1.2,2.7,2.7,2.7h2.9
					c1.5,0,2.7-1.2,2.7-2.7v-5.4c0.4,0,1,0,1.9,0c1.1,0,1.8-0.5,2.2-0.9c1.1-1.2,1.1-3.1,1-4.9c0-0.4,0-0.7,0-1
					c0.8-0.6,4.3-0.7,5.8-0.7c0.9,0,1.8-0.1,2.4-0.1c2.8-0.3,4.5,0.4,4.7,0.8c0.3,0.6,0.3,2.8,0.2,4.8v0c-1.6,0.9-2.4,2.8-2.8,3.7
					c-0.6,1.4-1.6,2.4-2,2.7c-0.2,0.1-0.5,0.1-0.8,0.1c-1.2,0.2-2.8,0.4-4.1,2.4c-1.9,2.8-0.8,5.5,0.7,8.5c0.9,1.8,0.6,3.4,0.2,5.3
					C57.2,43,57,43.8,57,44.7c-0.1,1.6,0.7,3.1,2.1,4.3c1.6,1.3,3.6,1.9,5.4,1.6c1.3-0.3,2.9-0.5,4.4-0.5c0.3,1.1,0.5,2.2,0.5,2.4v0
					c-0.1,0-0.4-0.1-0.8-0.2c-0.1,0-0.1,0-0.2-0.1c0,0,0,0,0,0c-0.8-0.7-1.8-1.1-2.8-1.1c-2.4,0-4.3,1.9-4.3,4.3
					c0,2.4,1.9,4.3,4.3,4.3c2.4,0,4.3-1.9,4.3-4.3c0-0.2,0-0.4,0-0.5c0.4,0,0.8-0.2,1.1-0.4c0.6-0.5,1-1.3,0.9-2.2
					C71.8,52.1,71.7,51.5,71.5,50.7 M45.6,26.8c0,0.2-0.1,0.3-0.3,0.3h-2.9c-0.2,0-0.3-0.1-0.3-0.3V13.2c0-1,0.8-1.7,1.7-1.7
					s1.7,0.8,1.7,1.7V26.8z M65.6,57.5c-1,0-1.9-0.8-1.9-1.9c0-1,0.8-1.9,1.9-1.9c1,0,1.9,0.8,1.9,1.9
					C67.4,56.6,66.6,57.5,65.6,57.5z M104,43.9c0.1,1.1,0.3,2.3,0.8,3.4c-1,0.1-2,0.3-3,0.8c-0.1-1.1-0.3-2.3-0.9-3.3
					C101.9,44.7,103,44.5,104,43.9z M91.2,37.8c0.2,0.9,0.1,1.9-0.5,2.4c-0.5,0.4-1.2,0.8-2,1.1c-1.7,0.9-3.9,1.9-4.7,4.5
					c-0.3,0.8-0.4,1.5-0.6,2.3c-0.5,2.2-0.8,3.7-3.4,4.4c-2.1,0.6-3.1-0.3-4.6-1.9c-0.8-0.8-1.5-1.6-2.6-2.1C72,48.2,71,48,70,47.9
					c-0.5-0.1-1.1-0.1-1.6-0.1c-1.6,0-3.1,0.2-4.5,0.5c-1,0.2-2.3-0.2-3.3-1.1c-0.8-0.7-1.3-1.6-1.2-2.4c0-0.7,0.2-1.5,0.3-2.3
					c0.4-2,0.8-4.3-0.5-6.8c-1.6-3.3-1.8-4.6-0.8-6.1c0.7-1.1,1.4-1.2,2.4-1.4c0.4-0.1,0.9-0.1,1.4-0.3l0.4-0.2
					c0.1-0.1,1.9-1.5,2.9-3.9c0.7-1.7,1.3-2.4,2-2.6c0.3-0.1,0.5-0.1,0.8-0.1c1.9,0.2,3.2,0.7,4.6,1.9c2.2,1.9,4.6,2.4,7.6,1.7
					c1-0.2,1.7-0.5,2.4-0.8c1.3-0.5,1.9-0.7,3.3,0c1.2,0.6,1.3,1.5,1,3.4c-0.1,0.4-0.1,0.9-0.1,1.3c0,0.7,0.2,1.6,0.6,2.6v0
					c0.6,1.6,1.5,3.2,2.4,4.3C90.6,36.2,91,37,91.2,37.8z M110.5,15.2h-9.9c-2,0-3.7-1.7-3.7-3.7c0-2,1.7-3.7,3.7-3.7h9.9
					c2,0,3.7,1.7,3.7,3.7C114.1,13.5,112.5,15.2,110.5,15.2z"/>
			</g>
		</g>
		<path class="st15" d="M45.6,44.4v0.8c0,0.2-0.1,0.3-0.3,0.3h-2.9c-0.2,0-0.3-0.1-0.3-0.3v-0.8c0-0.2,0.1-0.3,0.3-0.3h2.9
			C45.5,44.1,45.6,44.3,45.6,44.4z"/>
		<path class="st14" d="M45.6,34.3v2.6c0,0.2-0.1,0.3-0.3,0.3h-2.9c-0.2,0-0.3-0.1-0.3-0.3v-2.6c0-0.2,0.1-0.3,0.3-0.3h2.9
			C45.5,34,45.6,34.1,45.6,34.3z"/>
		<path class="st15" d="M45.6,13.2v13.6c0,0.2-0.1,0.3-0.3,0.3h-2.9c-0.2,0-0.3-0.1-0.3-0.3V13.2c0-1,0.8-1.7,1.7-1.7
			C44.8,11.5,45.6,12.2,45.6,13.2z"/>
	</g>
</g>
</svg>
