<?xml version="1.0" encoding="utf-8"?>
<!-- Generator: Adobe Illustrator 21.0.2, SVG Export Plug-In . SVG Version: 6.00 Build 0)  -->
<svg version="1.1" id="Layer_1" xmlns="http://www.w3.org/2000/svg" xmlns:xlink="http://www.w3.org/1999/xlink" x="0px" y="0px"
	 viewBox="0 0 350 75" style="enable-background:new 0 0 350 75;" xml:space="preserve">
<style type="text/css">
	.st0{fill:#F9F7FB;}
	.st1{fill:#5A67F4;}
	.st2{fill:#F9F7FB;stroke:#F9F7FB;stroke-miterlimit:10;}
	.st3{fill:#27BEBA;}
	.st4{fill:#1B98FC;}
	.st5{fill:#FDBB4F;}
	.st6{fill:#F84D53;}
	.st7{fill:#EE45FC;}
	.st8{clip-path:url(#SVGID_2_);}
	.st9{fill:#FBF5F3;}
	.st10{fill:#F7F6F9;}
	.st11{fill:#FFC857;}
	.st12{fill:#34E5FF;}
	.st13{fill:#4056F4;}
	.st14{fill:#F56376;}
	.st15{fill:#40F99B;}
	.st16{fill:#0C0C0C;}
	.st17{fill:#02F99F;}
	.st18{fill:#3500FB;}
	.st19{fill:#F1F0FD;}
	.st20{fill:#13063B;}
	.st21{fill:#FFD700;}
	.st22{fill:#FFFFFF;}
	.st23{fill:#53146C;}
	.st24{fill:#FDBC2B;}
	.st25{fill:#FC551E;}
	.st26{fill:#39BDEB;}
	.st27{fill:#43CDAC;}
	.st28{fill:#EDF2F4;}
</style>
<g>
	<path class="st21" d="M211.6,29.4c-0.1-5.7-1.2-11.2-3.9-15.2c-3.3-4.9-10-8.1-17-8.1c-2.3,0-4.5,0.3-6.4,1c-0.1,0-0.3,0.1-0.4,0.2
		c5.1,3.4,12.5,9.8,12.5,18.9c0,1.2-1,2.2-2.2,2.2c-1.2,0-2.2-1-2.2-2.2c0-10.1-12.6-16.6-14.4-17.5c-3.6-1.8-10.1-1.8-10.1-1.8
		s0,0,0,0c-2.4-0.1-4.7,0.1-7.3,0.5c-5.3,0.9-9.1,3.4-11.5,7.5c-6.4,10.6-1.6,28.2,0.1,33.4c1.2,3.6,2.5,7.4,4.8,10.2
		c2.5,3.2,7.1,6.6,10.7,6.8c3,0.2,6.2-0.9,9.6-2c3.3-1.1,6.7-2.3,10.2-2.3h0.2c1.9,0,3.9,0.2,6.1,0.4c2.1,0.2,4.4,0.4,6.4,0.4
		c2.1,0,3.9-0.2,5.2-0.7c1.7-0.5,3.2-2.4,4.3-4.7c3.4-6.8,5-20.3,5.1-22.1l0,0l0-0.2C211.5,32.5,211.6,30.9,211.6,29.4z"/>
</g>
<g>
	<path class="st22" d="M95.4,34.3v-4.9c0-0.9-0.2-1.5-0.6-2c-0.2-0.2-0.6-0.3-1-0.3c-0.8,0-1.2,0.6-1.4,1.2
		c-0.1,0.3-0.2,0.7-0.2,1.2v19.3c0,0.9,0.2,1.5,0.7,2c0.2,0.2,0.5,0.3,0.9,0.3c0.8,0,1.2-0.5,1.4-1.2c0.1-0.3,0.2-0.7,0.2-1.2v-5.8
		h-1.9v-4h6.6v16h-2.8l-0.6-1.5c-0.9,1.1-2.1,1.9-3.7,1.9s-2.6-0.4-3.4-1.1c-0.8-0.7-1.3-1.5-1.7-2.4c-0.4-1-0.6-2.2-0.5-3.5V29.3
		c0-1.3,0.3-2.4,0.8-3.5c0.4-0.9,1-1.7,1.8-2.4c0.9-0.7,2.1-1.1,3.7-1.1c1.6,0,2.8,0.4,3.6,1.1c0.9,0.7,1.5,1.5,1.9,2.4
		c0.5,1,0.7,2.2,0.8,3.5v4.9H95.4z"/>
	<path class="st22" d="M119.9,48.3c0,1.3-0.3,2.5-0.8,3.5c-0.4,0.9-1,1.7-1.9,2.4c-0.9,0.7-2.1,1.1-3.6,1.1c-1.6,0-2.8-0.4-3.7-1.1
		c-0.9-0.7-1.4-1.5-1.8-2.4c-0.5-1-0.7-2.2-0.8-3.5V29.3c0-1.3,0.3-2.4,0.8-3.5c0.4-0.9,1-1.7,1.8-2.4c0.9-0.7,2.1-1.1,3.7-1.1
		c1.6,0,2.8,0.4,3.6,1.1c0.9,0.7,1.5,1.5,1.9,2.4c0.5,1,0.7,2.2,0.8,3.5V48.3z M115.2,29.3c0-0.9-0.2-1.5-0.6-2
		c-0.2-0.2-0.6-0.3-1-0.3c-0.8,0-1.2,0.6-1.4,1.2c-0.1,0.3-0.2,0.7-0.2,1.2v18.9c0,0.9,0.2,1.5,0.7,2c0.2,0.2,0.5,0.3,0.9,0.3
		c0.8,0,1.2-0.5,1.4-1.2c0.1-0.3,0.2-0.7,0.2-1.2V29.3z"/>
	<path class="st22" d="M127.2,22.8h4.7v27.7h6.2v4.4h-11V22.8z"/>
	<path class="st22" d="M144.8,54.9V22.8h3.7c4.4,0,6.7,0.9,8,3.3c1.2,2.4,1.4,6.5,1.4,12.8s-0.2,10.3-1.4,12.7
		c-1.3,2.4-3.6,3.3-8,3.3H144.8z M149.5,50.1c1.6,0,2.5-0.2,3-1.7c0.2-0.7,0.4-1.9,0.4-3.4c0-1.5,0-3.6,0-6.2s0-4.7,0-6.2
		c0-1.5-0.2-2.6-0.4-3.4c-0.5-1.5-1.4-1.7-3-1.7V50.1z"/>
	<path class="st22" d="M174.8,27.6v-4.8h13.6v4.8H184v27.3h-4.7V27.6H174.8z"/>
	<path class="st22" d="M207.4,48.3c0,1.3-0.3,2.5-0.8,3.5c-0.4,0.9-1,1.7-1.9,2.4c-0.9,0.7-2.1,1.1-3.6,1.1c-1.6,0-2.8-0.4-3.7-1.1
		c-0.9-0.7-1.4-1.5-1.8-2.4c-0.5-1-0.7-2.2-0.8-3.5V29.3c0-1.3,0.3-2.4,0.8-3.5c0.4-0.9,1-1.7,1.8-2.4c0.9-0.7,2.1-1.1,3.7-1.1
		c1.6,0,2.8,0.4,3.6,1.1c0.9,0.7,1.5,1.5,1.9,2.4c0.5,1,0.7,2.2,0.8,3.5V48.3z M202.7,29.3c0-0.9-0.2-1.5-0.6-2
		c-0.2-0.2-0.6-0.3-1-0.3c-0.8,0-1.2,0.6-1.4,1.2c-0.1,0.3-0.2,0.7-0.2,1.2v18.9c0,0.9,0.2,1.5,0.7,2c0.2,0.2,0.5,0.3,0.9,0.3
		c0.8,0,1.2-0.5,1.4-1.2c0.1-0.3,0.2-0.7,0.2-1.2V29.3z"/>
	<path class="st22" d="M227.1,48.3c0,1.3-0.3,2.5-0.8,3.5c-0.4,0.9-1,1.7-1.9,2.4c-0.9,0.7-2.1,1.1-3.6,1.1c-1.6,0-2.8-0.4-3.7-1.1
		c-0.9-0.7-1.4-1.5-1.8-2.4c-0.5-1-0.7-2.2-0.8-3.5V29.3c0-1.3,0.3-2.4,0.8-3.5c0.4-0.9,1-1.7,1.8-2.4c0.9-0.7,2.1-1.1,3.7-1.1
		c1.6,0,2.8,0.4,3.6,1.1c0.9,0.7,1.5,1.5,1.9,2.4c0.5,1,0.7,2.2,0.8,3.5V48.3z M222.4,29.3c0-0.9-0.2-1.5-0.6-2
		c-0.2-0.2-0.6-0.3-1-0.3c-0.8,0-1.2,0.6-1.4,1.2c-0.1,0.3-0.2,0.7-0.2,1.2v18.9c0,0.9,0.2,1.5,0.7,2c0.2,0.2,0.5,0.3,0.9,0.3
		c0.8,0,1.2-0.5,1.4-1.2c0.1-0.3,0.2-0.7,0.2-1.2V29.3z"/>
	<path class="st22" d="M233.5,27.6v-4.8h13.6v4.8h-4.5v27.3h-4.7V27.6H233.5z"/>
	<path class="st22" d="M262.1,40.9h-3.7v14h-4.7V22.8h4.7V36h3.7V22.8h4.7v32.1h-4.7V40.9z"/>
</g>
</svg>
