<?xml version="1.0" encoding="utf-8"?>
<!-- Generator: Adobe Illustrator 21.0.2, SVG Export Plug-In . SVG Version: 6.00 Build 0)  -->
<svg version="1.1" id="Layer_1" xmlns="http://www.w3.org/2000/svg" xmlns:xlink="http://www.w3.org/1999/xlink" x="0px" y="0px"
	 viewBox="0 0 350 75" style="enable-background:new 0 0 350 75;" xml:space="preserve">
<style type="text/css">
	.st0{fill:#F9F7FB;}
	.st1{fill:#5A67F4;}
	.st2{fill:#F9F7FB;stroke:#F9F7FB;stroke-miterlimit:10;}
	.st3{fill:#27BEBA;}
	.st4{fill:#1B98FC;}
	.st5{fill:#FDBB4F;}
	.st6{fill:#F84D53;}
	.st7{fill:#EE45FC;}
	.st8{clip-path:url(#SVGID_2_);}
	.st9{fill:#FBF5F3;}
	.st10{fill:#F7F6F9;}
	.st11{fill:#FFC857;}
	.st12{fill:#34E5FF;}
	.st13{fill:#4056F4;}
	.st14{fill:#F56376;}
	.st15{fill:#40F99B;}
	.st16{fill:#0C0C0C;}
	.st17{fill:#02F99F;}
	.st18{fill:#3500FB;}
	.st19{fill:#F1F0FD;}
	.st20{fill:#13063B;}
	.st21{fill:#FFD700;}
	.st22{fill:#FFFFFF;}
	.st23{fill:#53146C;}
	.st24{fill:#FDBC2B;}
	.st25{fill:#FC551E;}
	.st26{fill:#39BDEB;}
	.st27{fill:#43CDAC;}
	.st28{fill:#EDF2F4;}
</style>
<polygon class="st3" points="33.9,4.6 53,4.6 41.7,16.6 "/>
<polygon class="st4" points="42,18.2 55.3,4.6 73.1,4.6 49.3,29.2 "/>
<polygon class="st5" points="49.8,30 76,5 76,24.4 57.5,41.6 "/>
<polygon class="st6" points="58.3,42.7 76,25 76,44.8 66.4,55 "/>
<polygon class="st7" points="67.2,55 76,46.2 76,67.9 "/>
<g>
	<defs>
		<polygon id="SVGID_1_" points="76.7,4.6 32.9,4.6 76.7,70.4 76.7,4.6 		"/>
	</defs>
	<clipPath id="SVGID_2_">
		<use xlink:href="#SVGID_1_"  style="overflow:visible;"/>
	</clipPath>
	<g class="st8">
		<g>
			<g>
				
					<rect x="-76.6" y="-31.7" transform="matrix(0.7071 -0.7071 0.7071 0.7071 22.8066 -4.2905)" class="st9" width="165.6" height="4"/>
			</g>
			<g>
				
					<rect x="-66.3" y="-21.3" transform="matrix(0.7071 -0.7071 0.7071 0.7071 18.5261 6.0443)" class="st9" width="165.6" height="4"/>
			</g>
			<g>
				
					<rect x="-55.9" y="-11" transform="matrix(0.7071 -0.7071 0.7071 0.7071 14.2451 16.3789)" class="st9" width="165.6" height="4"/>
			</g>
			<g>
				
					<rect x="-45.6" y="-0.7" transform="matrix(0.7071 -0.7071 0.7071 0.7071 9.9644 26.7134)" class="st9" width="165.6" height="4"/>
			</g>
			<g>
				
					<rect x="-35.3" y="9.7" transform="matrix(0.7071 -0.7071 0.7071 0.7071 5.6838 37.0482)" class="st9" width="165.6" height="4"/>
			</g>
			<g>
				
					<rect x="-24.9" y="20" transform="matrix(0.7071 -0.7071 0.7071 0.7071 1.4028 47.3828)" class="st9" width="165.6" height="4"/>
			</g>
			<g>
				
					<rect x="-14.6" y="30.3" transform="matrix(0.7071 -0.7071 0.7071 0.7071 -2.8782 57.7174)" class="st9" width="165.6" height="4"/>
			</g>
			<g>
				
					<rect x="-4.2" y="40.7" transform="matrix(0.7071 -0.7071 0.7071 0.7071 -7.1584 68.0521)" class="st9" width="165.6" height="4"/>
			</g>
			<g>
				
					<rect x="6.1" y="51" transform="matrix(0.7071 -0.7071 0.7071 0.7071 -11.4394 78.3867)" class="st9" width="165.6" height="4"/>
			</g>
			<g>
				
					<rect x="16.4" y="61.3" transform="matrix(0.7071 -0.7071 0.7071 0.7071 -15.7204 88.7213)" class="st9" width="165.6" height="4"/>
			</g>
			<g>
				
					<rect x="26.8" y="71.7" transform="matrix(0.7071 -0.7071 0.7071 0.7071 -20.0006 99.056)" class="st9" width="165.6" height="4"/>
			</g>
			<g>
				
					<rect x="37.1" y="82" transform="matrix(0.7071 -0.7071 0.7071 0.7071 -24.2817 109.3906)" class="st9" width="165.6" height="4"/>
			</g>
			<g>
				
					<rect x="47.4" y="92.3" transform="matrix(0.7071 -0.7071 0.7071 0.7071 -28.5627 119.7252)" class="st9" width="165.6" height="4"/>
			</g>
			<g>
				
					<rect x="57.8" y="102.7" transform="matrix(0.7071 -0.7071 0.7071 0.7071 -32.8429 130.0599)" class="st9" width="165.6" height="4"/>
			</g>
		</g>
	</g>
</g>
<g>
	<g>
		<path class="st9" d="M92,35.5h23.1v2.3H94.5v12.5h17v2.3h-17v15.1h21.4v2.3H92V35.5z"/>
		<path class="st9" d="M116.9,70.9H91V34.5h25.1v4.3H95.5v10.5h17v4.3h-17v13.1h21.4V70.9z M93,68.9h21.9v-0.3H93.5V51.5h17v-0.3
			h-17V36.8h20.6v-0.3H93V68.9z"/>
	</g>
	<g>
		<path class="st9" d="M123.3,35.5h15.3c6.7,0,10.5,3.7,10.5,9.1c0,4.9-3,8.4-8.5,9l11.2,16.3H149l-11.2-16.1h-12v16.1h-2.5V35.5z
			 M138.3,51.6c5.2,0,8.2-2.5,8.2-6.9c0-4.4-3-6.9-8.2-6.9h-12.6v13.8H138.3z"/>
		<path class="st9" d="M153.7,70.9h-5.3l-11.2-16.1h-10.5v16.1h-4.5V34.5h16.3c7,0,11.5,4,11.5,10.1c0,5-2.9,8.6-7.8,9.8L153.7,70.9
			z M149.5,68.9h0.4l-11.1-16.1l1.7-0.2c4.8-0.6,7.6-3.5,7.6-8c0-5.1-3.6-8.1-9.5-8.1h-14.3v32.4h0.5V52.8h13.6L149.5,68.9z
			 M138.3,52.6h-13.6V36.8h13.6c5.8,0,9.2,2.9,9.2,7.9C147.6,49.6,144.1,52.6,138.3,52.6z M126.7,50.6h11.6c3.3,0,7.2-1,7.2-5.9
			c0-5.1-4.5-5.9-7.2-5.9h-11.6V50.6z"/>
	</g>
	<g>
		<path class="st9" d="M159.4,35.5h2.5l13.2,17.4l13.2-17.4h2.4v34.4h-2.5V39.3l-12.4,16.3h-1.6l-12.5-16.3v30.6h-2.5V35.5z"/>
		<path class="st9" d="M191.7,70.9h-4.5V42.2l-10.9,14.3h-2.6l-11-14.3v28.6h-4.5V34.5h4l12.7,16.7l12.7-16.7h3.9V70.9z M189.3,68.9
			h0.5V36.5h-0.5V68.9z M160.4,68.9h0.5V36.5h-0.5V68.9z M174.8,54.6h0.6l13.7-18.1h-0.3l-13.7,18l-13.7-18H161L174.8,54.6z"/>
	</g>
	<g>
		<path class="st9" d="M201.3,35.5h2.5v34.4h-2.5V35.5z"/>
		<path class="st9" d="M204.8,70.9h-4.5V34.5h4.5V70.9z M202.3,68.9h0.5V36.5h-0.5V68.9z"/>
	</g>
	<g>
		<path class="st9" d="M214.3,35.5h2.2l23.2,30.1V35.5h2.5v34.4H240l-23.2-30.1v30.1h-2.5V35.5z"/>
		<path class="st9" d="M243.1,70.9h-3.6l-21.7-28.2v28.2h-4.5V34.5h3.7l21.7,28.2V34.5h4.5V70.9z M240.5,68.9h0.6V36.5h-0.5v32
			l-24.7-32h-0.7v32.4h0.5V36.8L240.5,68.9z"/>
	</g>
	<g>
		<path class="st9" d="M264.4,35.3h2.3l15.5,34.6h-2.6l-4.5-10h-19.2l-4.5,10h-2.6L264.4,35.3z M274.2,57.7l-8.7-19.2l-8.7,19.2
			H274.2z"/>
		<path class="st9" d="M283.7,70.9H279l-4.5-10h-17.9l-4.5,10h-4.7l16.5-36.6h3.6L283.7,70.9z M280.3,68.9h0.4L266,36.3h-0.4
			l10.1,22.4h-20.5l10.2-22.4h-0.4l-14.7,32.6h0.4l4.5-10h20.5L280.3,68.9z M258.4,56.7h14.3l-7.1-15.8L258.4,56.7z"/>
	</g>
	<g>
		<path class="st9" d="M288.9,35.5h2.5v32.1h19.9v2.3h-22.3V35.5z"/>
		<path class="st9" d="M312.2,70.9h-24.3V34.5h4.5v32.1h19.9V70.9z M289.9,68.9h20.3v-0.3h-19.9V36.5h-0.5V68.9z"/>
	</g>
</g>
<g>
	<path class="st9" d="M76.7,72.4c-0.7,0-1.3-0.3-1.7-0.9L31.2,5.7c-0.4-0.6-0.4-1.4-0.1-2.1c0.3-0.7,1-1.1,1.8-1.1l0,0l87.6,0
		c0.7,0,1.4,0.4,1.8,1.1c0.3,0.6,0.3,1.4-0.1,2.1l-13.3,20c-0.6,0.9-1.9,1.2-2.8,0.6c-0.9-0.6-1.2-1.9-0.6-2.8l11.3-16.9l-38.1,0
		v63.8c0,0.9-0.6,1.7-1.4,1.9C77.1,72.4,76.9,72.4,76.7,72.4z M36.6,6.6l38.1,57.2V6.6L36.6,6.6z"/>
</g>
</svg>
