<?xml version="1.0" encoding="utf-8"?>
<!-- Generator: Adobe Illustrator 21.0.2, SVG Export Plug-In . SVG Version: 6.00 Build 0)  -->
<svg version="1.1" id="Layer_1" xmlns="http://www.w3.org/2000/svg" xmlns:xlink="http://www.w3.org/1999/xlink" x="0px" y="0px"
	 viewBox="0 0 350 75" style="enable-background:new 0 0 350 75;" xml:space="preserve">
<style type="text/css">
	.st0{fill:#F9F7FB;}
	.st1{fill:#5A67F4;}
	.st2{fill:#F9F7FB;stroke:#F9F7FB;stroke-miterlimit:10;}
	.st3{fill:#27BEBA;}
	.st4{fill:#1B98FC;}
	.st5{fill:#FDBB4F;}
	.st6{fill:#F84D53;}
	.st7{fill:#EE45FC;}
	.st8{clip-path:url(#SVGID_2_);}
	.st9{fill:#FBF5F3;}
	.st10{fill:#F7F6F9;}
	.st11{fill:#FFC857;}
	.st12{fill:#34E5FF;}
	.st13{fill:#4056F4;}
	.st14{fill:#F56376;}
	.st15{fill:#40F99B;}
	.st16{fill:#0C0C0C;}
	.st17{fill:#02F99F;}
	.st18{fill:#3500FB;}
	.st19{fill:#F1F0FD;}
	.st20{fill:#13063B;}
	.st21{fill:#FFD700;}
	.st22{fill:#FFFFFF;}
	.st23{fill:#53146C;}
	.st24{fill:#FDBC2B;}
	.st25{fill:#FC551E;}
	.st26{fill:#39BDEB;}
	.st27{fill:#43CDAC;}
	.st28{fill:#EDF2F4;}
</style>
<path class="st23" d="M49.5,11.1c-2.5,0-4.5,2-4.5,4.5v42.2c0,2.5,2,4.5,4.5,4.5h42.2c2.5,0,4.5-2,4.5-4.5V15.6c0-2.5-2-4.5-4.5-4.5
	H49.5z"/>
<path class="st24" d="M89.1,48.8L89.1,48.8c-0.4,0-0.5-0.2-0.9-0.4l-4.3-4.3l-4.3,4.3c-0.5,0.4-1.1,0.4-1.6,0L55.8,26.3l-4.7,4.7
	c-0.5,0.4-1.3,0.4-1.6-0.2c-0.4-0.4-0.4-1.1,0-1.4l5.4-5.5c0.2-0.2,0.5-0.4,0.7-0.4l0,0c0.4,0,0.5,0.2,0.7,0.4l22.4,22.4l4.3-4.3
	c0.5-0.4,1.1-0.4,1.6,0l4.3,4.3l6.8-6.8c0.5-0.4,1.3-0.4,1.6,0.2c0.4,0.4,0.4,1.1,0,1.4l-7.5,7.5C89.8,48.8,89.4,48.8,89.1,48.8z"/>
<path class="st25" d="M69.7,47.9c-0.4,0-0.5-0.2-0.9-0.4L55.8,34.5l-4.7,4.7c-0.4,0.5-1.1,0.5-1.6,0.2C49,39,49,38.3,49.3,37.7
	l0.2-0.2l5.4-5.5c0.5-0.4,1.1-0.4,1.6,0l14,14c0.4,0.5,0.4,1.3,0,1.6C70.3,47.9,69.9,47.9,69.7,47.9L69.7,47.9z"/>
<path class="st26" d="M61.9,48.5c-0.4,0-0.5-0.2-0.7-0.4l-5.4-5.4l-4.7,4.7c-0.5,0.4-1.3,0.4-1.6-0.2c-0.4-0.4-0.4-1.1,0-1.4
	l5.4-5.5c0.2-0.2,0.5-0.4,0.7-0.4l0,0c0.4,0,0.7,0,1.1,0.4l6.1,6.1c0.4,0.5,0.4,1.3,0,1.6C62.6,48.3,62.4,48.3,61.9,48.5L61.9,48.5z
	"/>
<path class="st27" d="M91.4,64.1H50.1c-3.6,0-6.6-3-6.6-6.6V15.9c0-3.6,3-6.6,6.6-6.6l0,0h41.3c3.6,0,6.6,3,6.6,6.6v41.3
	C98,61,95,64.1,91.4,64.1L91.4,64.1z M50.1,11.6c-2.5,0-4.5,2-4.5,4.3l0,0v41.3c0,2.3,2,4.3,4.3,4.3l0,0h41.3c2.3,0,4.3-2,4.3-4.3
	l0,0V15.9c0-2.3-2-4.3-4.3-4.3l0,0C91.2,11.6,50.1,11.6,50.1,11.6z"/>
<path class="st28" d="M139.2,24.3c0.4,0.4,0.5,0.9,0.5,1.4c0,0.2,0,0.4-0.2,0.7l-7.5,22c0,0.4-0.4,0.5-0.5,0.7
	c-0.4,0.2-0.5,0.4-0.9,0.4c-0.4,0-0.7-0.2-0.9-0.4c-0.4-0.2-0.5-0.5-0.7-0.9l-5.7-13.4l-5.7,13.4c-0.2,0.4-0.4,0.7-0.7,0.9
	c-0.5,0.4-1.4,0.4-2,0c-0.4-0.2-0.5-0.5-0.5-0.7l-7.5-22.2c0-0.2-0.2-0.4-0.2-0.7c0-0.5,0.2-1.1,0.5-1.3c0.4-0.4,0.9-0.5,1.3-0.5
	c0.4,0,0.7,0.2,1.1,0.4c0.4,0.2,0.5,0.5,0.5,0.9l6.1,18.3l5.4-12.9c0.2-0.4,0.4-0.5,0.7-0.7c0.5-0.4,1.4-0.4,2,0
	c0.4,0.2,0.5,0.5,0.7,0.7l5,12.9l6.1-18.3c0-0.4,0.4-0.7,0.5-0.9c0.4-0.2,0.7-0.4,1.1-0.4C138.3,23.8,138.8,24,139.2,24.3z"/>
<path class="st28" d="M158.1,30.6c0.4,0.4,0.5,0.9,0.5,1.3v15.7c0,0.5-0.2,0.9-0.5,1.3s-0.7,0.5-1.3,0.5c-0.5,0-0.9-0.2-1.3-0.5
	c-0.4-0.4-0.5-0.7-0.5-1.3v-0.9c-0.7,0.9-1.6,1.6-2.5,2.1c-1.1,0.5-2.3,0.9-3.6,0.9c-1.6,0-3.2-0.4-4.5-1.3
	c-1.4-0.9-2.5-2.1-3.2-3.6c-1.6-3.2-1.6-7,0-10.2c0.7-1.4,1.8-2.7,3.2-3.6c1.3-0.9,2.9-1.3,4.5-1.3c1.3,0,2.5,0.2,3.6,0.9
	c1.1,0.5,2,1.3,2.7,2.1V32c0-0.5,0.2-0.9,0.5-1.3s0.9-0.5,1.3-0.5C157.2,30.1,157.8,30.2,158.1,30.6z M152.4,45.6
	c0.9-0.5,1.6-1.4,2.1-2.3c0.5-1.1,0.7-2.3,0.7-3.4c0-1.3-0.2-2.3-0.7-3.4c-0.5-0.9-1.3-1.8-2.1-2.5c-0.9-0.7-2-0.9-3-0.9
	s-2.1,0.4-3,0.9c-0.9,0.5-1.6,1.4-2,2.5c-1.1,2.1-1.1,4.7,0,7c0.4,0.9,1.1,1.8,2,2.3C148.3,46.9,150.6,46.9,152.4,45.6z"/>
<path class="st28" d="M166.2,48.8c-0.4,0.4-0.7,0.5-1.3,0.5c-0.5,0-0.9-0.2-1.3-0.5c-0.4-0.4-0.5-0.7-0.5-1.3V24.1
	c0-1.1,0.7-1.8,1.8-1.8c0.5,0,0.9,0.2,1.3,0.5s0.5,0.7,0.5,1.3v23.6C166.7,48.1,166.5,48.5,166.2,48.8z"/>
<path class="st28" d="M174.6,48.8c-0.4,0.4-0.7,0.5-1.3,0.5s-0.9-0.2-1.3-0.5c-0.4-0.4-0.5-0.7-0.5-1.3V24.1c0-1.1,0.7-1.8,1.8-1.8
	c0.5,0,0.9,0.2,1.3,0.5s0.5,0.7,0.5,1.3v23.6C175.1,48.1,175,48.5,174.6,48.8z"/>
<path class="st28" d="M197.7,24.3c0.4,0.4,0.5,0.7,0.5,1.3s-0.2,0.9-0.5,1.3c-0.4,0.4-0.7,0.5-1.3,0.4H190v20.4
	c0,0.5-0.2,0.9-0.5,1.3c-0.7,0.7-2,0.7-2.7,0c-0.4-0.4-0.5-0.7-0.5-1.3V27.2h-6.4c-0.5,0-0.9-0.2-1.3-0.4c-0.4-0.4-0.5-0.7-0.5-1.3
	c0-0.4,0.2-0.9,0.5-1.3c0.4-0.4,0.7-0.5,1.3-0.4h16.6C197,24,197.5,24.1,197.7,24.3z"/>
<path class="st28" d="M214.9,30.6c0.4,0.4,0.5,0.9,0.5,1.3v15.7c0,0.5-0.2,0.9-0.5,1.3s-0.7,0.5-1.3,0.5c-0.5,0-0.9-0.2-1.3-0.5
	c-0.4-0.4-0.5-0.7-0.5-1.3v-0.9c-0.7,0.9-1.6,1.6-2.5,2.1c-1.1,0.5-2.3,0.9-3.6,0.9c-1.6,0-3.2-0.4-4.5-1.3
	c-1.4-0.9-2.5-2.1-3.2-3.6c-1.6-3.2-1.6-7,0-10.2c0.7-1.4,1.8-2.7,3.2-3.6c1.3-0.9,2.9-1.3,4.5-1.3c1.3,0,2.5,0.2,3.6,0.9
	c1.1,0.5,2,1.3,2.7,2v-0.9c0-0.5,0.2-0.9,0.5-1.3s0.7-0.5,1.3-0.5C214,30.1,214.5,30.2,214.9,30.6z M209.1,45.6
	c0.9-0.5,1.6-1.4,2.1-2.3c0.5-1.1,0.7-2.3,0.7-3.4c0-1.3-0.2-2.3-0.7-3.4c-0.5-0.9-1.3-1.8-2.1-2.5c-0.9-0.5-2-0.9-3-0.9
	c-1.1,0-2.1,0.4-3,0.9s-1.6,1.4-2.1,2.3c-1.1,2.1-1.1,4.7,0,7c0.5,0.9,1.3,1.8,2.1,2.3C205,46.9,207.3,46.9,209.1,45.6z"/>
<path class="st28" d="M237.2,30.6c0.4,0.4,0.5,0.9,0.5,1.3v15.9c0,1.8-0.4,3.4-1.3,5c-0.9,1.3-2,2.3-3.4,2.9
	c-1.6,0.7-3.2,0.9-4.8,0.9c-1.1,0-2.3-0.2-3.4-0.5c-0.9-0.2-1.8-0.5-2.5-1.1c-0.7-0.4-1.1-0.9-1.1-1.4c0-0.2,0-0.4,0.2-0.5
	c0.2-0.5,0.7-0.9,1.4-0.9c0.4,0,0.7,0,1.1,0.2c1.4,0.7,3,1.1,4.5,1.1c1.6,0.2,3.2-0.4,4.5-1.4c1.1-1.1,1.6-2.3,1.6-3.8v-2
	c-0.5,1.1-1.4,2-2.5,2.5c-1.1,0.7-2.5,1.1-3.8,1.1c-1.6,0-3.2-0.4-4.7-1.3c-1.4-0.9-2.5-2.1-3.2-3.6c-1.6-3.2-1.6-7,0-10.2
	c0.7-1.4,1.8-2.7,3.2-3.6s2.9-1.3,4.5-1.3c2.5,0,4.8,1.3,6.4,3.2V32c0-0.5,0.2-0.9,0.5-1.3c0.4-0.4,0.7-0.5,1.3-0.5
	C236.3,30.1,236.9,30.2,237.2,30.6z M231.5,45.6c0.9-0.5,1.6-1.4,2.1-2.3c0.5-1.1,0.7-2.3,0.7-3.4c0-1.3-0.2-2.3-0.7-3.4
	c-0.5-0.9-1.3-1.8-2.1-2.3c-0.9-0.5-2-0.9-3.2-0.9c-1.1,0-2.1,0.4-3.2,0.9c-0.9,0.5-1.6,1.4-2.1,2.5c-1.1,2.1-1.1,4.7,0,6.8
	c0.5,1.1,1.3,1.8,2.1,2.5c0.9,0.5,2,0.9,3.2,0.9C229.4,46.5,230.4,46.2,231.5,45.6z"/>
<path class="st28" d="M259.6,30.6c0.4,0.4,0.5,0.9,0.5,1.3v15.9c0,1.8-0.4,3.4-1.3,5c-0.9,1.3-2,2.3-3.4,2.9
	c-1.6,0.7-3.2,0.9-4.8,0.9c-1.1,0-2.3-0.2-3.4-0.5c-0.9-0.2-1.8-0.5-2.5-1.1c-0.7-0.4-1.1-0.9-1.1-1.4c0-0.2,0-0.4,0.2-0.5
	c0.2-0.5,0.7-0.9,1.4-0.9c0.4,0,0.7,0,1.1,0.2c1.4,0.7,3,1.1,4.5,1.1c1.6,0.2,3.2-0.4,4.5-1.4c1.1-1.1,1.6-2.3,1.6-3.8v-2
	c-0.5,1.1-1.4,2-2.5,2.5c-1.1,0.7-2.5,1.1-3.8,1.1c-1.6,0-3.2-0.4-4.7-1.3c-1.4-0.9-2.5-2.1-3.2-3.6c-1.6-3.2-1.6-7,0-10.2
	c0.7-1.4,1.8-2.7,3.2-3.6s2.9-1.3,4.5-1.3c2.5,0,4.8,1.3,6.4,3.2V32c0-0.5,0.2-0.9,0.5-1.3c0.4-0.4,0.7-0.5,1.3-0.5
	C258.9,30.1,259.2,30.2,259.6,30.6z M253.9,45.6c0.9-0.5,1.6-1.4,2.1-2.3c0.5-1.1,0.7-2.3,0.7-3.4c0-1.3-0.2-2.3-0.7-3.4
	c-0.5-0.9-1.3-1.8-2.1-2.3c-0.9-0.5-2-0.9-3.2-0.9c-1.1,0-2.1,0.4-3.2,0.9c-0.9,0.5-1.6,1.4-2.1,2.5c-1.1,2.1-1.1,4.7,0,6.8
	c0.5,1.1,1.3,1.8,2.1,2.5c0.9,0.5,2,0.9,3.2,0.9C251.7,46.5,253,46.2,253.9,45.6z"/>
<path class="st28" d="M281.1,40.3c-0.4,0.4-0.7,0.5-1.3,0.4h-12.9c0.2,1.6,0.9,3.2,2,4.3c1.3,1.1,2.7,1.6,4.3,1.6
	c0.9,0,2-0.2,2.9-0.5c0.7-0.4,1.4-0.7,2-1.3c0.4-0.2,0.7-0.4,1.1-0.4c0.4,0,0.7,0.2,1.1,0.4c0.2,0.4,0.4,0.7,0.4,1.1
	c0,0.5-0.4,1.1-0.7,1.4c-0.7,0.7-1.8,1.4-2.9,1.8c-1.1,0.5-2.3,0.7-3.6,0.7c-1.8,0-3.6-0.4-5.2-1.3c-1.4-0.7-2.7-2-3.4-3.4
	c-0.9-1.6-1.3-3.2-1.3-5c0-1.8,0.4-3.8,1.3-5.4c0.7-1.4,2-2.7,3.4-3.6c2.7-1.6,6.1-1.6,8.8,0c1.4,0.7,2.5,2,3.4,3.2
	c0.9,1.4,1.3,3,1.3,4.7C281.6,39.5,281.4,39.9,281.1,40.3z M269.1,34.2c-1.1,0.9-1.8,2.1-2,3.6h10.7v-0.4c-0.2-1.3-0.7-2.5-1.8-3.2
	c-1.1-0.9-2.3-1.3-3.6-1.3C271.2,33.1,270.2,33.5,269.1,34.2L269.1,34.2z"/>
<path class="st28" d="M301.8,22.9c0.4,0.4,0.5,0.7,0.5,1.3v23.4c0,0.5-0.2,0.9-0.5,1.3c-0.4,0.4-0.7,0.5-1.3,0.5
	c-0.5,0-0.9-0.2-1.3-0.5c-0.4-0.4-0.5-0.7-0.5-1.3v-1.1c-0.7,0.9-1.6,1.6-2.5,2.1c-1.1,0.5-2.3,0.9-3.6,0.9c-1.6,0-3.2-0.4-4.5-1.3
	c-1.4-0.9-2.5-2.1-3.2-3.6c-0.7-1.6-1.3-3.4-1.1-5.2c0-1.8,0.4-3.6,1.1-5.2c0.7-1.4,1.8-2.7,3.2-3.6c2.3-1.4,5.4-1.6,7.9-0.5
	c1.1,0.5,2,1.3,2.7,2.1v-8.2c0-0.5,0.2-0.9,0.5-1.3s0.7-0.5,1.3-0.5C301.1,22.4,301.5,22.5,301.8,22.9z M296.3,45.6
	c0.9-0.5,1.6-1.4,2-2.3c1.1-2.1,1.1-4.7,0-7c-0.5-0.9-1.3-1.8-2.1-2.5c-1.8-1.1-4.3-1.1-6.1,0c-0.9,0.5-1.6,1.4-2.1,2.5
	c-1.1,2.1-1.1,4.7,0,7c0.5,0.9,1.3,1.8,2.1,2.3C292,46.9,294.3,46.9,296.3,45.6z"/>
</svg>
