<?xml version="1.0" encoding="utf-8"?>
<!-- Generator: Adobe Illustrator 21.0.2, SVG Export Plug-In . SVG Version: 6.00 Build 0)  -->
<svg version="1.1" id="Layer_1" xmlns="http://www.w3.org/2000/svg" xmlns:xlink="http://www.w3.org/1999/xlink" x="0px" y="0px"
	 viewBox="0 0 898 300" style="enable-background:new 0 0 898 300;" xml:space="preserve">
<style type="text/css">
	.st0{clip-path:url(#SVGID_2_);}
	.st1{clip-path:url(#SVGID_4_);}
	.st2{fill:#F21F40;}
	.st3{clip-path:url(#SVGID_6_);}
	.st4{clip-path:url(#SVGID_8_);}
	.st5{fill:#00CE83;}
	.st6{fill:#FFC71E;}
	.st7{clip-path:url(#SVGID_10_);}
	.st8{clip-path:url(#SVGID_12_);}
	.st9{clip-path:url(#SVGID_14_);}
	.st10{clip-path:url(#SVGID_16_);}
	.st11{clip-path:url(#SVGID_18_);}
	.st12{clip-path:url(#SVGID_20_);}
	.st13{fill:#2A3268;}
	.st14{clip-path:url(#SVGID_22_);}
	.st15{clip-path:url(#SVGID_24_);}
	.st16{fill:#F8F5F9;}
	.st17{clip-path:url(#SVGID_26_);}
	.st18{clip-path:url(#SVGID_28_);}
	.st19{clip-path:url(#SVGID_30_);}
	.st20{clip-path:url(#SVGID_32_);}
	.st21{fill:#84C7FE;}
	.st22{clip-path:url(#SVGID_34_);}
	.st23{clip-path:url(#SVGID_36_);}
	.st24{clip-path:url(#SVGID_38_);}
	.st25{opacity:0.76;clip-path:url(#SVGID_40_);}
	.st26{fill:#090909;}
	.st27{clip-path:url(#SVGID_42_);}
	.st28{opacity:0.76;clip-path:url(#SVGID_44_);}
	.st29{clip-path:url(#SVGID_46_);}
	.st30{clip-path:url(#SVGID_48_);}
	.st31{clip-path:url(#SVGID_50_);}
	.st32{clip-path:url(#SVGID_52_);}
	.st33{clip-path:url(#SVGID_54_);}
	.st34{clip-path:url(#SVGID_56_);}
	.st35{clip-path:url(#SVGID_58_);}
	.st36{clip-path:url(#SVGID_60_);}
	.st37{fill:#4453AE;}
	.st38{clip-path:url(#SVGID_62_);}
	.st39{clip-path:url(#SVGID_64_);}
	.st40{clip-path:url(#SVGID_66_);}
	.st41{clip-path:url(#SVGID_68_);}
</style>
<g>
	<g>
		<defs>
			<polyline id="SVGID_1_" points="401.7,245.7 394.4,245.7 394.4,249.9 401.8,249.9 			"/>
		</defs>
		<clipPath id="SVGID_2_">
			<use xlink:href="#SVGID_1_"  style="overflow:visible;"/>
		</clipPath>
		<g class="st0">
			<defs>
				<rect id="SVGID_3_" x="-683" y="-37.8" width="3838.2" height="3051.7"/>
			</defs>
			<clipPath id="SVGID_4_">
				<use xlink:href="#SVGID_3_"  style="overflow:visible;"/>
			</clipPath>
			<g class="st1">
				<rect x="391.4" y="242.7" class="st2" width="13.5" height="10.3"/>
			</g>
		</g>
	</g>
	<g>
		<defs>
			<polyline id="SVGID_5_" points="496.9,249.9 504.3,249.9 504.3,245.7 496.8,245.7 			"/>
		</defs>
		<clipPath id="SVGID_6_">
			<use xlink:href="#SVGID_5_"  style="overflow:visible;"/>
		</clipPath>
		<g class="st3">
			<defs>
				<rect id="SVGID_7_" x="-683" y="-37.8" width="3838.2" height="3051.7"/>
			</defs>
			<clipPath id="SVGID_8_">
				<use xlink:href="#SVGID_7_"  style="overflow:visible;"/>
			</clipPath>
			<g class="st4">
				<rect x="493.8" y="242.7" class="st2" width="13.5" height="10.3"/>
			</g>
		</g>
	</g>
	<g>
		<g>
			<path class="st5" d="M42.1,277.2c-8.4,0-14.4-2.5-21.5-6c-3.4-1.7-5.7-3.6-7.2-5.5c-1.6,0-3.3-0.2-5-0.3
				c-17.4-1.7-20.8-0.8-26.9,0.9c-3.8,1-8.5,2.3-17.4,3.5c-15.7,2-20.9,0.2-26.4-1.7c-3.1-1.1-6.3-2.2-12.1-2.8
				c-15.2-1.4-30.7,6.1-30.8,6.1l-3.1-6.3c0.7-0.3,17.4-8.5,34.6-6.8c6.6,0.6,10.4,2,13.7,3.1c5.1,1.8,9.2,3.2,23.2,1.4
				c8.4-1.1,12.9-2.3,16.5-3.3c6.7-1.9,10.8-3,29.5-1.2c0.4,0,0.9,0.1,1.3,0.1c-0.6-5.3,1.6-11.1,6.3-16.2c3.9-4.2,9.4-5.6,14.5-3.6
				c3.9,1.5,6.6,4.6,6.6,7.7c0,0.2,0,0.4,0,0.7c0.1,2.6,0.4,8.6-4.4,13.2c-2.4,2.3-5.6,3.8-9.7,4.7c0,0,0,0,0,0
				c11,5.4,18.3,8.1,39.7,0.9c18.7-6.3,26-10.8,47.4-24.1c3.2-2,6.6-4.1,10.5-6.5c3.4-2.1,6.6-4.1,9.6-6
				c24-15.2,39.9-25.2,81.9-28.2c12.8-0.9,24.2-0.9,34.2-0.9c25.9,0,41.5,0.1,50.3-15.7c13.2-23.6,17.9-47.9,22.5-71.4
				c0.8-4.1,1.3-7.8,1.8-11c2.3-15.9,4.1-22.5,26.3-27l1.4,6.9c-18.3,3.7-18.7,7.1-20.8,21.2c-0.5,3.3-1,7-1.8,11.3
				c-4.7,24-9.5,48.9-23.3,73.5c-10.8,19.3-29.9,19.3-56.4,19.2c-9.9,0-21.1,0-33.6,0.9c-40.2,2.9-54.7,12-78.6,27.2
				c-3.1,1.9-6.3,4-9.7,6.1c-3.8,2.4-7.3,4.5-10.4,6.5C93.1,261,85.1,266,65.6,272.5C55.7,275.8,48.3,277.2,42.1,277.2z M26.4,244.8
				c-1.7,0-3.2,0.7-4.6,2.2c-3.4,3.6-5,7.8-4.4,11c0,0.2,0.1,0.4,0.1,0.6c6.3-0.3,9.4-1.9,11.1-3.5c2.5-2.4,2.3-5.7,2.2-7.7
				c0-0.3,0-0.5,0-0.7c-0.3-0.5-1.6-1.6-3.5-1.8C27,244.8,26.7,244.8,26.4,244.8z"/>
		</g>
	</g>
	<g>
		<g>
			<path class="st5" d="M901.7,251.9c-0.7-0.9-17.2-21.9-48.9-13.6c-3.8,1-7.5,2-11.1,3c-28.3,7.8-50.6,13.9-77.8-2.8
				c-27.6-17-65.2-44.8-91.2-65.1c-16.4-12.9-27.4-27.2-39-42.3c-5-6.6-10.2-13.4-16.1-20.3c-17.3-20.4-35.5-41.3-52.2-51.4l3.6-6
				c17.6,10.7,35.6,31.1,54,52.8c5.9,7,11.2,13.9,16.3,20.5c11.3,14.8,22,28.7,37.8,41.1c25.9,20.3,63.2,47.9,90.6,64.7
				c24.6,15.1,43.6,9.9,72.2,2c3.6-1,7.3-2,11.2-3c36.4-9.6,55.5,15.1,56.3,16.1L901.7,251.9z"/>
		</g>
	</g>
	<g>
		<path class="st6" d="M567.9,57.4c-0.3-0.2-7.5-3.9-7.5-10.4c0-6.1,2.9-7.9,5.6-9.6l0.5-0.3L567,38l-0.5,0.3
			c-2.6,1.6-5.1,3.1-5.1,8.7c0,5.9,6.9,9.4,7,9.5L567.9,57.4z"/>
	</g>
	<g>
		<path class="st6" d="M568,59c-0.1,0-8.5-3.2-9.6-12.7c-0.1-1.2-0.3-2.3-0.4-3.4c-0.7-6.6-1-9.4-7.3-19.1l0.8-0.5
			c6.5,9.9,6.8,12.9,7.5,19.6c0.1,1,0.2,2.1,0.4,3.3c1,8.8,8.9,11.8,9,11.8L568,59z"/>
	</g>
	<g>
		<path class="st6" d="M569.2,57.9c0,0-2.8-4.8-7.9-7.2l-1.1-0.5c-4.4-2-5.2-2.3-6.8-6.8c-1.6-4.4-3.7-6.9-5.7-9.2l0.7-0.7
			c2.1,2.3,4.3,4.9,5.9,9.5c1.4,4.1,1.9,4.3,6.3,6.2l1.1,0.5c5.5,2.4,8.3,7.4,8.4,7.6L569.2,57.9z"/>
	</g>
	<g>
		<path class="st6" d="M570.4,59.1c-0.1-0.1-5.7-7.9-12-9.1c-1.1-0.2-2.1-0.4-3-0.5c-4.6-0.8-7.1-1.2-9.3-5.3
			c-2.5-4.6-3.4-6.9-3.5-7l0.9-0.4c0,0,1,2.3,3.4,6.9c2,3.6,4,4,8.5,4.8c0.9,0.2,1.9,0.3,3,0.5c6.7,1.3,12.3,9.2,12.6,9.5
			L570.4,59.1z"/>
	</g>
	<g>
		<path class="st6" d="M569.9,59.9c-1.6-2.9-6.6-10.3-10.1-9.6c-4.3,0.9-7,5.9-7,6l-0.9-0.5c0.1-0.2,2.9-5.4,7.7-6.5
			c4.9-1,10.9,9.6,11.2,10.1L569.9,59.9z"/>
	</g>
	<g>
		<defs>
			<path id="SVGID_9_" d="M388.9,95.5c0-6.4,5.2-11.6,11.6-11.6h96.9c6.4,0,11.6,5.2,11.6,11.6V190c0,6.4-5.2,11.6-11.6,11.6h-96.9
				c-6.4,0-11.6-5.2-11.6-11.6V95.5z"/>
		</defs>
		<clipPath id="SVGID_10_">
			<use xlink:href="#SVGID_9_"  style="overflow:visible;"/>
		</clipPath>
		<g class="st7">
			<defs>
				<rect id="SVGID_11_" x="-683" y="-36.8" width="3838.2" height="3051.7"/>
			</defs>
			<clipPath id="SVGID_12_">
				<use xlink:href="#SVGID_11_"  style="overflow:visible;"/>
			</clipPath>
			<g class="st8">
				<rect x="385.9" y="80.9" class="st6" width="126.2" height="123.8"/>
			</g>
		</g>
	</g>
	<g>
		<defs>
			<polyline id="SVGID_13_" points="377.2,130 349.7,113.6 347.9,93.9 359.1,84.2 363.3,65.9 351.6,83.1 350.2,76.4 359.7,65.6 
				343.1,73.5 340.2,123 337.7,126.1 343,129.7 345.3,127.1 345.7,124.2 347.3,128.6 377.1,152.6 			"/>
		</defs>
		<clipPath id="SVGID_14_">
			<use xlink:href="#SVGID_13_"  style="overflow:visible;"/>
		</clipPath>
		<g class="st9">
			<defs>
				<rect id="SVGID_15_" x="-683" y="-36.8" width="3838.2" height="3051.7"/>
			</defs>
			<clipPath id="SVGID_16_">
				<use xlink:href="#SVGID_15_"  style="overflow:visible;"/>
			</clipPath>
			<g class="st10">
				<rect x="334.7" y="62.6" class="st2" width="45.6" height="93"/>
			</g>
		</g>
	</g>
	<g>
		<defs>
			<polyline id="SVGID_17_" points="521.2,135.9 549.3,111.8 560.3,85.5 552.5,67.6 559.2,51.5 558.1,64.8 563.3,72.5 565.7,55.3 
				563.1,46.7 573.5,57.1 561.1,118.4 558.1,122.7 560.1,129.9 553.7,132.8 553.1,126.9 553,124.2 521.3,168.8 			"/>
		</defs>
		<clipPath id="SVGID_18_">
			<use xlink:href="#SVGID_17_"  style="overflow:visible;"/>
		</clipPath>
		<g class="st11">
			<defs>
				<rect id="SVGID_19_" x="-683" y="-36.8" width="3838.2" height="3051.7"/>
			</defs>
			<clipPath id="SVGID_20_">
				<use xlink:href="#SVGID_19_"  style="overflow:visible;"/>
			</clipPath>
			<g class="st12">
				<rect x="518.2" y="43.7" class="st2" width="58.4" height="128.1"/>
			</g>
		</g>
	</g>
	<g>
		<g>
			<polygon class="st13" points="485.6,187.2 475.8,165.7 466.1,182.9 453.8,163.7 448.2,177.3 441.3,162.6 435.5,170.1 
				430.8,160.8 418.2,180.7 398,159.8 389.6,166.8 385.8,162.3 398.4,151.6 417.2,171 431.4,148.6 436.6,159 442.6,151.2 
				447.8,162.3 452.6,150.7 465.8,171.3 476.3,152.5 487,175.7 497.9,161.7 513.2,174.8 509.3,179.4 498.8,170.3 			"/>
		</g>
	</g>
	<g>
		<defs>
			<circle id="SVGID_21_" cx="419.1" cy="119" r="24.7"/>
		</defs>
		<clipPath id="SVGID_22_">
			<use xlink:href="#SVGID_21_"  style="overflow:visible;"/>
		</clipPath>
		<g class="st14">
			<defs>
				<rect id="SVGID_23_" x="-683" y="-36.8" width="3838.2" height="3051.7"/>
			</defs>
			<clipPath id="SVGID_24_">
				<use xlink:href="#SVGID_23_"  style="overflow:visible;"/>
			</clipPath>
			<g class="st15">
				<rect x="391.4" y="91.2" class="st16" width="55.5" height="55.5"/>
			</g>
		</g>
	</g>
	<g>
		<defs>
			<circle id="SVGID_25_" cx="477.6" cy="119" r="24.7"/>
		</defs>
		<clipPath id="SVGID_26_">
			<use xlink:href="#SVGID_25_"  style="overflow:visible;"/>
		</clipPath>
		<g class="st17">
			<defs>
				<rect id="SVGID_27_" x="-683" y="-36.8" width="3838.2" height="3051.7"/>
			</defs>
			<clipPath id="SVGID_28_">
				<use xlink:href="#SVGID_27_"  style="overflow:visible;"/>
			</clipPath>
			<g class="st18">
				<rect x="449.9" y="91.2" class="st16" width="55.5" height="55.5"/>
			</g>
		</g>
	</g>
	<g>
		<defs>
			<circle id="SVGID_29_" cx="419.1" cy="119" r="17.4"/>
		</defs>
		<use xlink:href="#SVGID_29_"  style="overflow:visible;fill-rule:evenodd;clip-rule:evenodd;fill:#84C7FE;"/>
		<clipPath id="SVGID_30_">
			<use xlink:href="#SVGID_29_"  style="overflow:visible;"/>
		</clipPath>
		<g class="st19">
			<defs>
				<rect id="SVGID_31_" x="-683" y="-36.8" width="3838.2" height="3051.7"/>
			</defs>
			<use xlink:href="#SVGID_31_"  style="overflow:visible;fill:#84C7FE;"/>
			<clipPath id="SVGID_32_">
				<use xlink:href="#SVGID_31_"  style="overflow:visible;"/>
			</clipPath>
			<g class="st20">
				<rect x="398.7" y="98.6" class="st21" width="40.9" height="40.9"/>
			</g>
		</g>
	</g>
	<g>
		<defs>
			<circle id="SVGID_33_" cx="477.6" cy="119" r="17.4"/>
		</defs>
		<clipPath id="SVGID_34_">
			<use xlink:href="#SVGID_33_"  style="overflow:visible;"/>
		</clipPath>
		<g class="st22">
			<defs>
				<rect id="SVGID_35_" x="-683" y="-36.8" width="3838.2" height="3051.7"/>
			</defs>
			<clipPath id="SVGID_36_">
				<use xlink:href="#SVGID_35_"  style="overflow:visible;"/>
			</clipPath>
			<g class="st23">
				<rect x="457.2" y="98.6" class="st21" width="40.9" height="40.9"/>
			</g>
		</g>
	</g>
	<g>
		<defs>
			<circle id="SVGID_37_" cx="419.1" cy="119" r="5.8"/>
		</defs>
		<use xlink:href="#SVGID_37_"  style="overflow:visible;fill-rule:evenodd;clip-rule:evenodd;fill:#090909;"/>
		<clipPath id="SVGID_38_">
			<use xlink:href="#SVGID_37_"  style="overflow:visible;"/>
		</clipPath>
		<g class="st24">
			<defs>
				<rect id="SVGID_39_" x="-683" y="-36.8" width="3838.2" height="3051.7"/>
			</defs>
			<use xlink:href="#SVGID_39_"  style="overflow:visible;fill:#090909;"/>
			<clipPath id="SVGID_40_">
				<use xlink:href="#SVGID_39_"  style="overflow:visible;"/>
			</clipPath>
			<g class="st25">
				<rect x="410.3" y="110.1" class="st26" width="17.7" height="17.7"/>
			</g>
		</g>
	</g>
	<g>
		<defs>
			<circle id="SVGID_41_" cx="477.6" cy="119" r="5.8"/>
		</defs>
		<use xlink:href="#SVGID_41_"  style="overflow:visible;fill-rule:evenodd;clip-rule:evenodd;fill:#090909;"/>
		<clipPath id="SVGID_42_">
			<use xlink:href="#SVGID_41_"  style="overflow:visible;"/>
		</clipPath>
		<g class="st27">
			<defs>
				<rect id="SVGID_43_" x="-683" y="-36.8" width="3838.2" height="3051.7"/>
			</defs>
			<use xlink:href="#SVGID_43_"  style="overflow:visible;fill:#090909;"/>
			<clipPath id="SVGID_44_">
				<use xlink:href="#SVGID_43_"  style="overflow:visible;"/>
			</clipPath>
			<g class="st28">
				<rect x="468.8" y="110.1" class="st26" width="17.7" height="17.7"/>
			</g>
		</g>
	</g>
	<g>
		<defs>
			<path id="SVGID_45_" d="M397.5,107.7c4.1-8,12.4-13.4,22-13.4c9.5,0,17.8,5.4,21.9,13.3c-19.3-11.4-40.7-1.4-43.8,0.1
				L397.5,107.7z"/>
		</defs>
		<use xlink:href="#SVGID_45_"  style="overflow:visible;fill-rule:evenodd;clip-rule:evenodd;fill:#2A3268;"/>
		<clipPath id="SVGID_46_">
			<use xlink:href="#SVGID_45_"  style="overflow:visible;"/>
		</clipPath>
		<g class="st29">
			<defs>
				<rect id="SVGID_47_" x="-683" y="-36.8" width="3838.2" height="3051.7"/>
			</defs>
			<use xlink:href="#SVGID_47_"  style="overflow:visible;fill:#2A3268;"/>
			<clipPath id="SVGID_48_">
				<use xlink:href="#SVGID_47_"  style="overflow:visible;"/>
			</clipPath>
			<g class="st30">
				<rect x="394.4" y="91.2" class="st2" width="50" height="19.6"/>
			</g>
		</g>
	</g>
	<g>
		<defs>
			<path id="SVGID_49_" d="M456,107.7c4.1-8,12.4-13.4,22-13.4c9.5,0,17.8,5.4,21.9,13.3c-19.3-11.4-40.7-1.4-43.8,0.1L456,107.7z"
				/>
		</defs>
		<use xlink:href="#SVGID_49_"  style="overflow:visible;fill-rule:evenodd;clip-rule:evenodd;fill:#2A3268;"/>
		<clipPath id="SVGID_50_">
			<use xlink:href="#SVGID_49_"  style="overflow:visible;"/>
		</clipPath>
		<g class="st31">
			<defs>
				<rect id="SVGID_51_" x="-683" y="-36.8" width="3838.2" height="3051.7"/>
			</defs>
			<use xlink:href="#SVGID_51_"  style="overflow:visible;fill:#2A3268;"/>
			<clipPath id="SVGID_52_">
				<use xlink:href="#SVGID_51_"  style="overflow:visible;"/>
			</clipPath>
			<g class="st32">
				<rect x="452.9" y="91.2" class="st2" width="50" height="19.6"/>
			</g>
		</g>
	</g>
	<g>
		<defs>
			<path id="SVGID_53_" d="M401.8,243.4c0,0-1.5-10.2,15.7-30.8l63.4,0.3c16.7,20.2,15.2,30.5,15.2,30.5l-94,0"/>
		</defs>
		<clipPath id="SVGID_54_">
			<use xlink:href="#SVGID_53_"  style="overflow:visible;"/>
		</clipPath>
		<g class="st33">
			<defs>
				<rect id="SVGID_55_" x="-683" y="-36.8" width="3838.2" height="3051.7"/>
			</defs>
			<clipPath id="SVGID_56_">
				<use xlink:href="#SVGID_55_"  style="overflow:visible;"/>
			</clipPath>
			<g class="st34">
				<rect x="398.7" y="209.5" class="st2" width="100.4" height="36.9"/>
			</g>
		</g>
	</g>
	<g>
		<defs>
			<path id="SVGID_57_" d="M401.1,244.5c0-7.7,6.3-14,14-14h67.7c7.7,0,14,6.3,14,14v6.7c0,7.7-6.3,14-14,14h-67.7
				c-7.7,0-14-6.3-14-14V244.5z"/>
		</defs>
		<clipPath id="SVGID_58_">
			<use xlink:href="#SVGID_57_"  style="overflow:visible;"/>
		</clipPath>
		<g class="st35">
			<defs>
				<rect id="SVGID_59_" x="-683" y="-37.8" width="3838.2" height="3051.7"/>
			</defs>
			<clipPath id="SVGID_60_">
				<use xlink:href="#SVGID_59_"  style="overflow:visible;"/>
			</clipPath>
			<g class="st36">
				<rect x="398.1" y="227.4" class="st37" width="101.8" height="40.9"/>
			</g>
		</g>
	</g>
	<g>
		<path class="st6" d="M348.4,79.9c-0.6,0-1-0.2-1.1-0.2l0.5-0.9c0,0,1.9,0.9,5.8-2.9c2.7-2.5,2.5-4.8,2.3-7
			c-0.1-1.2-0.2-2.5,0.2-3.7c1.1-3.3,6-7,6.3-7.2l0.6,0.8c0,0-4.9,3.6-5.9,6.7c-0.3,1-0.3,2.1-0.2,3.3c0.2,2.3,0.4,4.9-2.6,7.8
			C351.4,79.4,349.5,79.9,348.4,79.9z"/>
	</g>
	<g>
		<path class="st6" d="M346.9,79.3l-0.1-1c0.1,0,5.6-0.8,7.5-3.4c2-2.6,0.8-6.7-0.5-9.9c-1.5-3.9-0.7-9.9,1.1-13.5l0.9,0.4
			c-1.6,3.3-2.5,9.1-1,12.7c1.4,3.5,2.7,7.9,0.4,10.9C352.9,78.4,347.1,79.3,346.9,79.3z"/>
	</g>
	<g>
		<path class="st6" d="M347.5,79.7l-0.2-1c0.1,0,6.6-1.2,8.4-4.3c0.9-1.6,1.1-3.4,0.4-5c-0.8-1.9-2.7-3.2-5.6-3.9
			c-8-1.9-9.7-5.6-9.7-8.3h1c0,3.4,3.1,6,9,7.4c4,0.9,5.6,2.9,6.3,4.4c0.8,1.8,0.6,4-0.5,5.9C354.5,78.4,347.8,79.6,347.5,79.7z"/>
	</g>
	<g>
		<path class="st6" d="M347.5,79.6L347.5,79.6l0-1c0,0,0,0,0,0c0.3,0,5.6-0.1,7.7-4.8c0.6-1.4,0.7-2.6,0.2-3.3
			c-0.9-1.4-3.7-1.6-6.3-1.6l-0.7,0c-3.4,0-10.4,0.1-14.3-4.1c-2.1-2.3-3.1-5.5-2.9-9.5l1,0.1c-0.2,3.7,0.6,6.7,2.6,8.7
			c3.7,3.9,10.4,3.8,13.6,3.8l0.7,0c3,0,6,0.2,7.2,2c0.7,1,0.6,2.5-0.1,4.2C353.7,79.6,347.6,79.6,347.5,79.6z"/>
	</g>
	<g>
		<defs>
			<polyline id="SVGID_61_" points="377.2,130 349.7,113.6 347.9,93.9 359.1,84.2 363.3,65.9 351.6,83.1 350.2,76.4 347.5,73.2 
				343.1,73.5 340.2,123 337.7,126.1 343,129.7 345.3,127.1 345.7,124.2 347.3,128.6 377.1,152.6 			"/>
		</defs>
		<clipPath id="SVGID_62_">
			<use xlink:href="#SVGID_61_"  style="overflow:visible;"/>
		</clipPath>
		<g class="st38">
			<defs>
				<rect id="SVGID_63_" x="-683" y="-36.8" width="3838.2" height="3051.7"/>
			</defs>
			<clipPath id="SVGID_64_">
				<use xlink:href="#SVGID_63_"  style="overflow:visible;"/>
			</clipPath>
			<g class="st39">
				<rect x="334.7" y="62.6" class="st2" width="45.6" height="93"/>
			</g>
		</g>
	</g>
	<g>
		<defs>
			<path id="SVGID_65_" d="M388.9,95.5c0-6.4,5.2-11.6,11.6-11.6h96.9c6.4,0,11.6,5.2,11.6,11.6V190c0,6.4-5.2,11.6-11.6,11.6h-96.9
				c-6.4,0-11.6-5.2-11.6-11.6V95.5z M376.7,83.3c0-6.4,5.2-11.6,11.6-11.6h121.3c6.4,0,11.6,5.2,11.6,11.6v118.3
				c0,6.4-5.2,11.6-11.6,11.6H388.3c-6.4,0-11.6-5.2-11.6-11.6V83.3z"/>
		</defs>
		<clipPath id="SVGID_66_">
			<use xlink:href="#SVGID_65_"  style="overflow:visible;"/>
		</clipPath>
		<g class="st40">
			<defs>
				<rect id="SVGID_67_" x="-683" y="-36.8" width="3838.2" height="3051.7"/>
			</defs>
			<clipPath id="SVGID_68_">
				<use xlink:href="#SVGID_67_"  style="overflow:visible;"/>
			</clipPath>
			<g class="st41">
				<rect x="373.7" y="68.7" class="st2" width="150.6" height="147.6"/>
			</g>
		</g>
	</g>
	<g>
		<path class="st2" d="M481.8,249c-0.1,4.7-0.1,9.6-2.8,16.2h3.2c2.5-6.5,2.5-11.5,2.6-16.2l0-0.8c0.2-11.6-3.5-18.7-3.7-19
			l-2.7,1.4c0,0.1,3.5,6.7,3.3,17.6L481.8,249z"/>
	</g>
	<g>
		<path class="st2" d="M467.4,249c-0.1,4.7-0.1,9.6-2.8,16.2h3.2c2.5-6.5,2.5-11.5,2.6-16.2l0-0.8c0.2-11.6-3.5-18.7-3.7-19
			l-2.7,1.4c0,0.1,3.5,6.7,3.3,17.6L467.4,249z"/>
	</g>
	<g>
		<rect x="448.4" y="229.3" class="st2" width="3" height="36"/>
	</g>
	<g>
		<path class="st2" d="M434.7,265.2c-1-2.4-2.9-8.2-2.8-16.4l0-0.8c0.1-5,0.1-10.2,3.3-17.5l-2.7-1.2c-3.5,7.8-3.5,13.3-3.6,18.7
			l0,0.8c-0.1,7.7,1.5,13.4,2.6,16.4H434.7z"/>
	</g>
	<g>
		<path class="st2" d="M420.2,265.2c-1-2.4-2.9-8.2-2.8-16.4l0-0.8c0.1-5,0.1-10.2,3.3-17.5l-2.7-1.2c-3.5,7.8-3.5,13.3-3.6,18.7
			l0,0.8c-0.1,7.7,1.5,13.4,2.6,16.4H420.2z"/>
	</g>
</g>
</svg>
