<?xml version="1.0" encoding="UTF-8"?>
<svg width="904px" height="254px" viewBox="0 0 904 254" version="1.1" xmlns="http://www.w3.org/2000/svg" xmlns:xlink="http://www.w3.org/1999/xlink">
    <!-- Generator: Sketch 42 (36781) - http://www.bohemiancoding.com/sketch -->
    <title>Group</title>
    <desc>Created with Sketch.</desc>
    <defs>
        <rect id="path-1" x="0" y="0" width="904" height="356"></rect>
        <path d="M12.474,0.073 C6.079,0.073 0.889,5.259 0.889,11.658 L0.889,106.163 C0.889,112.559 6.075,117.749 12.474,117.749 L109.419,117.749 C115.814,117.749 121.004,112.562 121.004,106.163 L121.004,11.658 C121.004,5.262 115.817,0.073 109.419,0.073 L12.474,0.073 Z" id="path-3"></path>
        <polygon id="path-5" points="6.097 8.678 3.156 58.098 0.673 61.215 6.013 64.868 8.306 62.231 8.673 59.348 10.317 63.746 40.029 87.695 40.169 65.101 12.721 48.757 10.893 29.072 22.043 19.371 26.295 1.01 14.61 18.258 13.125 11.549 22.72 0.781"></polygon>
        <polygon id="path-7" points="44.69 9.412 42.286 26.655 37.056 18.915 38.165 5.653 31.45 21.771 39.277 39.622 28.268 65.896 0.198 90.084 0.241 122.906 32.009 78.35 32.067 81.085 32.696 86.897 39.074 84.039 37.072 76.833 40.044 72.578 52.479 11.239 42.062 0.879"></polygon>
        <path d="M0.377,25.132 C0.377,38.77 11.432,49.825 25.07,49.825 C38.708,49.825 49.763,38.77 49.763,25.132 C49.763,11.495 38.708,0.438 25.07,0.438 C11.432,0.438 0.377,11.495 0.377,25.132 Z" id="path-9"></path>
        <path d="M0.909,25.132 C0.909,38.77 11.966,49.825 25.604,49.825 C39.241,49.825 50.297,38.77 50.297,25.132 C50.297,11.495 39.241,0.438 25.604,0.438 C11.966,0.438 0.909,11.495 0.909,25.132 Z" id="path-11"></path>
        <path d="M0.693,18.132 C0.693,27.73 8.473,35.509 18.07,35.509 C27.668,35.509 35.447,27.73 35.447,18.132 C35.447,8.535 27.668,0.755 18.07,0.755 C8.473,0.755 0.693,8.535 0.693,18.132 Z" id="path-13"></path>
        <path d="M0.693,18.132 C0.693,27.729 8.473,35.509 18.07,35.509 C27.668,35.509 35.447,27.729 35.447,18.132 C35.447,8.535 27.668,0.754 18.07,0.754 C8.473,0.754 0.693,8.535 0.693,18.132 Z" id="path-15"></path>
        <path d="M0.226,18.132 C0.226,27.729 8.007,35.509 17.604,35.509 C27.2,35.509 34.98,27.729 34.98,18.132 C34.98,8.535 27.2,0.754 17.604,0.754 C8.007,0.754 0.226,8.535 0.226,18.132 Z" id="path-17"></path>
        <path d="M0.278,6.132 C0.278,9.331 2.871,11.924 6.07,11.924 C9.269,11.924 11.863,9.331 11.863,6.132 C11.863,2.933 9.269,0.34 6.07,0.34 C2.871,0.34 0.278,2.933 0.278,6.132 Z" id="path-19"></path>
        <path d="M0.278,6.132 C0.278,9.331 2.871,11.925 6.07,11.925 C9.269,11.925 11.863,9.331 11.863,6.132 C11.863,2.933 9.269,0.34 6.07,0.34 C2.871,0.34 0.278,2.933 0.278,6.132 Z" id="path-21"></path>
        <path d="M0.811,6.132 C0.811,9.331 3.403,11.924 6.603,11.924 C9.802,11.924 12.396,9.331 12.396,6.132 C12.396,2.933 9.802,0.34 6.603,0.34 C3.403,0.34 0.811,2.933 0.811,6.132 Z" id="path-23"></path>
        <path d="M0.811,6.132 C0.811,9.331 3.404,11.925 6.604,11.925 C9.802,11.925 12.396,9.331 12.396,6.132 C12.396,2.933 9.802,0.34 6.604,0.34 C3.404,0.34 0.811,2.933 0.811,6.132 Z" id="path-25"></path>
        <path d="M0.426,13.881 L0.533,13.913 C3.61,12.359 25.021,2.331 44.344,13.771 C40.232,5.85 31.955,0.439 22.413,0.439 C12.827,0.439 4.517,5.9 0.426,13.881 Z" id="path-27"></path>
        <path d="M0.426,13.882 L0.534,13.913 C3.61,12.36 25.021,2.33 44.344,13.772 C40.232,5.851 31.955,0.438 22.413,0.438 C12.827,0.438 4.518,5.9 0.426,13.882 Z" id="path-29"></path>
        <path d="M0.959,13.881 L1.067,13.913 C4.143,12.359 25.554,2.331 44.878,13.771 C40.766,5.85 32.487,0.439 22.946,0.439 C13.36,0.439 5.05,5.9 0.959,13.881 Z" id="path-31"></path>
        <path d="M0.959,13.882 L1.067,13.913 C4.144,12.36 25.554,2.33 44.878,13.772 C40.766,5.851 32.488,0.438 22.946,0.438 C13.36,0.438 5.05,5.9 0.959,13.882 Z" id="path-33"></path>
        <path d="M0.725,31.516 L0.997,31.514 L95.007,31.516 C95.007,31.516 96.478,21.271 79.796,1.03 L16.384,0.723 C-0.747,21.271 0.725,31.516 0.725,31.516 Z" id="path-35"></path>
        <path d="M14.105,0.625 C6.364,0.625 0.084,6.903 0.084,14.648 L0.084,21.357 C0.084,29.105 6.361,35.379 14.105,35.379 L81.788,35.379 C89.529,35.379 95.809,29.101 95.809,21.357 L95.809,14.648 C95.809,6.899 89.532,0.625 81.788,0.625 L14.105,0.625 Z" id="path-37"></path>
        <polygon id="path-39" points="14.61 17.258 13.125 10.549 10.484 7.39 6.097 7.678 3.156 57.098 0.673 60.215 6.013 63.868 8.306 61.231 8.673 58.348 10.317 62.746 40.029 86.695 40.169 64.101 12.721 47.757 10.893 28.072 22.043 18.371 26.295 0.01"></polygon>
        <path d="M12.276,0.879 C5.881,0.879 0.695,6.065 0.695,12.461 L0.695,130.75 C0.695,137.153 5.88,142.333 12.276,142.333 L133.616,142.333 C140.013,142.333 145.198,137.148 145.198,130.75 L145.198,12.461 C145.198,6.059 140.014,0.879 133.616,0.879 L12.276,0.879 Z M12.889,119.163 L12.889,24.658 C12.889,18.259 18.079,13.073 24.474,13.073 L121.419,13.073 C127.817,13.073 133.004,18.262 133.004,24.658 L133.004,119.163 C133.004,125.562 127.814,130.749 121.419,130.749 L24.474,130.749 C18.075,130.749 12.889,125.559 12.889,119.163 Z" id="path-41"></path>
    </defs>
    <g id="Page-1" stroke="none" stroke-width="1" fill="none" fill-rule="evenodd">
        <g id="Group" transform="translate(0.000000, -22.000000)">
            <g id="Page-1">
                <mask id="mask-2" fill="white">
                    <use xlink:href="#path-1"></use>
                </mask>
                <g id="Mask"></g>
                <g mask="url(#mask-2)">
                    <g transform="translate(-105.000000, 21.000000)">
                        <polygon id="Fill-1" fill="#F21F40" points="503.3765 223.5174 503.3765 227.7094 510.8125 227.7094 510.7115 223.5174"></polygon>
                        <polygon id="Fill-2" fill="#F21F40" points="605.8091 223.5174 605.9101 227.7094 613.2441 227.7094 613.2441 223.5174"></polygon>
                        <g id="Group-17" stroke-width="1" fill="none" transform="translate(0.000000, 0.650000)">
                            <path d="M135.36,221.9412 C133.692,221.9412 132.153,222.6902 130.774,224.1772 C127.39,227.8272 125.731,231.9512 126.337,235.2082 C126.371,235.3932 126.413,235.5782 126.463,235.7592 C132.734,235.4442 135.91,233.8272 137.516,232.2932 C140.022,229.9012 139.854,226.5472 139.754,224.5452 C139.741,224.2892 139.73,224.0562 139.724,223.8512 C139.381,223.3542 138.096,222.2982 136.266,222.0122 C135.961,221.9642 135.658,221.9412 135.36,221.9412 M151.078,254.3272 C142.727,254.3272 136.671,251.8192 129.568,248.3352 C126.204,246.6832 123.915,244.7422 122.365,242.7892 C120.777,242.7402 119.11,242.6302 117.361,242.4612 C99.946,240.7702 96.568,241.7042 90.435,243.3952 C86.648,244.4402 81.936,245.7402 73.006,246.8992 C57.341,248.9312 52.125,247.0962 46.601,245.1532 C43.497,244.0612 40.286,242.9312 34.53,242.3882 C19.37,240.9632 3.839,248.4622 3.683,248.5382 L0.596,242.2552 C1.299,241.9092 18.01,233.8002 35.188,235.4202 C41.798,236.0432 45.585,237.3752 48.924,238.5502 C54.047,240.3532 58.093,241.7772 72.106,239.9582 C80.547,238.8622 84.998,237.6342 88.574,236.6482 C95.285,234.7962 99.338,233.6802 118.037,235.4942 C118.473,235.5362 118.901,235.5742 119.319,235.6072 C118.678,230.3282 120.949,224.4792 125.641,219.4182 C129.579,215.1702 135,213.8372 140.144,215.8562 C144.076,217.3982 146.718,220.4802 146.718,223.5242 C146.718,223.7042 146.732,223.9292 146.745,224.1942 C146.874,226.7542 147.174,232.7522 142.349,237.3572 C139.961,239.6362 136.745,241.1972 132.649,242.0482 C132.65,242.0482 132.651,242.0492 132.651,242.0492 C143.666,247.4552 150.942,250.1612 172.373,242.9932 C191.111,236.7272 198.332,232.2362 219.767,218.9052 C222.923,216.9422 226.381,214.7922 230.219,212.4212 C233.613,210.3272 236.796,208.3162 239.839,206.3942 C263.86,191.2222 279.729,181.2002 321.709,178.1702 C334.518,177.2462 345.863,177.2652 355.866,177.2792 C381.775,177.3052 397.409,177.3452 406.18,161.6212 C419.359,137.9972 424.099,113.7282 428.684,90.2572 C429.495,86.1092 430.018,82.4942 430.48,79.3052 C432.78,63.4312 434.597,56.8082 456.797,52.2762 L458.198,59.1352 C439.935,62.8632 439.45,66.2122 437.408,80.3092 C436.934,83.5782 436.397,87.2822 435.558,91.5812 C430.865,115.6082 426.015,140.4332 412.294,165.0312 C401.515,184.3512 382.372,184.3252 355.855,184.2792 C345.965,184.2642 334.764,184.2472 322.213,185.1522 C281.984,188.0552 267.528,197.1852 243.578,212.3122 C240.514,214.2472 237.312,216.2702 233.897,218.3782 C230.065,220.7442 226.615,222.8902 223.464,224.8492 C202.103,238.1342 194.11,243.1052 174.593,249.6312 C164.624,252.9652 157.228,254.3272 151.078,254.3272" id="Fill-3" fill="#00CE83"></path>
                            <path d="M1010.6598,229.0701 C1009.9728,228.1711 993.4528,207.1491 961.7128,215.4971 C957.8778,216.5061 954.1928,217.5191 950.6318,218.4981 C922.3748,226.2671 900.0568,232.4041 872.8688,215.7071 C845.2608,198.7521 807.6338,170.9401 781.6258,150.5671 C765.1928,137.6961 754.2308,123.4001 742.6258,108.2651 C737.5898,101.6991 732.3838,94.9081 726.5448,87.9991 C709.2648,67.5491 690.9978,46.7381 674.2988,36.6301 L677.9238,30.6411 C695.5428,41.3061 713.5058,61.7211 731.8918,83.4811 C737.8368,90.5171 743.0958,97.3751 748.1808,104.0061 C759.5078,118.7781 770.2078,132.7321 785.9418,145.0571 C811.7988,165.3111 849.1748,192.9401 876.5328,209.7421 C901.1278,224.8461 920.0838,219.6371 948.7758,211.7491 C952.3608,210.7631 956.0708,209.7431 959.9308,208.7271 C996.3238,199.1461 1015.4428,223.7891 1016.2388,224.8421 L1010.6598,229.0701 Z" id="Fill-5" fill="#00CE83"></path>
                            <path d="M676.8453,34.5642 C676.5383,34.4082 669.3293,30.6672 669.3293,24.2012 C669.3293,18.0762 672.1853,16.3282 674.9473,14.6362 L675.4783,14.3092 L676.0053,15.1592 L675.4693,15.4892 C672.8253,17.1082 670.3293,18.6362 670.3293,24.2012 C670.3293,30.0602 677.2293,33.6372 677.2983,33.6732 L676.8453,34.5642 Z" id="Fill-7" fill="#FFC71E"></path>
                            <path d="M676.9508,36.1345 C676.8658,36.1035 668.4298,32.9085 667.3178,23.4665 C667.1728,22.2315 667.0588,21.1215 666.9558,20.1015 C666.2788,13.4535 665.9988,10.7015 659.6558,0.9845 L660.4938,0.4375 C666.9688,10.3595 667.2758,13.3805 667.9498,20.0005 C668.0538,21.0165 668.1658,22.1195 668.3098,23.3495 C669.3518,32.1885 677.2158,35.1655 677.2948,35.1955 L676.9508,36.1345 Z" id="Fill-9" fill="#FFC71E"></path>
                            <path d="M678.1373,35.0046 C678.1103,34.9566 675.3443,30.1626 670.1933,27.8546 L669.1223,27.3776 C664.7093,25.4186 663.9143,25.0656 662.3323,20.5786 C660.7783,16.1676 658.6753,13.6316 656.6563,11.4126 L657.3963,10.7386 C659.4843,13.0346 661.6583,15.6586 663.2763,20.2466 C664.7143,24.3256 665.1693,24.5286 669.5283,26.4636 L670.6013,26.9416 C676.0623,29.3886 678.8893,34.3046 679.0073,34.5126 L678.1373,35.0046 Z" id="Fill-11" fill="#FFC71E"></path>
                            <path d="M679.3365,36.2146 C679.2805,36.1356 673.6685,28.3026 667.3805,27.0716 C666.2975,26.8606 665.3175,26.6936 664.4255,26.5416 C659.8715,25.7646 657.3635,25.3366 655.1645,21.2766 C652.6845,16.6966 651.7265,14.4116 651.6865,14.3176 L652.6095,13.9326 C652.6185,13.9556 653.5915,16.2736 656.0435,20.7996 C658.0115,24.4326 660.0735,24.7846 664.5935,25.5556 C665.4935,25.7086 666.4815,25.8776 667.5715,26.0916 C674.2555,27.3986 679.9155,35.3006 680.1525,35.6366 L679.3365,36.2146 Z" id="Fill-13" fill="#FFC71E"></path>
                            <path d="M678.8571,37.0457 C677.2311,34.1327 672.2401,26.7337 668.7591,27.4817 C664.4201,28.4047 661.7621,33.3827 661.7361,33.4327 L660.8511,32.9677 C660.9671,32.7457 663.7581,27.5237 668.5501,26.5027 C673.4961,25.4567 679.4771,36.1057 679.7301,36.5597 L678.8571,37.0457 Z" id="Fill-15" fill="#FFC71E"></path>
                        </g>
                        <g id="Group-20" stroke-width="1" fill="none" transform="translate(497.000000, 61.650000)">
                            <mask id="mask-4" fill="white">
                                <use xlink:href="#path-3"></use>
                            </mask>
                            <g id="Clip-19"></g>
                            <polygon id="Fill-18" fill="#FFC71E" mask="url(#mask-4)" points="-2.16 120.798 124.052 120.798 124.052 -2.975 -2.16 -2.975"></polygon>
                        </g>
                        <g id="Group-23" stroke-width="1" fill="none" transform="translate(446.000000, 42.650000)">
                            <mask id="mask-6" fill="white">
                                <use xlink:href="#path-5"></use>
                            </mask>
                            <g id="Clip-22"></g>
                            <polygon id="Fill-21" fill="#F21F40" mask="url(#mask-6)" points="-2.376 90.744 43.218 90.744 43.218 -2.268 -2.376 -2.268"></polygon>
                        </g>
                        <g id="Group-26" stroke-width="1" fill="none" transform="translate(630.000000, 23.650000)">
                            <mask id="mask-8" fill="white">
                                <use xlink:href="#path-7"></use>
                            </mask>
                            <g id="Clip-25"></g>
                            <polygon id="Fill-24" fill="#F21F40" mask="url(#mask-8)" points="-2.85 125.953 55.527 125.953 55.527 -2.169 -2.85 -2.169"></polygon>
                        </g>
                        <polygon id="Fill-27" fill="#2A3268" points="594.5807 165.0169 584.7607 143.5039 575.1217 160.7379 562.7577 141.4579 557.1797 155.1289 550.3157 140.3899 544.4597 147.9289 539.7377 138.5429 527.1757 158.4759 506.9267 137.5829 498.6077 144.6259 494.7307 140.0479 507.3307 129.3779 526.1697 148.8179 540.3237 126.3589 545.5497 136.7459 551.6067 128.9489 556.8157 140.1369 561.5677 128.4919 574.7697 149.0759 585.3037 130.2429 595.9267 153.5149 606.8757 139.4419 622.1527 152.6359 618.2307 157.1769 607.7327 148.1099"></polygon>
                        <g id="Group-31" stroke-width="1" fill="none" transform="translate(503.000000, 71.650000)">
                            <mask id="mask-10" fill="white">
                                <use xlink:href="#path-9"></use>
                            </mask>
                            <g id="Clip-30"></g>
                            <polygon id="Fill-29" fill="#F9F6F9" mask="url(#mask-10)" points="-2.672 52.874 52.812 52.874 52.812 -2.61 -2.672 -2.61"></polygon>
                        </g>
                        <g id="Group-34" stroke-width="1" fill="none" transform="translate(561.000000, 71.650000)">
                            <mask id="mask-12" fill="white">
                                <use xlink:href="#path-11"></use>
                            </mask>
                            <g id="Clip-33"></g>
                            <polygon id="Fill-32" fill="#F9F6F9" mask="url(#mask-12)" points="-2.139 52.874 53.345 52.874 53.345 -2.61 -2.139 -2.61"></polygon>
                        </g>
                        <path d="M528.0699,114.1585 C537.6679,114.1585 545.4469,106.3795 545.4469,96.7815 C545.4469,87.1845 537.6679,79.4045 528.0699,79.4045 C518.4729,79.4045 510.6929,87.1845 510.6929,96.7815 C510.6929,106.3795 518.4729,114.1585 528.0699,114.1585" id="Fill-35" fill="#84C7FE"></path>
                        <g id="Group-39" stroke-width="1" fill="none" transform="translate(510.000000, 78.650000)">
                            <mask id="mask-14" fill="white">
                                <use xlink:href="#path-13"></use>
                            </mask>
                            <g id="Clip-38"></g>
                            <polygon id="Fill-37" fill="#84C7FE" mask="url(#mask-14)" points="-1084 2914 2754.192 2914 2754.192 -137.651 -1084 -137.651"></polygon>
                        </g>
                        <g id="Group-42" stroke-width="1" fill="none" transform="translate(510.000000, 78.650000)">
                            <mask id="mask-16" fill="white">
                                <use xlink:href="#path-15"></use>
                            </mask>
                            <g id="Clip-41"></g>
                            <polygon id="Fill-40" fill="#84C7FE" mask="url(#mask-16)" points="-2.356 38.557 38.496 38.557 38.496 -2.295 -2.356 -2.295"></polygon>
                        </g>
                        <g id="Group-45" stroke-width="1" fill="none" transform="translate(569.000000, 78.650000)">
                            <mask id="mask-18" fill="white">
                                <use xlink:href="#path-17"></use>
                            </mask>
                            <g id="Clip-44"></g>
                            <polygon id="Fill-43" fill="#84C7FE" mask="url(#mask-18)" points="-2.823 38.557 38.029 38.557 38.029 -2.295 -2.823 -2.295"></polygon>
                        </g>
                        <path d="M528.0699,102.5736 C531.2689,102.5736 533.8629,99.9806 533.8629,96.7816 C533.8629,93.5826 531.2689,90.9896 528.0699,90.9896 C524.8709,90.9896 522.2779,93.5826 522.2779,96.7816 C522.2779,99.9806 524.8709,102.5736 528.0699,102.5736" id="Fill-46" fill="#070707"></path>
                        <g id="Group-50" stroke-width="1" fill="none" transform="translate(522.000000, 90.650000)">
                            <mask id="mask-20" fill="white">
                                <use xlink:href="#path-19"></use>
                            </mask>
                            <g id="Clip-49"></g>
                            <polygon id="Fill-48" fill="#070707" mask="url(#mask-20)" points="-1096 2902 2742.192 2902 2742.192 -149.651 -1096 -149.651"></polygon>
                        </g>
                        <g id="Group-53" stroke-width="1" fill="none" transform="translate(522.000000, 90.650000)">
                            <mask id="mask-22" fill="white">
                                <use xlink:href="#path-21"></use>
                            </mask>
                            <g id="Clip-52"></g>
                            <polygon id="Fill-51" fill="#070707" mask="url(#mask-22)" points="-2.771 14.972 14.911 14.972 14.911 -2.71 -2.771 -2.71"></polygon>
                        </g>
                        <path d="M586.6031,102.5736 C589.8021,102.5736 592.3951,99.9806 592.3951,96.7816 C592.3951,93.5826 589.8021,90.9896 586.6031,90.9896 C583.4041,90.9896 580.8111,93.5826 580.8111,96.7816 C580.8111,99.9806 583.4041,102.5736 586.6031,102.5736" id="Fill-54" fill="#070707"></path>
                        <g id="Group-58" stroke-width="1" fill="none" transform="translate(580.000000, 90.650000)">
                            <mask id="mask-24" fill="white">
                                <use xlink:href="#path-23"></use>
                            </mask>
                            <g id="Clip-57"></g>
                            <polygon id="Fill-56" fill="#070707" mask="url(#mask-24)" points="-1154 2902 2684.192 2902 2684.192 -149.651 -1154 -149.651"></polygon>
                        </g>
                        <g id="Group-61" stroke-width="1" fill="none" transform="translate(580.000000, 90.650000)">
                            <mask id="mask-26" fill="white">
                                <use xlink:href="#path-25"></use>
                            </mask>
                            <g id="Clip-60"></g>
                            <polygon id="Fill-59" fill="#070707" mask="url(#mask-26)" points="-2.238 14.972 15.444 14.972 15.444 -2.71 -2.238 -2.71"></polygon>
                        </g>
                        <path d="M506.4254,85.5306 C510.5174,77.5506 518.8264,72.0886 528.4124,72.0886 C537.9544,72.0886 546.2324,77.5006 550.3444,85.4216 C531.0214,73.9806 509.6104,84.0096 506.5334,85.5626 L506.4254,85.5306 Z" id="Fill-62" fill="#2A3268"></path>
                        <g id="Group-66" stroke-width="1" fill="none" transform="translate(506.000000, 71.650000)">
                            <mask id="mask-28" fill="white">
                                <use xlink:href="#path-27"></use>
                            </mask>
                            <g id="Clip-65"></g>
                            <polygon id="Fill-64" fill="#2A3268" mask="url(#mask-28)" points="-1080 2921 2758.192 2921 2758.192 -130.651 -1080 -130.651"></polygon>
                        </g>
                        <g id="Group-69" stroke-width="1" fill="none" transform="translate(506.000000, 71.650000)">
                            <mask id="mask-30" fill="white">
                                <use xlink:href="#path-29"></use>
                            </mask>
                            <g id="Clip-68"></g>
                            <polygon id="Fill-67" fill="#F21F40" mask="url(#mask-30)" points="-2.623 16.962 47.393 16.962 47.393 -2.61 -2.623 -2.61"></polygon>
                        </g>
                        <path d="M564.9586,85.5306 C569.0506,77.5506 577.3596,72.0886 586.9456,72.0886 C596.4876,72.0886 604.7656,77.5006 608.8776,85.4216 C589.5546,73.9806 568.1436,84.0096 565.0666,85.5626 L564.9586,85.5306 Z" id="Fill-70" fill="#2A3268"></path>
                        <g id="Group-74" stroke-width="1" fill="none" transform="translate(564.000000, 71.650000)">
                            <mask id="mask-32" fill="white">
                                <use xlink:href="#path-31"></use>
                            </mask>
                            <g id="Clip-73"></g>
                            <polygon id="Fill-72" fill="#2A3268" mask="url(#mask-32)" points="-1138 2921 2700.192 2921 2700.192 -130.651 -1138 -130.651"></polygon>
                        </g>
                        <g id="Group-77" stroke-width="1" fill="none" transform="translate(564.000000, 71.650000)">
                            <mask id="mask-34" fill="white">
                                <use xlink:href="#path-33"></use>
                            </mask>
                            <g id="Clip-76"></g>
                            <polygon id="Fill-75" fill="#F21F40" mask="url(#mask-34)" points="-2.09 16.962 47.926 16.962 47.926 -2.61 -2.09 -2.61"></polygon>
                        </g>
                        <g id="Group-80" stroke-width="1" fill="none" transform="translate(510.000000, 189.650000)">
                            <mask id="mask-36" fill="white">
                                <use xlink:href="#path-35"></use>
                            </mask>
                            <g id="Clip-79"></g>
                            <polygon id="Fill-78" fill="#F21F40" mask="url(#mask-36)" points="-2.356 34.564 98.088 34.564 98.088 -2.325 -2.356 -2.325"></polygon>
                        </g>
                        <g id="Group-83" stroke-width="1" fill="none" transform="translate(510.000000, 207.650000)">
                            <mask id="mask-38" fill="white">
                                <use xlink:href="#path-37"></use>
                            </mask>
                            <g id="Clip-82"></g>
                            <polygon id="Fill-81" fill="#4453AE" mask="url(#mask-38)" points="-2.965 38.427 98.858 38.427 98.858 -2.424 -2.965 -2.424"></polygon>
                        </g>
                        <g id="Group-92" stroke-width="1" fill="none" transform="translate(440.000000, 28.650000)">
                            <path d="M17.3571,29.0525 C16.7261,29.0525 16.3721,28.8745 16.2831,28.8235 L16.7681,27.9495 C16.7881,27.9595 18.6441,28.8185 22.5821,25.0585 C25.2381,22.5235 25.0581,20.2505 24.8841,18.0525 C24.7891,16.8315 24.6891,15.5695 25.1021,14.3425 C26.2301,10.9985 31.1491,7.3365 31.3581,7.1825 L31.9521,7.9875 C31.9031,8.0235 27.0771,11.6165 26.0491,14.6625 C25.7021,15.6945 25.7891,16.8015 25.8811,17.9745 C26.0651,20.2915 26.2721,22.9175 23.2731,25.7815 C20.4171,28.5075 18.4621,29.0525 17.3571,29.0525" id="Fill-84" fill="#FFC71E"></path>
                            <path d="M15.8444,28.4597 L15.7014,27.4697 C15.7574,27.4617 21.2814,26.6377 23.2214,24.0947 C25.2264,21.4667 24.0114,17.4177 22.7294,14.1847 C21.1854,10.2887 22.0574,4.2487 23.7914,0.6597 L24.6924,1.0957 C23.0864,4.4167 22.2354,10.2247 23.6584,13.8147 C25.0384,17.2937 26.3254,21.6747 24.0164,24.7017 C21.8284,27.5687 16.0874,28.4247 15.8444,28.4597" id="Fill-86" fill="#FFC71E"></path>
                            <path d="M16.441,28.8064 L16.271,27.8214 C16.337,27.8094 22.85,26.6474 24.652,23.5354 C25.597,21.9044 25.759,20.0904 25.098,18.5574 C24.295,16.6984 22.365,15.3614 19.514,14.6904 C11.473,12.8014 9.786,9.1204 9.786,6.3654 L10.786,6.3654 C10.786,9.7974 13.883,12.3404 19.743,13.7174 C23.75,14.6594 25.366,16.6544 26.016,18.1604 C26.804,19.9884 26.623,22.1284 25.517,24.0364 C23.481,27.5524 16.728,28.7564 16.441,28.8064" id="Fill-88" fill="#FFC71E"></path>
                            <path d="M16.4342,28.7664 L16.4342,28.7664 L16.4382,27.7664 L16.4412,27.7664 C16.7112,27.7664 22.0572,27.7034 24.1342,22.9364 C24.7652,21.4894 24.8392,20.3804 24.3552,19.6414 C23.4482,18.2564 20.6392,18.0704 18.0122,18.0704 L17.2762,18.0764 C13.9182,18.1134 6.9232,18.1894 2.9272,13.9824 C0.7792,11.7204 -0.1818,8.5324 0.0692,4.5044 L1.0672,4.5674 C0.8332,8.3054 1.7042,11.2414 3.6532,13.2924 C7.3482,17.1854 14.0552,17.1124 17.2652,17.0764 L18.0122,17.0704 C21.0522,17.0704 24.0262,17.3154 25.1912,19.0934 C25.8722,20.1324 25.8252,21.5604 25.0502,23.3364 C22.7062,28.7144 16.5392,28.7664 16.4342,28.7664" id="Fill-90" fill="#FFC71E"></path>
                        </g>
                        <g id="Group-95" stroke-width="1" fill="none" transform="translate(446.000000, 43.650000)">
                            <mask id="mask-40" fill="white">
                                <use xlink:href="#path-39"></use>
                            </mask>
                            <g id="Clip-94"></g>
                            <polygon id="Fill-93" fill="#F21F40" mask="url(#mask-40)" points="-2.376 89.744 43.218 89.744 43.218 -3.268 -2.376 -3.268"></polygon>
                        </g>
                        <g id="Group-98" stroke-width="1" fill="none" transform="translate(485.000000, 48.650000)">
                            <mask id="mask-42" fill="white">
                                <use xlink:href="#path-41"></use>
                            </mask>
                            <g id="Clip-97"></g>
                            <polygon id="Fill-96" fill="#F21F40" mask="url(#mask-42)" points="-2.354 145.383 148.247 145.383 148.247 -2.17 -2.354 -2.17"></polygon>
                        </g>
                        <g id="Group-109" stroke-width="1" fill="none" transform="translate(523.000000, 206.650000)">
                            <path d="M67.8024,20.1335 C67.7454,24.8725 67.6854,29.7645 64.9904,36.3785 L68.2104,36.3785 C70.6794,29.8315 70.7444,24.9255 70.8014,20.1695 L70.8124,19.3465 C70.9694,7.7395 67.3144,0.6515 67.1574,0.3555 L64.5024,1.7515 C64.5374,1.8175 67.9594,8.4535 67.8124,19.3055 L67.8024,20.1335 Z" id="Fill-99" fill="#F21F40"></path>
                            <path d="M53.3297,20.1335 C53.2727,24.8725 53.2127,29.7645 50.5177,36.3785 L53.7377,36.3785 C56.2067,29.8315 56.2717,24.9255 56.3287,20.1695 L56.3397,19.3465 C56.4967,7.7395 52.8417,0.6515 52.6847,0.3555 L50.0297,1.7515 C50.0647,1.8175 53.4867,8.4535 53.3397,19.3055 L53.3297,20.1335 Z" id="Fill-101" fill="#F21F40"></path>
                            <polygon id="Fill-103" fill="#F21F40" points="37.3864 36.3787 37.4104 0.4247 34.4104 0.4227 34.3864 36.3787"></polygon>
                            <path d="M20.6774,36.3787 C19.7204,34.0227 17.7714,28.1917 17.8824,19.9867 L17.8924,19.1587 C17.9524,14.1257 18.0144,8.9207 21.2354,1.6617 L18.4924,0.4447 C15.0224,8.2677 14.9564,13.7857 14.8934,19.1227 L14.8824,19.9457 C14.7794,27.6287 16.3414,33.3147 17.4574,36.3787 L20.6774,36.3787 Z" id="Fill-105" fill="#F21F40"></path>
                            <path d="M6.2047,36.3787 C5.2477,34.0227 3.2987,28.1917 3.4097,19.9867 L3.4197,19.1587 C3.4797,14.1257 3.5417,8.9207 6.7627,1.6617 L4.0197,0.4447 C0.5497,8.2677 0.4837,13.7857 0.4207,19.1227 L0.4097,19.9457 C0.3067,27.6287 1.8687,33.3147 2.9847,36.3787 L6.2047,36.3787 Z" id="Fill-107" fill="#F21F40"></path>
                        </g>
                    </g>
                </g>
            </g>
        </g>
    </g>
</svg>