<?xml version="1.0" encoding="utf-8"?>
<!-- Generator: Adobe Illustrator 21.0.2, SVG Export Plug-In . SVG Version: 6.00 Build 0)  -->
<svg version="1.1" id="Layer_1" xmlns="http://www.w3.org/2000/svg" xmlns:xlink="http://www.w3.org/1999/xlink" x="0px" y="0px"
	 viewBox="0 0 904 254" style="enable-background:new 0 0 904 254;" xml:space="preserve">
<style type="text/css">
	.st0{filter:url(#Adobe_OpacityMaskFilter);}
	.st1{fill:#FFFFFF;}
	.st2{mask:url(#mask-2);}
	.st3{fill:#F21F40;}
	.st4{fill:#00CE83;}
	.st5{fill:#FFC71E;}
	.st6{filter:url(#Adobe_OpacityMaskFilter_1_);}
	.st7{mask:url(#mask-4);fill:#FFC71E;}
	.st8{filter:url(#Adobe_OpacityMaskFilter_2_);}
	.st9{mask:url(#mask-6);fill:#F21F40;}
	.st10{filter:url(#Adobe_OpacityMaskFilter_3_);}
	.st11{mask:url(#mask-8);fill:#F21F40;}
	.st12{fill:#2A3268;}
	.st13{filter:url(#Adobe_OpacityMaskFilter_4_);}
	.st14{mask:url(#mask-10);fill:#F9F6F9;}
	.st15{filter:url(#Adobe_OpacityMaskFilter_5_);}
	.st16{mask:url(#mask-12);fill:#F9F6F9;}
	.st17{fill:#84C7FE;}
	.st18{filter:url(#Adobe_OpacityMaskFilter_6_);}
	.st19{mask:url(#mask-14);fill:#84C7FE;}
	.st20{filter:url(#Adobe_OpacityMaskFilter_7_);}
	.st21{mask:url(#mask-16);fill:#84C7FE;}
	.st22{filter:url(#Adobe_OpacityMaskFilter_8_);}
	.st23{mask:url(#mask-18);fill:#84C7FE;}
	.st24{fill:#070707;}
	.st25{filter:url(#Adobe_OpacityMaskFilter_9_);}
	.st26{mask:url(#mask-20);fill:#070707;}
	.st27{filter:url(#Adobe_OpacityMaskFilter_10_);}
	.st28{mask:url(#mask-22);fill:#070707;}
	.st29{filter:url(#Adobe_OpacityMaskFilter_11_);}
	.st30{mask:url(#mask-24);fill:#070707;}
	.st31{filter:url(#Adobe_OpacityMaskFilter_12_);}
	.st32{mask:url(#mask-26);fill:#070707;}
	.st33{filter:url(#Adobe_OpacityMaskFilter_13_);}
	.st34{mask:url(#mask-28);fill:#2A3268;}
	.st35{filter:url(#Adobe_OpacityMaskFilter_14_);}
	.st36{mask:url(#mask-30);fill:#F21F40;}
	.st37{filter:url(#Adobe_OpacityMaskFilter_15_);}
	.st38{mask:url(#mask-32);fill:#2A3268;}
	.st39{filter:url(#Adobe_OpacityMaskFilter_16_);}
	.st40{mask:url(#mask-34);fill:#F21F40;}
	.st41{filter:url(#Adobe_OpacityMaskFilter_17_);}
	.st42{mask:url(#mask-36);fill:#F21F40;}
	.st43{filter:url(#Adobe_OpacityMaskFilter_18_);}
	.st44{mask:url(#mask-38);fill:#4453AE;}
	.st45{filter:url(#Adobe_OpacityMaskFilter_19_);}
	.st46{mask:url(#mask-40);fill:#F21F40;}
	.st47{filter:url(#Adobe_OpacityMaskFilter_20_);}
	.st48{mask:url(#mask-42);fill:#F21F40;}
</style>
<title>Group</title>
<desc>Created with Sketch.</desc>
<g id="Page-1_1_">
	<g id="Group" transform="translate(0.000000, -22.000000)">
		<g id="Page-1">
			<g id="Mask">
			</g>
			<defs>
				<filter id="Adobe_OpacityMaskFilter" filterUnits="userSpaceOnUse" x="-679" y="-38" width="3838.2" height="3051.7">
					<feColorMatrix  type="matrix" values="1 0 0 0 0  0 1 0 0 0  0 0 1 0 0  0 0 0 1 0"/>
				</filter>
			</defs>
			<mask maskUnits="userSpaceOnUse" x="-679" y="-38" width="3838.2" height="3051.7" id="mask-2">
				<g class="st0">
					<rect id="path-1" class="st1" width="904" height="356"/>
				</g>
			</mask>
			<g class="st2">
				<g transform="translate(-105.000000, 21.000000)">
					<polygon id="Fill-1" class="st3" points="503.4,223.5 503.4,227.7 510.8,227.7 510.7,223.5 					"/>
					<polygon id="Fill-2" class="st3" points="605.8,223.5 605.9,227.7 613.2,227.7 613.2,223.5 					"/>
					<g id="Group-17" transform="translate(0.000000, 0.650000)">
						<path id="Fill-3" class="st4" d="M135.4,221.9c-1.7,0-3.2,0.7-4.6,2.2c-3.4,3.6-5,7.8-4.4,11c0,0.2,0.1,0.4,0.1,0.6
							c6.3-0.3,9.4-1.9,11.1-3.5c2.5-2.4,2.3-5.7,2.2-7.7c0-0.3,0-0.5,0-0.7c-0.3-0.5-1.6-1.6-3.5-1.8
							C136,222,135.7,221.9,135.4,221.9 M151.1,254.3c-8.4,0-14.4-2.5-21.5-6c-3.4-1.7-5.7-3.6-7.2-5.5c-1.6,0-3.3-0.2-5-0.3
							c-17.4-1.7-20.8-0.8-26.9,0.9c-3.8,1-8.5,2.3-17.4,3.5c-15.7,2-20.9,0.2-26.4-1.7c-3.1-1.1-6.3-2.2-12.1-2.8
							c-15.2-1.4-30.7,6.1-30.8,6.1l-3.1-6.3c0.7-0.3,17.4-8.5,34.6-6.8c6.6,0.6,10.4,2,13.7,3.1c5.1,1.8,9.2,3.2,23.2,1.4
							c8.4-1.1,12.9-2.3,16.5-3.3c6.7-1.9,10.8-3,29.5-1.2c0.4,0,0.9,0.1,1.3,0.1c-0.6-5.3,1.6-11.1,6.3-16.2
							c3.9-4.2,9.4-5.6,14.5-3.6c3.9,1.5,6.6,4.6,6.6,7.7c0,0.2,0,0.4,0,0.7c0.1,2.6,0.4,8.6-4.4,13.2c-2.4,2.3-5.6,3.8-9.7,4.7
							c0,0,0,0,0,0c11,5.4,18.3,8.1,39.7,0.9c18.7-6.3,26-10.8,47.4-24.1c3.2-2,6.6-4.1,10.5-6.5c3.4-2.1,6.6-4.1,9.6-6
							c24-15.2,39.9-25.2,81.9-28.2c12.8-0.9,24.2-0.9,34.2-0.9c25.9,0,41.5,0.1,50.3-15.7c13.2-23.6,17.9-47.9,22.5-71.4
							c0.8-4.1,1.3-7.8,1.8-11c2.3-15.9,4.1-22.5,26.3-27l1.4,6.9c-18.3,3.7-18.7,7.1-20.8,21.2c-0.5,3.3-1,7-1.8,11.3
							c-4.7,24-9.5,48.9-23.3,73.5c-10.8,19.3-29.9,19.3-56.4,19.2c-9.9,0-21.1,0-33.6,0.9c-40.2,2.9-54.7,12-78.6,27.2
							c-3.1,1.9-6.3,4-9.7,6.1c-3.8,2.4-7.3,4.5-10.4,6.5c-21.4,13.3-29.4,18.3-48.9,24.8C164.6,253,157.2,254.3,151.1,254.3"/>
						<path id="Fill-5" class="st4" d="M1010.7,229.1c-0.7-0.9-17.2-21.9-48.9-13.6c-3.8,1-7.5,2-11.1,3
							c-28.3,7.8-50.6,13.9-77.8-2.8c-27.6-17-65.2-44.8-91.2-65.1c-16.4-12.9-27.4-27.2-39-42.3c-5-6.6-10.2-13.4-16.1-20.3
							c-17.3-20.4-35.5-41.3-52.2-51.4l3.6-6c17.6,10.7,35.6,31.1,54,52.8c5.9,7,11.2,13.9,16.3,20.5c11.3,14.8,22,28.7,37.8,41.1
							c25.9,20.3,63.2,47.9,90.6,64.7c24.6,15.1,43.6,9.9,72.2,2c3.6-1,7.3-2,11.2-3c36.4-9.6,55.5,15.1,56.3,16.1L1010.7,229.1z"/>
						<path id="Fill-7" class="st5" d="M676.8,34.6c-0.3-0.2-7.5-3.9-7.5-10.4c0-6.1,2.9-7.9,5.6-9.6l0.5-0.3l0.5,0.8l-0.5,0.3
							c-2.6,1.6-5.1,3.1-5.1,8.7c0,5.9,6.9,9.4,7,9.5L676.8,34.6z"/>
						<path id="Fill-9" class="st5" d="M677,36.1c-0.1,0-8.5-3.2-9.6-12.7c-0.1-1.2-0.3-2.3-0.4-3.4c-0.7-6.6-1-9.4-7.3-19.1
							l0.8-0.5c6.5,9.9,6.8,12.9,7.5,19.6c0.1,1,0.2,2.1,0.4,3.3c1,8.8,8.9,11.8,9,11.8L677,36.1z"/>
						<path id="Fill-11" class="st5" d="M678.1,35c0,0-2.8-4.8-7.9-7.1l-1.1-0.5c-4.4-2-5.2-2.3-6.8-6.8c-1.6-4.4-3.7-6.9-5.7-9.2
							l0.7-0.7c2.1,2.3,4.3,4.9,5.9,9.5c1.4,4.1,1.9,4.3,6.3,6.2l1.1,0.5c5.5,2.4,8.3,7.4,8.4,7.6L678.1,35z"/>
						<path id="Fill-13" class="st5" d="M679.3,36.2c-0.1-0.1-5.7-7.9-12-9.1c-1.1-0.2-2.1-0.4-3-0.5c-4.6-0.8-7.1-1.2-9.3-5.3
							c-2.5-4.6-3.4-6.9-3.5-7l0.9-0.4c0,0,1,2.3,3.4,6.9c2,3.6,4,4,8.5,4.8c0.9,0.2,1.9,0.3,3,0.5c6.7,1.3,12.3,9.2,12.6,9.5
							L679.3,36.2z"/>
						<path id="Fill-15" class="st5" d="M678.9,37c-1.6-2.9-6.6-10.3-10.1-9.6c-4.3,0.9-7,5.9-7,6l-0.9-0.5c0.1-0.2,2.9-5.4,7.7-6.5
							c4.9-1,10.9,9.6,11.2,10.1L678.9,37z"/>
					</g>
					<g id="Group-20" transform="translate(497.000000, 61.650000)">
						<g id="Clip-19">
						</g>
						<defs>
							<filter id="Adobe_OpacityMaskFilter_1_" filterUnits="userSpaceOnUse" x="-2.2" y="-3" width="126.2" height="123.8">
								<feColorMatrix  type="matrix" values="1 0 0 0 0  0 1 0 0 0  0 0 1 0 0  0 0 0 1 0"/>
							</filter>
						</defs>
						<mask maskUnits="userSpaceOnUse" x="-2.2" y="-3" width="126.2" height="123.8" id="mask-4">
							<g class="st6">
								<path id="path-3" class="st1" d="M12.5,0.1C6.1,0.1,0.9,5.3,0.9,11.7v94.5c0,6.4,5.2,11.6,11.6,11.6h96.9
									c6.4,0,11.6-5.2,11.6-11.6V11.7c0-6.4-5.2-11.6-11.6-11.6H12.5z"/>
							</g>
						</mask>
						<polygon id="Fill-18" class="st7" points="-2.2,120.8 124.1,120.8 124.1,-3 -2.2,-3 						"/>
					</g>
					<g id="Group-23" transform="translate(446.000000, 42.650000)">
						<g id="Clip-22">
						</g>
						<defs>
							<filter id="Adobe_OpacityMaskFilter_2_" filterUnits="userSpaceOnUse" x="-2.4" y="-2.3" width="45.6" height="93">
								<feColorMatrix  type="matrix" values="1 0 0 0 0  0 1 0 0 0  0 0 1 0 0  0 0 0 1 0"/>
							</filter>
						</defs>
						<mask maskUnits="userSpaceOnUse" x="-2.4" y="-2.3" width="45.6" height="93" id="mask-6">
							<g class="st8">
								<polygon id="path-5" class="st1" points="6.1,8.7 3.2,58.1 0.7,61.2 6,64.9 8.3,62.2 8.7,59.3 10.3,63.7 40,87.7 40.2,65.1 
									12.7,48.8 10.9,29.1 22,19.4 26.3,1 14.6,18.3 13.1,11.5 22.7,0.8 								"/>
							</g>
						</mask>
						<polygon id="Fill-21" class="st9" points="-2.4,90.7 43.2,90.7 43.2,-2.3 -2.4,-2.3 						"/>
					</g>
					<g id="Group-26" transform="translate(630.000000, 23.650000)">
						<g id="Clip-25">
						</g>
						<defs>
							<filter id="Adobe_OpacityMaskFilter_3_" filterUnits="userSpaceOnUse" x="-2.8" y="-2.2" width="58.4" height="128.1">
								<feColorMatrix  type="matrix" values="1 0 0 0 0  0 1 0 0 0  0 0 1 0 0  0 0 0 1 0"/>
							</filter>
						</defs>
						<mask maskUnits="userSpaceOnUse" x="-2.8" y="-2.2" width="58.4" height="128.1" id="mask-8">
							<g class="st10">
								<polygon id="path-7" class="st1" points="44.7,9.4 42.3,26.7 37.1,18.9 38.2,5.7 31.5,21.8 39.3,39.6 28.3,65.9 0.2,90.1 
									0.2,122.9 32,78.3 32.1,81.1 32.7,86.9 39.1,84 37.1,76.8 40,72.6 52.5,11.2 42.1,0.9 								"/>
							</g>
						</mask>
						<polygon id="Fill-24" class="st11" points="-2.8,126 55.5,126 55.5,-2.2 -2.8,-2.2 						"/>
					</g>
					<polygon id="Fill-27" class="st12" points="594.6,165 584.8,143.5 575.1,160.7 562.8,141.5 557.2,155.1 550.3,140.4 
						544.5,147.9 539.7,138.5 527.2,158.5 506.9,137.6 498.6,144.6 494.7,140 507.3,129.4 526.2,148.8 540.3,126.4 545.5,136.7 
						551.6,128.9 556.8,140.1 561.6,128.5 574.8,149.1 585.3,130.2 595.9,153.5 606.9,139.4 622.2,152.6 618.2,157.2 607.7,148.1 
											"/>
					<g id="Group-31" transform="translate(503.000000, 71.650000)">
						<g id="Clip-30">
						</g>
						<defs>
							<filter id="Adobe_OpacityMaskFilter_4_" filterUnits="userSpaceOnUse" x="-2.7" y="-2.6" width="55.5" height="55.5">
								<feColorMatrix  type="matrix" values="1 0 0 0 0  0 1 0 0 0  0 0 1 0 0  0 0 0 1 0"/>
							</filter>
						</defs>
						<mask maskUnits="userSpaceOnUse" x="-2.7" y="-2.6" width="55.5" height="55.5" id="mask-10">
							<g class="st13">
								<path id="path-9" class="st1" d="M0.4,25.1c0,13.6,11.1,24.7,24.7,24.7s24.7-11.1,24.7-24.7c0-13.6-11.1-24.7-24.7-24.7
									S0.4,11.5,0.4,25.1z"/>
							</g>
						</mask>
						<polygon id="Fill-29" class="st14" points="-2.7,52.9 52.8,52.9 52.8,-2.6 -2.7,-2.6 						"/>
					</g>
					<g id="Group-34" transform="translate(561.000000, 71.650000)">
						<g id="Clip-33">
						</g>
						<defs>
							<filter id="Adobe_OpacityMaskFilter_5_" filterUnits="userSpaceOnUse" x="-2.1" y="-2.6" width="55.5" height="55.5">
								<feColorMatrix  type="matrix" values="1 0 0 0 0  0 1 0 0 0  0 0 1 0 0  0 0 0 1 0"/>
							</filter>
						</defs>
						<mask maskUnits="userSpaceOnUse" x="-2.1" y="-2.6" width="55.5" height="55.5" id="mask-12">
							<g class="st15">
								<path id="path-11" class="st1" d="M0.9,25.1c0,13.6,11.1,24.7,24.7,24.7c13.6,0,24.7-11.1,24.7-24.7
									c0-13.6-11.1-24.7-24.7-24.7C12,0.4,0.9,11.5,0.9,25.1z"/>
							</g>
						</mask>
						<polygon id="Fill-32" class="st16" points="-2.1,52.9 53.3,52.9 53.3,-2.6 -2.1,-2.6 						"/>
					</g>
					<path id="Fill-35" class="st17" d="M528.1,114.2c9.6,0,17.4-7.8,17.4-17.4c0-9.6-7.8-17.4-17.4-17.4c-9.6,0-17.4,7.8-17.4,17.4
						C510.7,106.4,518.5,114.2,528.1,114.2"/>
					<g id="Group-39" transform="translate(510.000000, 78.650000)">
						<g id="Clip-38">
						</g>
						<defs>
							<filter id="Adobe_OpacityMaskFilter_6_" filterUnits="userSpaceOnUse" x="-1084" y="-137.7" width="3838.2" height="3051.7">
								<feColorMatrix  type="matrix" values="1 0 0 0 0  0 1 0 0 0  0 0 1 0 0  0 0 0 1 0"/>
							</filter>
						</defs>
						<mask maskUnits="userSpaceOnUse" x="-1084" y="-137.7" width="3838.2" height="3051.7" id="mask-14">
							<g class="st18">
								<path id="path-13" class="st1" d="M0.7,18.1c0,9.6,7.8,17.4,17.4,17.4c9.6,0,17.4-7.8,17.4-17.4c0-9.6-7.8-17.4-17.4-17.4
									C8.5,0.8,0.7,8.5,0.7,18.1z"/>
							</g>
						</mask>
						<polygon id="Fill-37" class="st19" points="-1084,2914 2754.2,2914 2754.2,-137.7 -1084,-137.7 						"/>
					</g>
					<g id="Group-42" transform="translate(510.000000, 78.650000)">
						<g id="Clip-41">
						</g>
						<defs>
							<filter id="Adobe_OpacityMaskFilter_7_" filterUnits="userSpaceOnUse" x="-2.4" y="-2.3" width="40.9" height="40.9">
								<feColorMatrix  type="matrix" values="1 0 0 0 0  0 1 0 0 0  0 0 1 0 0  0 0 0 1 0"/>
							</filter>
						</defs>
						<mask maskUnits="userSpaceOnUse" x="-2.4" y="-2.3" width="40.9" height="40.9" id="mask-16">
							<g class="st20">
								<path id="path-15" class="st1" d="M0.7,18.1c0,9.6,7.8,17.4,17.4,17.4c9.6,0,17.4-7.8,17.4-17.4S27.7,0.8,18.1,0.8
									C8.5,0.8,0.7,8.5,0.7,18.1z"/>
							</g>
						</mask>
						<polygon id="Fill-40" class="st21" points="-2.4,38.6 38.5,38.6 38.5,-2.3 -2.4,-2.3 						"/>
					</g>
					<g id="Group-45" transform="translate(569.000000, 78.650000)">
						<g id="Clip-44">
						</g>
						<defs>
							<filter id="Adobe_OpacityMaskFilter_8_" filterUnits="userSpaceOnUse" x="-2.8" y="-2.3" width="40.9" height="40.9">
								<feColorMatrix  type="matrix" values="1 0 0 0 0  0 1 0 0 0  0 0 1 0 0  0 0 0 1 0"/>
							</filter>
						</defs>
						<mask maskUnits="userSpaceOnUse" x="-2.8" y="-2.3" width="40.9" height="40.9" id="mask-18">
							<g class="st22">
								<path id="path-17" class="st1" d="M0.2,18.1c0,9.6,7.8,17.4,17.4,17.4c9.6,0,17.4-7.8,17.4-17.4S27.2,0.8,17.6,0.8
									C8,0.8,0.2,8.5,0.2,18.1z"/>
							</g>
						</mask>
						<polygon id="Fill-43" class="st23" points="-2.8,38.6 38,38.6 38,-2.3 -2.8,-2.3 						"/>
					</g>
					<path id="Fill-46" class="st24" d="M528.1,102.6c3.2,0,5.8-2.6,5.8-5.8s-2.6-5.8-5.8-5.8c-3.2,0-5.8,2.6-5.8,5.8
						S524.9,102.6,528.1,102.6"/>
					<g id="Group-50" transform="translate(522.000000, 90.650000)">
						<g id="Clip-49">
						</g>
						<defs>
							<filter id="Adobe_OpacityMaskFilter_9_" filterUnits="userSpaceOnUse" x="-1096" y="-149.7" width="3838.2" height="3051.7">
								<feColorMatrix  type="matrix" values="1 0 0 0 0  0 1 0 0 0  0 0 1 0 0  0 0 0 1 0"/>
							</filter>
						</defs>
						<mask maskUnits="userSpaceOnUse" x="-1096" y="-149.7" width="3838.2" height="3051.7" id="mask-20">
							<g class="st25">
								<path id="path-19" class="st1" d="M0.3,6.1c0,3.2,2.6,5.8,5.8,5.8s5.8-2.6,5.8-5.8S9.3,0.3,6.1,0.3S0.3,2.9,0.3,6.1z"/>
							</g>
						</mask>
						<polygon id="Fill-48" class="st26" points="-1096,2902 2742.2,2902 2742.2,-149.7 -1096,-149.7 						"/>
					</g>
					<g id="Group-53" transform="translate(522.000000, 90.650000)">
						<g id="Clip-52">
						</g>
						<defs>
							<filter id="Adobe_OpacityMaskFilter_10_" filterUnits="userSpaceOnUse" x="-2.8" y="-2.7" width="17.7" height="17.7">
								<feColorMatrix  type="matrix" values="1 0 0 0 0  0 1 0 0 0  0 0 1 0 0  0 0 0 1 0"/>
							</filter>
						</defs>
						<mask maskUnits="userSpaceOnUse" x="-2.8" y="-2.7" width="17.7" height="17.7" id="mask-22">
							<g class="st27">
								<path id="path-21" class="st1" d="M0.3,6.1c0,3.2,2.6,5.8,5.8,5.8s5.8-2.6,5.8-5.8S9.3,0.3,6.1,0.3S0.3,2.9,0.3,6.1z"/>
							</g>
						</mask>
						<polygon id="Fill-51" class="st28" points="-2.8,15 14.9,15 14.9,-2.7 -2.8,-2.7 						"/>
					</g>
					<path id="Fill-54" class="st24" d="M586.6,102.6c3.2,0,5.8-2.6,5.8-5.8s-2.6-5.8-5.8-5.8c-3.2,0-5.8,2.6-5.8,5.8
						S583.4,102.6,586.6,102.6"/>
					<g id="Group-58" transform="translate(580.000000, 90.650000)">
						<g id="Clip-57">
						</g>
						<defs>
							
								<filter id="Adobe_OpacityMaskFilter_11_" filterUnits="userSpaceOnUse" x="-1154" y="-149.7" width="3838.2" height="3051.7">
								<feColorMatrix  type="matrix" values="1 0 0 0 0  0 1 0 0 0  0 0 1 0 0  0 0 0 1 0"/>
							</filter>
						</defs>
						<mask maskUnits="userSpaceOnUse" x="-1154" y="-149.7" width="3838.2" height="3051.7" id="mask-24">
							<g class="st29">
								<path id="path-23" class="st1" d="M0.8,6.1c0,3.2,2.6,5.8,5.8,5.8c3.2,0,5.8-2.6,5.8-5.8S9.8,0.3,6.6,0.3
									C3.4,0.3,0.8,2.9,0.8,6.1z"/>
							</g>
						</mask>
						<polygon id="Fill-56" class="st30" points="-1154,2902 2684.2,2902 2684.2,-149.7 -1154,-149.7 						"/>
					</g>
					<g id="Group-61" transform="translate(580.000000, 90.650000)">
						<g id="Clip-60">
						</g>
						<defs>
							<filter id="Adobe_OpacityMaskFilter_12_" filterUnits="userSpaceOnUse" x="-2.2" y="-2.7" width="17.7" height="17.7">
								<feColorMatrix  type="matrix" values="1 0 0 0 0  0 1 0 0 0  0 0 1 0 0  0 0 0 1 0"/>
							</filter>
						</defs>
						<mask maskUnits="userSpaceOnUse" x="-2.2" y="-2.7" width="17.7" height="17.7" id="mask-26">
							<g class="st31">
								<path id="path-25" class="st1" d="M0.8,6.1c0,3.2,2.6,5.8,5.8,5.8c3.2,0,5.8-2.6,5.8-5.8S9.8,0.3,6.6,0.3
									C3.4,0.3,0.8,2.9,0.8,6.1z"/>
							</g>
						</mask>
						<polygon id="Fill-59" class="st32" points="-2.2,15 15.4,15 15.4,-2.7 -2.2,-2.7 						"/>
					</g>
					<path id="Fill-62" class="st12" d="M506.4,85.5c4.1-8,12.4-13.4,22-13.4c9.5,0,17.8,5.4,21.9,13.3C531,74,509.6,84,506.5,85.6
						L506.4,85.5z"/>
					<g id="Group-66" transform="translate(506.000000, 71.650000)">
						<g id="Clip-65">
						</g>
						<defs>
							
								<filter id="Adobe_OpacityMaskFilter_13_" filterUnits="userSpaceOnUse" x="-1080" y="-130.7" width="3838.2" height="3051.7">
								<feColorMatrix  type="matrix" values="1 0 0 0 0  0 1 0 0 0  0 0 1 0 0  0 0 0 1 0"/>
							</filter>
						</defs>
						<mask maskUnits="userSpaceOnUse" x="-1080" y="-130.7" width="3838.2" height="3051.7" id="mask-28">
							<g class="st33">
								<path id="path-27" class="st1" d="M0.4,13.9l0.1,0C3.6,12.4,25,2.3,44.3,13.8C40.2,5.8,32,0.4,22.4,0.4
									C12.8,0.4,4.5,5.9,0.4,13.9z"/>
							</g>
						</mask>
						<polygon id="Fill-64" class="st34" points="-1080,2921 2758.2,2921 2758.2,-130.7 -1080,-130.7 						"/>
					</g>
					<g id="Group-69" transform="translate(506.000000, 71.650000)">
						<g id="Clip-68">
						</g>
						<defs>
							<filter id="Adobe_OpacityMaskFilter_14_" filterUnits="userSpaceOnUse" x="-2.6" y="-2.6" width="50" height="19.6">
								<feColorMatrix  type="matrix" values="1 0 0 0 0  0 1 0 0 0  0 0 1 0 0  0 0 0 1 0"/>
							</filter>
						</defs>
						<mask maskUnits="userSpaceOnUse" x="-2.6" y="-2.6" width="50" height="19.6" id="mask-30">
							<g class="st35">
								<path id="path-29" class="st1" d="M0.4,13.9l0.1,0C3.6,12.4,25,2.3,44.3,13.8C40.2,5.9,32,0.4,22.4,0.4
									C12.8,0.4,4.5,5.9,0.4,13.9z"/>
							</g>
						</mask>
						<polygon id="Fill-67" class="st36" points="-2.6,17 47.4,17 47.4,-2.6 -2.6,-2.6 						"/>
					</g>
					<path id="Fill-70" class="st12" d="M565,85.5c4.1-8,12.4-13.4,22-13.4c9.5,0,17.8,5.4,21.9,13.3c-19.3-11.4-40.7-1.4-43.8,0.1
						L565,85.5z"/>
					<g id="Group-74" transform="translate(564.000000, 71.650000)">
						<g id="Clip-73">
						</g>
						<defs>
							
								<filter id="Adobe_OpacityMaskFilter_15_" filterUnits="userSpaceOnUse" x="-1138" y="-130.7" width="3838.2" height="3051.7">
								<feColorMatrix  type="matrix" values="1 0 0 0 0  0 1 0 0 0  0 0 1 0 0  0 0 0 1 0"/>
							</filter>
						</defs>
						<mask maskUnits="userSpaceOnUse" x="-1138" y="-130.7" width="3838.2" height="3051.7" id="mask-32">
							<g class="st37">
								<path id="path-31" class="st1" d="M1,13.9l0.1,0c3.1-1.6,24.5-11.6,43.8-0.1C40.8,5.8,32.5,0.4,22.9,0.4
									C13.4,0.4,5.1,5.9,1,13.9z"/>
							</g>
						</mask>
						<polygon id="Fill-72" class="st38" points="-1138,2921 2700.2,2921 2700.2,-130.7 -1138,-130.7 						"/>
					</g>
					<g id="Group-77" transform="translate(564.000000, 71.650000)">
						<g id="Clip-76">
						</g>
						<defs>
							<filter id="Adobe_OpacityMaskFilter_16_" filterUnits="userSpaceOnUse" x="-2.1" y="-2.6" width="50" height="19.6">
								<feColorMatrix  type="matrix" values="1 0 0 0 0  0 1 0 0 0  0 0 1 0 0  0 0 0 1 0"/>
							</filter>
						</defs>
						<mask maskUnits="userSpaceOnUse" x="-2.1" y="-2.6" width="50" height="19.6" id="mask-34">
							<g class="st39">
								<path id="path-33" class="st1" d="M1,13.9l0.1,0c3.1-1.6,24.5-11.6,43.8-0.1C40.8,5.9,32.5,0.4,22.9,0.4
									C13.4,0.4,5.1,5.9,1,13.9z"/>
							</g>
						</mask>
						<polygon id="Fill-75" class="st40" points="-2.1,17 47.9,17 47.9,-2.6 -2.1,-2.6 						"/>
					</g>
					<g id="Group-80" transform="translate(510.000000, 189.650000)">
						<g id="Clip-79">
						</g>
						<defs>
							<filter id="Adobe_OpacityMaskFilter_17_" filterUnits="userSpaceOnUse" x="-2.4" y="-2.3" width="100.4" height="36.9">
								<feColorMatrix  type="matrix" values="1 0 0 0 0  0 1 0 0 0  0 0 1 0 0  0 0 0 1 0"/>
							</filter>
						</defs>
						<mask maskUnits="userSpaceOnUse" x="-2.4" y="-2.3" width="100.4" height="36.9" id="mask-36">
							<g class="st41">
								<path id="path-35" class="st1" d="M0.7,31.5l0.3,0l94,0c0,0,1.5-10.2-15.2-30.5L16.4,0.7C-0.7,21.3,0.7,31.5,0.7,31.5z"/>
							</g>
						</mask>
						<polygon id="Fill-78" class="st42" points="-2.4,34.6 98.1,34.6 98.1,-2.3 -2.4,-2.3 						"/>
					</g>
					<g id="Group-83" transform="translate(510.000000, 207.650000)">
						<g id="Clip-82">
						</g>
						<defs>
							<filter id="Adobe_OpacityMaskFilter_18_" filterUnits="userSpaceOnUse" x="-3" y="-2.4" width="101.8" height="40.9">
								<feColorMatrix  type="matrix" values="1 0 0 0 0  0 1 0 0 0  0 0 1 0 0  0 0 0 1 0"/>
							</filter>
						</defs>
						<mask maskUnits="userSpaceOnUse" x="-3" y="-2.4" width="101.8" height="40.9" id="mask-38">
							<g class="st43">
								<path id="path-37" class="st1" d="M14.1,0.6c-7.7,0-14,6.3-14,14v6.7c0,7.7,6.3,14,14,14h67.7c7.7,0,14-6.3,14-14v-6.7
									c0-7.7-6.3-14-14-14H14.1z"/>
							</g>
						</mask>
						<polygon id="Fill-81" class="st44" points="-3,38.4 98.9,38.4 98.9,-2.4 -3,-2.4 						"/>
					</g>
					<g id="Group-92" transform="translate(440.000000, 28.650000)">
						<path id="Fill-84" class="st5" d="M17.4,29.1c-0.6,0-1-0.2-1.1-0.2l0.5-0.9c0,0,1.9,0.9,5.8-2.9c2.7-2.5,2.5-4.8,2.3-7
							c-0.1-1.2-0.2-2.5,0.2-3.7c1.1-3.3,6-7,6.3-7.2L32,8c0,0-4.9,3.6-5.9,6.7c-0.3,1-0.3,2.1-0.2,3.3c0.2,2.3,0.4,4.9-2.6,7.8
							C20.4,28.5,18.5,29.1,17.4,29.1"/>
						<path id="Fill-86" class="st5" d="M15.8,28.5l-0.1-1c0.1,0,5.6-0.8,7.5-3.4c2-2.6,0.8-6.7-0.5-9.9c-1.5-3.9-0.7-9.9,1.1-13.5
							l0.9,0.4c-1.6,3.3-2.5,9.1-1,12.7c1.4,3.5,2.7,7.9,0.4,10.9C21.8,27.6,16.1,28.4,15.8,28.5"/>
						<path id="Fill-88" class="st5" d="M16.4,28.8l-0.2-1c0.1,0,6.6-1.2,8.4-4.3c0.9-1.6,1.1-3.4,0.4-5c-0.8-1.9-2.7-3.2-5.6-3.9
							c-8-1.9-9.7-5.6-9.7-8.3h1c0,3.4,3.1,6,9,7.4c4,0.9,5.6,2.9,6.3,4.4c0.8,1.8,0.6,4-0.5,5.9C23.5,27.6,16.7,28.8,16.4,28.8"/>
						<path id="Fill-90" class="st5" d="M16.4,28.8L16.4,28.8l0-1h0c0.3,0,5.6-0.1,7.7-4.8c0.6-1.4,0.7-2.6,0.2-3.3
							c-0.9-1.4-3.7-1.6-6.3-1.6l-0.7,0c-3.4,0-10.4,0.1-14.3-4.1c-2.1-2.3-3.1-5.4-2.9-9.5l1,0.1c-0.2,3.7,0.6,6.7,2.6,8.7
							c3.7,3.9,10.4,3.8,13.6,3.8l0.7,0c3,0,6,0.2,7.2,2c0.7,1,0.6,2.5-0.1,4.2C22.7,28.7,16.5,28.8,16.4,28.8"/>
					</g>
					<g id="Group-95" transform="translate(446.000000, 43.650000)">
						<g id="Clip-94">
						</g>
						<defs>
							<filter id="Adobe_OpacityMaskFilter_19_" filterUnits="userSpaceOnUse" x="-2.4" y="-3.3" width="45.6" height="93">
								<feColorMatrix  type="matrix" values="1 0 0 0 0  0 1 0 0 0  0 0 1 0 0  0 0 0 1 0"/>
							</filter>
						</defs>
						<mask maskUnits="userSpaceOnUse" x="-2.4" y="-3.3" width="45.6" height="93" id="mask-40">
							<g class="st45">
								<polygon id="path-39" class="st1" points="14.6,17.3 13.1,10.5 10.5,7.4 6.1,7.7 3.2,57.1 0.7,60.2 6,63.9 8.3,61.2 
									8.7,58.3 10.3,62.7 40,86.7 40.2,64.1 12.7,47.8 10.9,28.1 22,18.4 26.3,0 								"/>
							</g>
						</mask>
						<polygon id="Fill-93" class="st46" points="-2.4,89.7 43.2,89.7 43.2,-3.3 -2.4,-3.3 						"/>
					</g>
					<g id="Group-98" transform="translate(485.000000, 48.650000)">
						<g id="Clip-97">
						</g>
						<defs>
							<filter id="Adobe_OpacityMaskFilter_20_" filterUnits="userSpaceOnUse" x="-2.4" y="-2.2" width="150.6" height="147.6">
								<feColorMatrix  type="matrix" values="1 0 0 0 0  0 1 0 0 0  0 0 1 0 0  0 0 0 1 0"/>
							</filter>
						</defs>
						<mask maskUnits="userSpaceOnUse" x="-2.4" y="-2.2" width="150.6" height="147.6" id="mask-42">
							<g class="st47">
								<path id="path-41" class="st1" d="M12.3,0.9C5.9,0.9,0.7,6.1,0.7,12.5v118.3c0,6.4,5.2,11.6,11.6,11.6h121.3
									c6.4,0,11.6-5.2,11.6-11.6V12.5c0-6.4-5.2-11.6-11.6-11.6H12.3z M12.9,119.2V24.7c0-6.4,5.2-11.6,11.6-11.6h96.9
									c6.4,0,11.6,5.2,11.6,11.6v94.5c0,6.4-5.2,11.6-11.6,11.6H24.5C18.1,130.7,12.9,125.6,12.9,119.2z"/>
							</g>
						</mask>
						<polygon id="Fill-96" class="st48" points="-2.4,145.4 148.2,145.4 148.2,-2.2 -2.4,-2.2 						"/>
					</g>
					<g id="Group-109" transform="translate(523.000000, 206.650000)">
						<path id="Fill-99" class="st3" d="M67.8,20.1c-0.1,4.7-0.1,9.6-2.8,16.2h3.2c2.5-6.5,2.5-11.5,2.6-16.2l0-0.8
							c0.2-11.6-3.5-18.7-3.7-19l-2.7,1.4c0,0.1,3.5,6.7,3.3,17.6L67.8,20.1z"/>
						<path id="Fill-101" class="st3" d="M53.3,20.1c-0.1,4.7-0.1,9.6-2.8,16.2h3.2c2.5-6.5,2.5-11.5,2.6-16.2l0-0.8
							c0.2-11.6-3.5-18.7-3.7-19L50,1.8c0,0.1,3.5,6.7,3.3,17.6L53.3,20.1z"/>
						<polygon id="Fill-103" class="st3" points="37.4,36.4 37.4,0.4 34.4,0.4 34.4,36.4 						"/>
						<path id="Fill-105" class="st3" d="M20.7,36.4c-1-2.4-2.9-8.2-2.8-16.4l0-0.8c0.1-5,0.1-10.2,3.3-17.5l-2.7-1.2
							C15,8.3,15,13.8,14.9,19.1l0,0.8c-0.1,7.7,1.5,13.4,2.6,16.4H20.7z"/>
						<path id="Fill-107" class="st3" d="M6.2,36.4C5.2,34,3.3,28.2,3.4,20l0-0.8c0.1-5,0.1-10.2,3.3-17.5L4,0.4
							C0.5,8.3,0.5,13.8,0.4,19.1l0,0.8C0.3,27.6,1.9,33.3,3,36.4H6.2z"/>
					</g>
				</g>
			</g>
		</g>
	</g>
</g>
<polygon class="st3" points="525.3,145.5 525.1,145.7 517.7,142.1 524.3,112.8 525.1,112.7 525.2,112.7 525.4,112.7 525.9,112.8 
	528.2,131.5 "/>
</svg>
