<?xml version="1.0" encoding="utf-8"?>
<!-- Generator: Adobe Illustrator 21.0.2, SVG Export Plug-In . SVG Version: 6.00 Build 0)  -->
<svg version="1.1" id="Layer_1" xmlns="http://www.w3.org/2000/svg" xmlns:xlink="http://www.w3.org/1999/xlink" x="0px" y="0px"
	 viewBox="0 0 217 64.7" style="enable-background:new 0 0 217 64.7;" xml:space="preserve">
<style type="text/css">
	.st0{fill:#01042D;}
	.st1{fill:#FFC71E;}
	.st2{fill:#F21F40;}
	.st3{fill:#514170;}
</style>
<g>
	<g>
		<path class="st0" d="M3.7,42.6c0.2,0,0.5,0,0.7,0c0.2,0,0.4,0,0.6,0c1.1-0.1,1.9-0.4,2.4-1.1c0.5-0.6,0.8-1.6,0.8-3V21.4h1.5v17.1
			c0,2-0.4,3.4-1.2,4.2c-0.8,0.8-1.9,1.3-3.3,1.3c-0.5,0-1,0-1.5,0V42.6z"/>
		<path class="st0" d="M14.5,38.5c0,0.6,0.1,1.2,0.2,1.7c0.1,0.5,0.3,1,0.6,1.4c0.3,0.4,0.6,0.7,1.1,0.9c0.4,0.2,1,0.3,1.6,0.3
			s1.2-0.1,1.6-0.3c0.4-0.2,0.8-0.5,1.1-0.9c0.3-0.4,0.5-0.8,0.6-1.4c0.1-0.5,0.2-1.1,0.2-1.7V21.4h1.4v17.1c0,0.8-0.1,1.6-0.3,2.3
			c-0.2,0.7-0.5,1.3-0.8,1.8c-0.4,0.5-0.9,0.9-1.5,1.2c-0.6,0.3-1.4,0.4-2.2,0.4c-0.9,0-1.6-0.1-2.2-0.4c-0.6-0.3-1.1-0.7-1.5-1.2
			c-0.4-0.5-0.7-1.1-0.9-1.8c-0.2-0.7-0.3-1.4-0.3-2.3V21.4h1.5V38.5z"/>
		<path class="st0" d="M30.7,21.2c0.9,0,1.6,0.1,2.2,0.4c0.6,0.3,1.1,0.7,1.5,1.2c0.4,0.5,0.7,1.1,0.9,1.8s0.3,1.4,0.3,2.3v0.5h-1.4
			v-0.6c0-0.6-0.1-1.2-0.2-1.7c-0.1-0.5-0.3-0.9-0.6-1.3c-0.3-0.4-0.6-0.7-1.1-0.9c-0.4-0.2-0.9-0.3-1.6-0.3c-1.2,0-2.1,0.4-2.6,1.2
			c-0.5,0.8-0.8,1.8-0.8,3c0,0.9,0.2,1.7,0.6,2.4s0.9,1.2,1.5,1.8c0.6,0.5,1.3,1,2,1.5c0.7,0.5,1.4,1,2,1.6c0.6,0.6,1.1,1.2,1.5,2
			c0.4,0.7,0.6,1.6,0.6,2.7c0,0.8-0.1,1.6-0.3,2.3s-0.5,1.3-0.9,1.8c-0.4,0.5-0.9,0.9-1.5,1.2c-0.6,0.3-1.4,0.4-2.2,0.4
			c-0.9,0-1.6-0.1-2.2-0.4c-0.6-0.3-1.1-0.7-1.5-1.2c-0.4-0.5-0.7-1.1-0.9-1.8s-0.3-1.4-0.3-2.3v-1.2h1.4v1.3c0,1.2,0.3,2.2,0.8,3
			s1.4,1.2,2.7,1.2c1.2,0,2.1-0.4,2.7-1.2c0.5-0.8,0.8-1.8,0.8-3c0-0.9-0.2-1.7-0.6-2.3c-0.4-0.6-0.9-1.2-1.5-1.8
			c-0.6-0.5-1.3-1-2-1.5s-1.4-1-2-1.6c-0.6-0.6-1.1-1.2-1.5-2c-0.4-0.7-0.6-1.6-0.6-2.7c0-1.7,0.4-3.1,1.1-4.1S29,21.2,30.7,21.2z"
			/>
		<path class="st0" d="M42.5,44V22.7h-4.6v-1.4h10.7v1.4H44V44H42.5z"/>
		<path class="st0" d="M53.5,21.4V44H52V21.4H53.5z"/>
		<path class="st0" d="M58.8,44h-1.4V21.4h1.9l6.8,19.1V21.4h1.4V44h-1.7l-7.1-20.2V44z"/>
	</g>
	<g>
		<path class="st0" d="M127.7,21.4c1.7,0,2.9,0.4,3.6,1.2c0.7,0.8,1,2,1,3.6v1.3c0,1.2-0.2,2.2-0.6,3s-1.2,1.3-2.3,1.5
			c1.2,0.2,2.1,0.8,2.6,1.6c0.5,0.9,0.8,1.9,0.8,3.2v2c0,1.6-0.4,2.9-1.2,3.9c-0.8,0.9-2,1.4-3.8,1.4H123V21.4H127.7z M127,31.4
			c0.7,0,1.2-0.1,1.7-0.2c0.5-0.1,0.9-0.3,1.2-0.6c0.3-0.3,0.6-0.6,0.7-1.1c0.2-0.5,0.2-1.1,0.2-1.8v-1.5c0-1.2-0.2-2.1-0.7-2.7
			s-1.3-0.9-2.5-0.9h-3.2v8.6H127z M127.8,42.6c1.3,0,2.1-0.3,2.7-1c0.5-0.7,0.8-1.6,0.8-2.9v-2c0-1.5-0.3-2.5-1-3.1
			c-0.7-0.6-1.7-0.9-3-0.9h-2.8v9.9H127.8z"/>
		<path class="st0" d="M140.7,21.4c1.7,0,3,0.5,3.7,1.4s1.1,2.2,1.1,3.8v2c0,2.6-1.1,4.2-3.3,4.7c1.2,0.3,2,0.8,2.5,1.6
			s0.8,1.8,0.8,3v3.5c0,0.5,0,1,0.1,1.4c0.1,0.5,0.2,0.9,0.5,1.3h-1.6c-0.2-0.3-0.3-0.7-0.4-1.1c-0.1-0.4-0.1-0.9-0.1-1.6v-3.6
			c0-0.8-0.1-1.4-0.3-1.9c-0.2-0.5-0.5-0.9-0.9-1.2c-0.4-0.3-0.8-0.5-1.3-0.6c-0.5-0.1-1.1-0.2-1.7-0.2h-2.4V44H136V21.4H140.7z
			 M139.8,32.5c0.7,0,1.3-0.1,1.8-0.2c0.5-0.1,1-0.3,1.3-0.6c0.4-0.3,0.6-0.7,0.8-1.2c0.2-0.5,0.3-1.1,0.3-1.9v-2.1
			c0-1.2-0.3-2.2-0.8-2.9c-0.5-0.7-1.4-1-2.6-1h-3.2v9.8H139.8z"/>
		<path class="st0" d="M151.6,39l-1.1,5h-1.4l5-22.7h2.2l5,22.7h-1.5l-1.1-5H151.6z M151.8,37.7h6.6L155,23L151.8,37.7z"/>
		<path class="st0" d="M174.4,44h-10.2v-1.4l8.8-19.9h-8.3v-1.4h9.9v1.4l-8.8,19.9h8.6V44z"/>
		<path class="st0" d="M185.4,31.8v1.4h-6.2v9.4h7.4V44h-8.9V21.4h8.9v1.4h-7.4v9.1H185.4z"/>
		<path class="st0" d="M191.7,39l-1.1,5h-1.4l5-22.7h2.2l5,22.7h-1.5l-1.1-5H191.7z M191.9,37.7h6.6L195.2,23L191.9,37.7z"/>
		<path class="st0" d="M205.5,38.5c0,0.6,0.1,1.2,0.2,1.7c0.1,0.5,0.3,1,0.6,1.4c0.3,0.4,0.6,0.7,1.1,0.9c0.4,0.2,1,0.3,1.6,0.3
			s1.2-0.1,1.6-0.3c0.4-0.2,0.8-0.5,1.1-0.9c0.3-0.4,0.5-0.8,0.6-1.4c0.1-0.5,0.2-1.1,0.2-1.7V21.4h1.4v17.1c0,0.8-0.1,1.6-0.3,2.3
			c-0.2,0.7-0.5,1.3-0.8,1.8c-0.4,0.5-0.9,0.9-1.5,1.2c-0.6,0.3-1.4,0.4-2.2,0.4c-0.9,0-1.6-0.1-2.2-0.4c-0.6-0.3-1.1-0.7-1.5-1.2
			c-0.4-0.5-0.7-1.1-0.9-1.8c-0.2-0.7-0.3-1.4-0.3-2.3V21.4h1.5V38.5z"/>
	</g>
	<g>
		<path class="st1" d="M86.4,44.2c-0.8,0-1.6-0.3-2.2-0.9l21.9-21.9c0.5,0.6,0.9,1.3,0.9,2.2v17.6c0,1.7-1.4,3-3,3H86.4z"/>
	</g>
	<g>
		<path class="st2" d="M83.4,41.1V23.5c0-1.7,1.4-3,3-3H104c0.8,0,1.6,0.3,2.2,0.9v0L84.3,43.3C83.7,42.8,83.4,42,83.4,41.1z"/>
	</g>
	<g>
		<path class="st3" d="M83.4,23.5v17.6c0,0.8,0.3,1.6,0.9,2.2c0.5,0.6,1.3,0.9,2.2,0.9H104c1.7,0,3-1.4,3-3V23.5
			c0-0.8-0.3-1.6-0.9-2.2v0c-0.5-0.5-1.3-0.9-2.2-0.9H86.4C84.7,20.5,83.4,21.8,83.4,23.5z M78.4,21.6c0-3.4,2.7-6.1,6.1-6.1h5.1
			h5.6h5.6h5.1c3.4,0,6.1,2.7,6.1,6.1v21.5c0,3.4-2.7,6.1-6.1,6.1h-5.1h-5.6h-5.6h-5.1c-3.4,0-6.1-2.7-6.1-6.1V21.6z"/>
	</g>
	<g>
		<g>
			<path class="st0" d="M106,14.6h-4.2V8.5c0-0.5-0.4-0.9-0.9-0.9S99.9,8,99.9,8.5v6.1h-3.8V2.9c0-0.5-0.4-0.9-0.9-0.9
				s-0.9,0.4-0.9,0.9v11.7h-3.8V8.5c0-0.5-0.4-0.9-0.9-0.9S88.7,8,88.7,8.5v6.1h-4.2c-3.9,0-7,3.1-7,7v21.5c0,3.9,3.1,7,7,7h4.2v6.1
				c0,0.5,0.4,0.9,0.9,0.9s0.9-0.4,0.9-0.9v-6.1h3.8v11.7c0,0.5,0.4,0.9,0.9,0.9s0.9-0.4,0.9-0.9V50.1h3.8v6.1
				c0,0.5,0.4,0.9,0.9,0.9s0.9-0.4,0.9-0.9v-6.1h4.2c3.9,0,7-3.1,7-7V21.6C113,17.7,109.8,14.6,106,14.6z M111.1,43.1
				c0,2.9-2.3,5.2-5.2,5.2H84.5c-2.9,0-5.2-2.3-5.2-5.2V21.6c0-2.9,2.3-5.2,5.2-5.2H106c2.9,0,5.2,2.3,5.2,5.2V43.1z"/>
		</g>
		<g>
			<path class="st0" d="M106.4,21.2L106.4,21.2l0.4-0.4c-0.7-0.7-1.7-1.2-2.8-1.2H86.4c-2.2,0-4,1.8-4,4v17.6c0,1.1,0.4,2.1,1.2,2.8
				c0.7,0.8,1.7,1.2,2.8,1.2H104c2.2,0,4-1.8,4-4V23.5c0-1.1-0.4-2-1.2-2.8L106.4,21.2z M84.3,41.1V23.5c0-1.2,1-2.1,2.1-2.1H104
				c0.2,0,0.5,0,0.7,0.1L84.4,41.9C84.3,41.6,84.3,41.4,84.3,41.1z M106.2,41.1c0,1.2-1,2.1-2.1,2.1H86.4c-0.2,0-0.5,0-0.7-0.1
				L106,22.8c0.1,0.2,0.1,0.5,0.1,0.7V41.1z"/>
		</g>
	</g>
</g>
</svg>
