<?xml version="1.0" encoding="utf-8"?>
<!-- Generator: Adobe Illustrator 21.0.2, SVG Export Plug-In . SVG Version: 6.00 Build 0)  -->
<svg version="1.1" id="Layer_1" xmlns="http://www.w3.org/2000/svg" xmlns:xlink="http://www.w3.org/1999/xlink" x="0px" y="0px"
	 viewBox="0 0 217 64.7" style="enable-background:new 0 0 217 64.7;" xml:space="preserve">
<style type="text/css">
	.st0{fill:#F8F5F9;}
	.st1{fill:#FFC71E;}
	.st2{fill:#F21F40;}
	.st3{fill:#514170;}
</style>
<g>
	<g>
		<path class="st0" d="M3.7,42.7c0.2,0,0.5,0,0.7,0c0.2,0,0.4,0,0.6,0c1.1-0.1,1.9-0.4,2.4-1.1C8,41,8.2,40,8.2,38.5V21.4h1.5v17.1
			c0,2-0.4,3.4-1.2,4.2C7.7,43.5,6.6,44,5.2,44c-0.5,0-1,0-1.5,0V42.7z"/>
		<path class="st0" d="M14.5,38.5c0,0.6,0.1,1.2,0.2,1.7c0.1,0.5,0.3,1,0.6,1.4c0.3,0.4,0.6,0.7,1.1,0.9c0.4,0.2,1,0.3,1.6,0.3
			s1.2-0.1,1.6-0.3c0.4-0.2,0.8-0.5,1.1-0.9c0.3-0.4,0.5-0.8,0.6-1.4c0.1-0.5,0.2-1.1,0.2-1.7V21.4h1.4v17.1c0,0.8-0.1,1.6-0.3,2.3
			c-0.2,0.7-0.5,1.3-0.8,1.8c-0.4,0.5-0.9,0.9-1.5,1.2c-0.6,0.3-1.4,0.4-2.2,0.4c-0.9,0-1.6-0.1-2.2-0.4c-0.6-0.3-1.1-0.7-1.5-1.2
			c-0.4-0.5-0.7-1.1-0.9-1.8c-0.2-0.7-0.3-1.4-0.3-2.3V21.4h1.5V38.5z"/>
		<path class="st0" d="M30.7,21.2c0.9,0,1.6,0.1,2.2,0.4c0.6,0.3,1.1,0.7,1.5,1.2c0.4,0.5,0.7,1.1,0.9,1.8s0.3,1.4,0.3,2.3v0.5h-1.4
			v-0.6c0-0.6-0.1-1.2-0.2-1.7c-0.1-0.5-0.3-0.9-0.6-1.3c-0.3-0.4-0.6-0.7-1.1-0.9c-0.4-0.2-0.9-0.3-1.6-0.3c-1.2,0-2.1,0.4-2.6,1.2
			c-0.5,0.8-0.8,1.8-0.8,3c0,0.9,0.2,1.7,0.6,2.4s0.9,1.2,1.5,1.8c0.6,0.5,1.3,1,2,1.5c0.7,0.5,1.4,1,2,1.6c0.6,0.6,1.1,1.2,1.5,2
			c0.4,0.7,0.6,1.6,0.6,2.7c0,0.8-0.1,1.6-0.3,2.3s-0.5,1.3-0.9,1.8c-0.4,0.5-0.9,0.9-1.5,1.2c-0.6,0.3-1.4,0.4-2.2,0.4
			c-0.9,0-1.6-0.1-2.2-0.4c-0.6-0.3-1.1-0.7-1.5-1.2c-0.4-0.5-0.7-1.1-0.9-1.8s-0.3-1.4-0.3-2.3v-1.2h1.4v1.3c0,1.2,0.3,2.2,0.8,3
			s1.4,1.2,2.7,1.2c1.2,0,2.1-0.4,2.7-1.2c0.5-0.8,0.8-1.8,0.8-3c0-0.9-0.2-1.7-0.6-2.3c-0.4-0.6-0.9-1.2-1.5-1.8
			c-0.6-0.5-1.3-1-2-1.5s-1.4-1-2-1.6c-0.6-0.6-1.1-1.2-1.5-2c-0.4-0.7-0.6-1.6-0.6-2.7c0-1.7,0.4-3.1,1.1-4.1S29,21.2,30.7,21.2z"
			/>
		<path class="st0" d="M42.5,44V22.7h-4.6v-1.4h10.7v1.4H44V44H42.5z"/>
		<path class="st0" d="M53.5,21.4V44H52V21.4H53.5z"/>
		<path class="st0" d="M58.8,44h-1.4V21.4h1.9l6.8,19.1V21.4h1.4V44h-1.7l-7.1-20.2V44z"/>
	</g>
	<g>
		<path class="st0" d="M127.9,21.4c1.7,0,2.9,0.4,3.6,1.2c0.7,0.8,1,2,1,3.6v1.3c0,1.2-0.2,2.2-0.6,3s-1.2,1.3-2.3,1.5
			c1.2,0.2,2.1,0.8,2.6,1.6c0.5,0.9,0.8,1.9,0.8,3.2v2c0,1.6-0.4,2.9-1.2,3.9c-0.8,0.9-2,1.4-3.8,1.4h-4.9V21.4H127.9z M127.1,31.4
			c0.7,0,1.2-0.1,1.7-0.2c0.5-0.1,0.9-0.3,1.2-0.6c0.3-0.3,0.6-0.6,0.7-1.1c0.2-0.5,0.2-1.1,0.2-1.8v-1.5c0-1.2-0.2-2.1-0.7-2.7
			s-1.3-0.9-2.5-0.9h-3.2v8.6H127.1z M128,42.7c1.3,0,2.1-0.3,2.7-1c0.5-0.7,0.8-1.6,0.8-2.9v-2c0-1.5-0.3-2.5-1-3.1
			c-0.7-0.6-1.7-0.9-3-0.9h-2.8v9.9H128z"/>
		<path class="st0" d="M140.8,21.4c1.7,0,3,0.5,3.7,1.4s1.1,2.2,1.1,3.8v2c0,2.6-1.1,4.2-3.3,4.7c1.2,0.3,2,0.8,2.5,1.6
			s0.8,1.8,0.8,3v3.5c0,0.5,0,1,0.1,1.4c0.1,0.5,0.2,0.9,0.5,1.3h-1.6c-0.2-0.3-0.3-0.7-0.4-1.1c-0.1-0.4-0.1-0.9-0.1-1.6v-3.6
			c0-0.8-0.1-1.4-0.3-1.9c-0.2-0.5-0.5-0.9-0.9-1.2c-0.4-0.3-0.8-0.5-1.3-0.6c-0.5-0.1-1.1-0.2-1.7-0.2h-2.4V44h-1.5V21.4H140.8z
			 M140,32.5c0.7,0,1.3-0.1,1.8-0.2c0.5-0.1,1-0.3,1.3-0.6c0.4-0.3,0.6-0.7,0.8-1.2c0.2-0.5,0.3-1.1,0.3-1.9v-2.1
			c0-1.2-0.3-2.2-0.8-2.9c-0.5-0.7-1.4-1-2.6-1h-3.2v9.8H140z"/>
		<path class="st0" d="M151.7,39l-1.1,5h-1.4l5-22.7h2.2l5,22.7h-1.5l-1.1-5H151.7z M151.9,37.7h6.6l-3.3-14.7L151.9,37.7z"/>
		<path class="st0" d="M174.5,44h-10.2v-1.4l8.8-19.9h-8.3v-1.4h9.9v1.4l-8.8,19.9h8.6V44z"/>
		<path class="st0" d="M185.5,31.9v1.4h-6.2v9.4h7.4V44h-8.9V21.4h8.9v1.4h-7.4v9.1H185.5z"/>
		<path class="st0" d="M191.8,39l-1.1,5h-1.4l5-22.7h2.2l5,22.7H200l-1.1-5H191.8z M192,37.7h6.6l-3.3-14.7L192,37.7z"/>
		<path class="st0" d="M205.6,38.5c0,0.6,0.1,1.2,0.2,1.7c0.1,0.5,0.3,1,0.6,1.4c0.3,0.4,0.6,0.7,1.1,0.9c0.4,0.2,1,0.3,1.6,0.3
			s1.2-0.1,1.6-0.3c0.4-0.2,0.8-0.5,1.1-0.9c0.3-0.4,0.5-0.8,0.6-1.4c0.1-0.5,0.2-1.1,0.2-1.7V21.4h1.4v17.1c0,0.8-0.1,1.6-0.3,2.3
			c-0.2,0.7-0.5,1.3-0.8,1.8c-0.4,0.5-0.9,0.9-1.5,1.2c-0.6,0.3-1.4,0.4-2.2,0.4c-0.9,0-1.6-0.1-2.2-0.4c-0.6-0.3-1.1-0.7-1.5-1.2
			c-0.4-0.5-0.7-1.1-0.9-1.8c-0.2-0.7-0.3-1.4-0.3-2.3V21.4h1.5V38.5z"/>
	</g>
	<g>
		<path class="st1" d="M86.5,44.2c-0.8,0-1.6-0.3-2.2-0.9l21.9-21.9c0.5,0.6,0.9,1.3,0.9,2.2v17.6c0,1.7-1.4,3-3,3H86.5z"/>
	</g>
	<g>
		<path class="st2" d="M83.4,41.2V23.5c0-1.7,1.4-3,3-3h17.6c0.8,0,1.6,0.3,2.2,0.9v0L84.3,43.3C83.8,42.8,83.4,42,83.4,41.2z"/>
	</g>
	<g>
		<path class="st3" d="M83.4,23.5v17.6c0,0.8,0.3,1.6,0.9,2.2c0.5,0.6,1.3,0.9,2.2,0.9h17.6c1.7,0,3-1.4,3-3V23.5
			c0-0.8-0.3-1.6-0.9-2.2v0c-0.5-0.5-1.3-0.9-2.2-0.9H86.5C84.8,20.5,83.4,21.8,83.4,23.5z M78.5,21.6c0-3.4,2.7-6.1,6.1-6.1h5.1
			h5.6h5.6h5.1c3.4,0,6.1,2.7,6.1,6.1v21.5c0,3.4-2.7,6.1-6.1,6.1h-5.1h-5.6h-5.6h-5.1c-3.4,0-6.1-2.7-6.1-6.1V21.6z"/>
	</g>
</g>
</svg>
