<?xml version="1.0" encoding="utf-8"?>
<!-- Generator: Adobe Illustrator 21.0.2, SVG Export Plug-In . SVG Version: 6.00 Build 0)  -->
<svg version="1.1" id="Layer_1" xmlns="http://www.w3.org/2000/svg" xmlns:xlink="http://www.w3.org/1999/xlink" x="0px" y="0px"
	 viewBox="0 0 128 128" style="enable-background:new 0 0 128 128;" xml:space="preserve">
<style type="text/css">
	.st0{fill:#FFFFFF;}
</style>
<g>
	<g>
		<path class="st0" d="M123.5,68.5H4.5C2,68.5,0,66.5,0,64s2-4.5,4.5-4.5h119.1c2.5,0,4.5,2,4.5,4.5S126,68.5,123.5,68.5z"/>
	</g>
	<g>
		<path class="st0" d="M112.2,104.1H17.7c-2.5,0-4.5-2-4.5-4.5c0-2.5,2-4.5,4.5-4.5h94.5c2.5,0,4.5,2,4.5,4.5
			C116.7,102.1,114.7,104.1,112.2,104.1z"/>
	</g>
	<g>
		<path class="st0" d="M112.2,32.8H17.7c-2.5,0-4.5-2-4.5-4.5s2-4.5,4.5-4.5h94.5c2.5,0,4.5,2,4.5,4.5S114.7,32.8,112.2,32.8z"/>
	</g>
</g>
</svg>
