<?xml version="1.0" encoding="utf-8"?>
<!-- Generator: Adobe Illustrator 21.0.2, SVG Export Plug-In . SVG Version: 6.00 Build 0)  -->
<svg version="1.1" id="Layer_1" xmlns="http://www.w3.org/2000/svg" xmlns:xlink="http://www.w3.org/1999/xlink" x="0px" y="0px"
	 viewBox="0 0 200 270" style="enable-background:new 0 0 200 270;" xml:space="preserve">
<style type="text/css">
	.st0{fill:#752CAF;}
	.st1{fill:#ABADFA;}
	.st2{fill:#1E839C;}
	.st3{fill:#FFC71E;}
	.st4{fill:#2A3268;}
	.st5{fill:#00CE83;}
	.st6{fill:#F21F40;}
	.st7{fill:#01042D;}
</style>
<g id="XMLID_6_">
	<g>
		<path class="st0" d="M191,73v75.3l-8.3,8.3c0,0,0,0,0,0L171,168.2V93L191,73z"/>
		<polygon class="st1" points="186.5,68.4 167.8,87.1 149,68.4 		"/>
		<path class="st2" d="M181.7,166.6v20.2l-58.9,58.9v-66.3c0-1.8-1.4-3.2-3.2-3.2h-5.8v-65.5l11.7-11.7H138v50.6
			c0,0.8,0.3,1.7,1,2.3l26.6,26.4h0c0,0.1,0.1,0.1,0.2,0.1c0.3,0.2,0.5,0.5,0.9,0.6c0.4,0.2,0.8,0.3,1.2,0.3c0.4,0,0.8-0.1,1.2-0.3
			c0.4-0.2,0.7-0.4,1-0.6c0,0,0.1,0,0.1-0.1L181.7,166.6z"/>
		<path class="st3" d="M181.7,11.4V62h-40.5c-0.4,0-0.8,0.1-1.2,0.2c-0.4,0.2-0.7,0.4-1,0.7h0c-0.1,0.1-0.1,0.2-0.2,0.2
			c-0.2,0.3-0.4,0.5-0.5,0.8c-0.2,0.4-0.2,0.7-0.2,1.1c0,0.1,0,0.1,0,0.1v0v27.3h-10.5V48.3l16.2-15.8c0,0,0,0,0,0l21-21H181.7z"/>
		<polygon class="st4" points="164.6,93 164.6,168.3 144.4,148.2 144.4,73 		"/>
		<polygon class="st5" points="133.5,33.4 99.9,66.2 66.3,33.4 		"/>
		<path class="st6" d="M121,54.6v39.8l-12.7,12.7c-0.6,0.6-0.9,1.4-0.9,2.3v66.9h-15v-66.9c0-0.8-0.3-1.7-1-2.3L78.8,94.4V54.6
			l18.3,17.9l0.5,0.5c0.6,0.6,1.4,1,2.3,1h0c0.8,0,1.7-0.3,2.3-1L121,54.6z"/>
		<path class="st3" d="M116.4,253.7v4.7h-33v-4.8v0v-35.8h33v35.6C116.4,253.4,116.4,253.5,116.4,253.7z"/>
		<rect x="83.5" y="182.6" class="st5" width="33" height="28.6"/>
		<path class="st2" d="M86,110.7v65.5h-5.8c-1.8,0-3.2,1.4-3.2,3.2v66.3l-58.9-58.9v-20.2l11.7,11.7c0,0,0.1,0,0.1,0.1
			c0.3,0.3,0.6,0.5,1,0.6c0.4,0.2,0.8,0.3,1.2,0.3c0.4,0,0.8-0.1,1.2-0.3c0.3-0.1,0.6-0.3,0.8-0.5c0.1-0.1,0.2-0.1,0.2-0.2
			l26.6-26.4c0.6-0.6,1-1.4,1-2.3V98.9h12.4L86,110.7z"/>
		<path class="st3" d="M72.4,48.3v44.2H61.9V65.2v0c0-0.1,0-0.1,0-0.1c0-0.4-0.1-0.7-0.2-1.1c-0.1-0.3-0.3-0.5-0.5-0.8
			C61,63.1,61,63,60.9,63c-0.3-0.3-0.7-0.5-1.1-0.7c-0.4-0.2-0.8-0.2-1.2-0.2H18.1V11.4h17.1l21,21h0c0,0,0,0,0,0L72.4,48.3z"/>
		<polygon class="st0" points="55.4,73 55.4,148.2 35.3,168.3 35.3,93 		"/>
		<polygon class="st1" points="50.8,68.4 32,87.1 13.4,68.4 		"/>
		<polygon class="st4" points="28.8,93 28.8,168.2 17.2,156.6 8.8,148.2 8.8,73 		"/>
		<path class="st7" d="M191,148.2V73l-20,20v75.3l11.6-11.6c0,0,0,0,0,0L191,148.2z M149,68.4l18.8,18.7l18.7-18.7H149z
			 M164.6,168.3V93l-20.2-20v75.3L164.6,168.3z M181.7,11.4h-17.1l-21,21c0,0,0,0,0,0l-16.2,15.8v44.2H138V65.2v0c0-0.1,0-0.1,0-0.1
			c0-0.4,0.1-0.7,0.2-1.1c0.1-0.3,0.3-0.5,0.5-0.8c0.1-0.1,0.1-0.2,0.2-0.2h0c0.3-0.3,0.6-0.5,1-0.7c0.4-0.2,0.8-0.2,1.2-0.2h40.5
			V11.4z M83.5,253.5v4.8h33v-4.7c0-0.1,0-0.2,0-0.3v-35.6h-33V253.5L83.5,253.5z M99.9,66.2l33.6-32.8H66.3L99.9,66.2z
			 M108.3,107.1L121,94.4V54.6L102.2,73c-0.6,0.6-1.4,1-2.3,1h0c-0.8,0-1.7-0.4-2.3-1l-0.5-0.5L78.8,54.6v39.8l12.7,12.7
			c0.6,0.6,1,1.4,1,2.3v66.9h15v-66.9C107.4,108.5,107.7,107.7,108.3,107.1z M116.4,182.6h-33v28.6h33V182.6z M113.8,176.2h5.8
			c1.8,0,3.2,1.4,3.2,3.2v66.3l58.9-58.9v-20.2l-11.7,11.7c0,0-0.1,0-0.1,0.1c-0.3,0.3-0.6,0.5-1,0.6c-0.4,0.2-0.8,0.3-1.2,0.3
			c-0.4,0-0.8-0.1-1.2-0.3c-0.3-0.1-0.6-0.4-0.9-0.6c-0.1,0-0.1-0.1-0.2-0.1h0l-26.6-26.4c-0.6-0.6-1-1.4-1-2.3V98.9h-12.4
			l-11.7,11.7V176.2z M28.8,168.2V93l-20-20v75.3l8.4,8.3L28.8,168.2z M32,87.1l18.8-18.7H13.4L32,87.1z M38.8,6l21,21h80.3l21-21
			c0.6-0.6,1.4-1,2.3-1h21.6c1.8,0,3.2,1.4,3.2,3.2V62h6.1h0c0.4,0,0.8,0.1,1.2,0.2c0.4,0.2,0.7,0.4,1,0.6c0,0,0.1,0.1,0.1,0.1
			c0,0.1,0,0.1,0.1,0.1c0.3,0.3,0.5,0.6,0.6,0.9c0.2,0.4,0.2,0.8,0.2,1.2v84.3c0,0.8-0.3,1.7-0.9,2.3l-8.4,8.3v28
			c0,0.8-0.3,1.7-0.9,2.3l-64.4,64.4v6.8c0,1.8-1.4,3.2-3.2,3.2H80.2c-1.8,0-3.2-1.5-3.2-3.2v-6.7l-64.4-64.4
			c-0.6-0.6-0.9-1.4-0.9-2.3v-28l-8.3-8.3c-0.6-0.6-1-1.4-1-2.3V65.2c0-0.4,0.1-0.8,0.3-1.2c0.1-0.4,0.4-0.6,0.6-0.9
			c0-0.1,0-0.1,0.1-0.1c0,0,0.1,0,0.1,0c0.3-0.3,0.6-0.5,1-0.7C4.8,62.1,5.2,62,5.6,62h6.1V8.2c0-1.8,1.4-3.2,3.2-3.2h21.6
			C37.3,5,38.2,5.3,38.8,6z M60.9,151.9l-26.6,26.4c-0.1,0.1-0.2,0.1-0.2,0.2c-0.3,0.2-0.5,0.4-0.8,0.5c-0.4,0.2-0.8,0.3-1.2,0.3
			c-0.4,0-0.8-0.1-1.2-0.3c-0.4-0.2-0.7-0.4-1-0.6c0,0-0.1,0-0.1-0.1l-11.7-11.7v20.2L77,245.7v-66.3c0-1.8,1.4-3.2,3.2-3.2H86
			v-65.5L74.3,98.9H61.9v50.6C61.9,150.4,61.5,151.2,60.9,151.9z M55.4,148.2V73L35.3,93v75.3L55.4,148.2z M72.4,48.3L56.2,32.5
			c0,0,0,0,0,0h0l-21-21H18.1V62h40.5c0.4,0,0.8,0.1,1.2,0.2c0.4,0.2,0.7,0.4,1.1,0.7c0.1,0.1,0.1,0.2,0.2,0.2
			c0.2,0.3,0.4,0.5,0.5,0.8c0.1,0.4,0.2,0.7,0.2,1.1c0,0.1,0,0.1,0,0.1v0v27.3h10.5V48.3z"/>
	</g>
</g>
</svg>
